<svg fill="none" height="83" viewBox="0 0 107 83" width="107" xmlns="http://www.w3.org/2000/svg"><path d="m38.9662 83h-38.711317v-27.4391c0-11.1031.964337-19.84 2.893017-26.2106 2.02052-6.4616 5.69419-12.2407 11.021-17.3371 5.3268-5.09653 12.1231-9.10092 20.3889-12.0132l7.5769 15.8355c-7.7147 2.5483-13.2711 6.0976-16.6692 10.6481-3.3063 4.5504-5.0513 10.6025-5.235 18.1562h18.7357zm64.6108 0h-38.7114v-27.4391c0-11.1941.9643-19.9765 2.893-26.3471 2.0205-6.3706 5.6942-12.1042 11.021-17.2006 5.4187-5.09653 12.215-9.10092 20.3889-12.0132l7.5765 15.8355c-7.7143 2.5483-13.2707 6.0976-16.6688 10.6481-3.3063 4.5504-5.0513 10.6025-5.235 18.1562h18.7358z" fill="#1a1a1a" fill-opacity=".1"/></svg>