<svg width="23" height="22" viewBox="0 0 23 22" fill="none" xmlns="http://www.w3.org/2000/svg">
<g clip-path="url(#clip0_1835_1757)">
<path d="M11.5929 19.9672C10.5411 19.9672 9.54689 19.7947 8.61015 19.4496C7.67342 19.1044 6.82707 18.6279 6.07111 18.0198L4.12368 19.9672L2.71858 18.5621L4.666 16.6147C4.05795 15.8587 3.58136 15.0081 3.23625 14.0628C2.89114 13.1182 2.71858 12.1282 2.71858 11.0929C2.71858 8.62781 3.58564 6.53248 5.31975 4.80691C7.0532 3.08135 9.14426 2.21857 11.5929 2.21857H20.4672V11.0929C20.4672 13.5416 19.6045 15.6329 17.8789 17.3671C16.1533 19.1005 14.058 19.9672 11.5929 19.9672ZM10.2864 15.8998L15.3892 11.3394C15.5535 11.1915 15.6028 11.0147 15.5371 10.8089C15.4713 10.6038 15.3234 10.4848 15.0933 10.452L11.0999 10.0576L13.491 6.77899C13.5568 6.69682 13.5854 6.61037 13.5768 6.51966C13.5689 6.4296 13.5321 6.34349 13.4664 6.26132C13.3842 6.17915 13.2899 6.13806 13.1834 6.13806C13.0762 6.13806 12.9816 6.17915 12.8994 6.26132L7.82132 10.8217C7.65698 10.9696 7.60768 11.1461 7.67342 11.3512C7.73915 11.557 7.88706 11.6763 8.11713 11.7092L12.1106 12.1036L9.69479 15.3822C9.64549 15.4643 9.62084 15.5508 9.62084 15.6415C9.62084 15.7315 9.66192 15.8177 9.74409 15.8998C9.82626 15.982 9.91665 16.0231 10.0153 16.0231C10.1139 16.0231 10.2042 15.982 10.2864 15.8998Z" fill="#43A45E"/>
</g>
<defs>
<clipPath id="clip0_1835_1757">
<rect x="0.5" width="22" height="22" rx="8" fill="white"/>
</clipPath>
</defs>
</svg>
