<svg width="80" height="80" viewBox="0 0 80 80" fill="none" xmlns="http://www.w3.org/2000/svg">
<ellipse opacity="0.4" cx="39.5745" cy="40" rx="39.5745" ry="40" fill="#f7f7f7"/>
<path d="M58.2269 22.9787H27.9669C25.8779 22.9787 24.1844 24.6722 24.1844 26.7612V45.6737C24.1844 47.7627 25.8779 49.4562 27.9669 49.4562H58.2269C60.3159 49.4562 62.0094 47.7627 62.0094 45.6737V26.7612C62.0094 24.6722 60.3159 22.9787 58.2269 22.9787Z" stroke="#43A45E" stroke-width="1.5" stroke-linecap="round" stroke-linejoin="round"/>
<path d="M11.0638 57.0212H67.4468" stroke="#43A45E" stroke-width="1.5" stroke-linecap="round" stroke-linejoin="round"/>
<path d="M46.2883 49.4562V57.0212" stroke="#43A45E" stroke-width="1.5" stroke-linecap="round" stroke-linejoin="round"/>
<path d="M38.8416 49.4562V57.0212" stroke="#43A45E" stroke-width="1.5" stroke-linecap="round" stroke-linejoin="round"/>
<rect x="52.0212" y="51.7021" width="13.8298" height="5.31915" stroke="#43A45E" stroke-width="1.5" stroke-linecap="round" stroke-linejoin="round"/>
<path d="M23.2979 31.4893H14.7872V57.0212H30.7447V49.5744" stroke="#43A45E" stroke-width="1.5" stroke-linecap="round" stroke-linejoin="round"/>
<path d="M22.7659 43.1914C20.7096 43.1914 19.0425 41.5244 19.0425 39.468C19.0425 37.4117 20.7096 35.7446 22.7659 35.7446" stroke="#43A45E" stroke-width="1.5" stroke-linecap="round" stroke-linejoin="round"/>
</svg>
