<svg width="18" height="18" viewBox="0 0 18 18" fill="none" xmlns="http://www.w3.org/2000/svg">
<path d="M17.2874 1.52588e-05H1.60913C1.18154 1.52588e-05 0.896484 0.285074 0.896484 0.712662V16.3909C0.896484 16.8185 1.18154 17.1035 1.60913 17.1035H17.2874C17.715 17.1035 18 16.8185 18 16.3909V0.712662C18 0.285074 17.715 1.52588e-05 17.2874 1.52588e-05ZM5.95628 14.6093H3.46201V6.41384H6.02754V14.6093H5.95628ZM4.67351 5.2736C3.8896 5.2736 3.17695 4.63222 3.17695 3.77704C3.17695 2.99313 3.81834 2.28049 4.67351 2.28049C5.45743 2.28049 6.17007 2.92187 6.17007 3.77704C6.17007 4.63222 5.52869 5.2736 4.67351 5.2736ZM15.5057 14.6093H12.9402V10.6185C12.9402 9.69201 12.9402 8.48051 11.6575 8.48051C10.3034 8.48051 10.1609 9.47822 10.1609 10.5472V14.6093H7.59537V6.41384H10.0184V7.55407C10.3747 6.91269 11.1586 6.27131 12.4414 6.27131C15.0069 6.27131 15.5057 7.98166 15.5057 10.1909V14.6093Z" fill="#43A45E"/>
</svg>
