<svg width="38" height="34" viewBox="0 0 38 34" fill="none" xmlns="http://www.w3.org/2000/svg">
<path d="M24.7684 0.807785C23.7438 1.34531 23.265 2.53796 23.643 3.60463C23.7102 3.78101 23.7522 3.94898 23.7354 3.96578C23.7018 3.99098 22.7947 4.14216 18.6456 4.82247L16 5.25082L14.9669 4.94006C14.4042 4.76368 13.9506 4.6041 13.9674 4.57891C14.5973 3.47025 14.5386 2.38678 13.791 1.53849C13.0855 0.732193 11.7081 0.555817 10.7758 1.16054C10.2887 1.4797 0.478739 11.844 0.23517 12.3143C0.0419947 12.6671 0 12.8435 0 13.339C0 14.1033 0.243569 14.6492 0.797898 15.1364C1.42782 15.6907 2.18372 15.8587 2.95642 15.6235L3.34277 15.5143L3.37637 16.2366C3.43516 17.3117 3.67033 17.7568 4.76219 18.8067L5.62728 19.6466L5.19894 20.0665C4.64461 20.6125 4.35905 21.1836 4.30025 21.8387C4.24146 22.6114 4.45143 23.1405 5.03936 23.7369C5.59369 24.2828 6.19841 24.5264 6.88712 24.4592L7.29027 24.4172L7.32387 25.0975C7.36586 25.8786 7.54224 26.2817 8.03778 26.7605C8.50812 27.214 9.07924 27.4492 9.75956 27.4492H10.3139V28.0035C10.3055 29.3809 11.347 30.4392 12.7244 30.4392H13.3123L13.3207 31.0523C13.3291 31.7914 13.4887 32.161 14.001 32.7153C14.4462 33.1941 15.0677 33.4628 15.7396 33.4628C16.4619 33.4628 16.9154 33.2529 17.5958 32.6145C17.9317 32.2954 18.2341 32.035 18.2677 32.035C18.3013 32.035 18.5196 32.2114 18.7464 32.4214C19.3511 32.9841 19.8047 33.1689 20.6194 33.1689C21.1653 33.1689 21.3669 33.1269 21.7028 32.9673C22.5427 32.5557 23.0887 31.7494 23.1559 30.8172L23.2062 30.288L23.5002 30.414C23.9538 30.5988 24.844 30.5736 25.3396 30.3552C25.8267 30.1453 26.4062 29.5993 26.6414 29.1374C26.7506 28.9358 26.8346 28.5747 26.8598 28.2387L26.9018 27.676L27.2461 27.8187C27.7417 28.0203 28.7411 28.0035 29.2367 27.7768C30.0766 27.3988 30.6309 26.6177 30.7149 25.6686L30.7653 25.1647L31.1432 25.3327C31.454 25.4754 31.6472 25.5006 32.2099 25.467C32.9994 25.4251 33.4445 25.2235 33.9569 24.6524C34.4272 24.1316 34.5448 23.8377 34.5868 23.065C34.6204 22.4182 34.6036 22.3342 34.36 21.8303C34.1417 21.3936 33.8981 21.108 33.1338 20.3857C32.6047 19.8986 32.1679 19.4534 32.1679 19.403C32.1679 19.361 32.655 18.8319 33.243 18.2272C34.5112 16.9337 34.7044 16.581 34.7212 15.4723C34.7296 14.8592 34.738 14.8256 34.8976 14.8844C35.2503 15.0104 36.3086 14.9516 36.6613 14.7752C37.1821 14.5148 37.6692 13.9857 37.8372 13.4734C38.0388 12.8519 37.98 12.0204 37.686 11.5248C37.5684 11.3232 35.1327 8.83716 32.2771 5.98993C26.549 0.278652 26.8598 0.539017 25.7763 0.539017C25.3984 0.539017 25.1884 0.597809 24.7684 0.807785ZM26.5742 1.37891C26.801 1.4881 28.6152 3.24347 32.0083 6.64504C37.5348 12.1883 37.35 11.9616 37.2745 12.8435C37.2073 13.6665 36.6277 14.2377 35.7878 14.2965C35.4183 14.3217 35.2251 14.2881 34.9732 14.1621C34.486 13.9101 24.4829 3.865 24.3149 3.46185C23.9957 2.67235 24.3905 1.67287 25.1548 1.32852C25.5328 1.16054 26.1795 1.18574 26.5742 1.37891ZM12.9931 1.74006C13.6399 2.18521 13.9086 3.09229 13.6147 3.8062C13.5475 3.96578 11.3554 6.33428 8.44932 9.39149C4.7454 13.2802 3.30078 14.7416 3.02362 14.8844C2.27611 15.2707 1.31023 14.96 0.856691 14.1873C0.587925 13.7169 0.621521 12.8687 0.923882 12.4403C1.15065 12.1295 10.7506 2.01723 11.053 1.78206C11.3638 1.53009 11.6157 1.4629 12.1449 1.4881C12.548 1.5049 12.7412 1.56369 12.9931 1.74006ZM28.9847 9.3327C34.2676 14.6324 34.0661 14.3805 34.0493 15.4975C34.0409 16.3458 33.7973 16.7658 32.6131 17.9416L31.622 18.9327L26.8934 14.3553C24.2897 11.844 22.1648 9.76105 22.1648 9.71905C22.1648 9.68546 22.5259 9.59307 22.9711 9.51748C23.4162 9.44188 23.811 9.3495 23.8614 9.2991C24.0293 9.13112 23.9118 8.81197 23.6766 8.78677C23.4078 8.75317 18.3013 9.58467 18.2173 9.66866C18.1837 9.71065 17.7385 11.1301 17.2262 12.8435C16.7139 14.5484 16.2351 16.0938 16.1595 16.2618C15.7816 17.1185 14.7737 17.4881 13.9422 17.0597C13.3795 16.7742 13.0771 16.3458 13.0435 15.7579C13.0099 15.3379 13.1527 14.7752 14.2278 11.1217C14.9081 8.83716 15.496 6.86341 15.5464 6.73743C15.6724 6.43507 16.2267 5.93113 16.5207 5.85554C16.6551 5.83035 18.4189 5.52798 20.4514 5.19203C22.4839 4.86447 24.1637 4.5873 24.1889 4.57891C24.2141 4.57051 26.3726 6.71223 28.9847 9.3327ZM14.3454 5.44399C14.8745 5.60357 15.3197 5.75476 15.3448 5.77995C15.37 5.80515 15.2945 5.93953 15.1769 6.07391C14.9165 6.38467 14.9669 6.24189 13.5223 11.1553C12.632 14.2209 12.3464 15.2959 12.3464 15.6487C12.3464 16.4802 12.8588 17.2781 13.6399 17.698C14.1354 17.9584 15.1769 17.9584 15.6724 17.698C16.0924 17.4797 16.4955 17.0849 16.6887 16.7154C16.7643 16.5726 17.2514 15.0524 17.7637 13.3474L18.696 10.2398L19.2 10.139C19.4687 10.0886 20.0399 9.98782 20.4598 9.92902L21.2241 9.80304L24.7852 13.2466C26.7422 15.1448 29.497 17.8072 30.9081 19.1678C32.3863 20.5957 33.5705 21.8135 33.6965 22.0319C34.1165 22.729 33.9737 23.7705 33.3774 24.3248C32.8566 24.8035 31.9579 24.9715 31.3028 24.7027C31.1432 24.6272 30.4293 24.0308 29.7322 23.3673C29.0351 22.7038 28.4052 22.1579 28.338 22.1411C28.17 22.0991 27.9684 22.2755 27.9684 22.4518C27.9684 22.5274 28.3632 22.981 28.8419 23.4597C29.8666 24.4676 30.0178 24.7279 30.0262 25.4838C30.0262 26.1978 29.7406 26.7185 29.1611 27.0544C28.8335 27.256 28.674 27.2896 28.1784 27.2896C27.7753 27.2896 27.4981 27.2392 27.3133 27.1384C27.1537 27.0544 26.5658 26.5505 26.0115 26.0214C24.7768 24.8539 24.7517 24.8371 24.5249 25.0639C24.2981 25.2907 24.3569 25.3999 25.1548 26.139C25.9695 26.9033 26.2047 27.298 26.2047 27.9447C26.2047 29.045 25.4488 29.8513 24.4073 29.8765C23.6766 29.8849 23.4246 29.7421 22.316 28.7006C21.7532 28.1715 21.1989 27.676 21.0897 27.6004C20.9049 27.4744 20.8797 27.4744 20.737 27.6592C20.527 27.9195 20.5942 28.0203 21.4173 28.7762C22.4167 29.6833 22.6687 30.3132 22.4167 31.2371C22.2908 31.6823 21.6524 32.3206 21.2073 32.4466C20.6446 32.5977 20.2162 32.5557 19.7543 32.3038C19.242 32.0266 17.9149 30.7668 10.2215 23.2245C5.90445 18.9831 4.40104 17.4545 4.26666 17.1689C4.04829 16.7238 3.97269 15.8587 4.10708 15.3547C4.15747 15.1616 4.30025 14.8592 4.42624 14.6744C4.58582 14.4392 13.3459 5.14163 13.3963 5.15843C13.3963 5.15843 13.8246 5.29281 14.3454 5.44399ZM8.6089 22.5442C8.6677 22.645 7.69342 23.5437 7.37426 23.6781C6.274 24.1316 4.96377 23.2665 4.95537 22.0823C4.95537 21.4944 5.10655 21.1416 5.60209 20.6125L6.06403 20.1085L7.31547 21.2928C8.00418 21.9479 8.58371 22.5106 8.6089 22.5442ZM10.4399 24.3752L11.6745 25.6098L11.2378 26.0466C10.5407 26.7185 10.0199 26.9117 9.33121 26.7437C8.84408 26.6261 8.36534 26.2565 8.14696 25.8114C7.93699 25.4167 7.92019 24.6607 8.11337 24.2828C8.23935 24.0308 9.05405 23.1321 9.15484 23.1321C9.18003 23.1321 9.75956 23.6865 10.4399 24.3752ZM14.6981 28.5914C14.6981 28.7174 13.7323 29.5405 13.4467 29.6581C13.2871 29.7253 12.9679 29.7757 12.7244 29.7757C11.7249 29.7757 10.9774 29.0198 10.9774 28.0035C10.9774 27.4408 11.137 27.1132 11.6913 26.5169L12.1113 26.0718L13.4047 27.3064C14.1186 27.9783 14.6981 28.5579 14.6981 28.5914ZM16.5039 30.3048L17.7637 31.5143L17.3018 31.993C16.7475 32.5641 16.3191 32.7909 15.748 32.7909C14.9669 32.7909 14.2614 32.2702 14.0346 31.5395C13.8246 30.834 13.9842 30.33 14.6393 29.6245C14.9165 29.3306 15.1601 29.0954 15.1937 29.0954C15.2189 29.0954 15.8152 29.6413 16.5039 30.3048Z" fill="#1A1A1A"/>
</svg>
