<svg width="90" height="60" viewBox="0 0 90 60" fill="none" xmlns="http://www.w3.org/2000/svg">
<path d="M29.8559 16.1855H1.51953" stroke="#43A45E" stroke-width="1.5" stroke-linecap="round" stroke-linejoin="round"/>
<path d="M29.856 16.1827L42.3893 1.44531" stroke="#43A45E" stroke-width="1.5" stroke-linecap="round" stroke-linejoin="round"/>
<path d="M29.4927 58.6593L29.4927 16.2832" stroke="#43A45E" stroke-width="1.5" stroke-linecap="round" stroke-linejoin="round"/>
<path d="M15.688 15.7374L28.2214 1" stroke="#43A45E" stroke-width="1.5" stroke-linecap="round" stroke-linejoin="round"/>
<path d="M1.5199 14.3684L1.52005 58.6593L54.9229 58.6593L54.9227 14.3684L42.3894 1L14.0532 1L1.5199 14.3684Z" stroke="#43A45E" stroke-width="1.5" stroke-linecap="round" stroke-linejoin="round"/>
<path d="M4.91016 19.7559V24.6187H9.99615V19.7559H4.91016Z" stroke="#43A45E" stroke-width="1.5" stroke-linecap="round" stroke-linejoin="round"/>
<path d="M35.4268 53.1016V58.6591H48.9894V53.1016H35.4268Z" stroke="#43A45E" stroke-width="1.5" stroke-linecap="round" stroke-linejoin="round"/>
<path d="M9.14844 52.4062V58.6585H22.7111V52.4062H9.14844Z" stroke="#43A45E" stroke-width="1.5" stroke-linecap="round" stroke-linejoin="round"/>
<path d="M5.33398 11.2695H33.1254" stroke="#43A45E" stroke-width="1.5" stroke-linecap="round" stroke-linejoin="round"/>
<path d="M10.2388 6.35742H38.0302" stroke="#43A45E" stroke-width="1.5" stroke-linecap="round" stroke-linejoin="round"/>
<path d="M72.6753 32.0488H54.9224" stroke="#43A45E" stroke-width="1.5" stroke-linecap="round" stroke-linejoin="round"/>
<path d="M72.6758 32.0456L80.528 22.8125" stroke="#43A45E" stroke-width="1.5" stroke-linecap="round" stroke-linejoin="round"/>
<path d="M72.4482 58.6583L72.4482 32.1094" stroke="#43A45E" stroke-width="1.5" stroke-linecap="round" stroke-linejoin="round"/>
<path d="M63.7993 31.7682L71.6516 22.5352" stroke="#43A45E" stroke-width="1.5" stroke-linecap="round" stroke-linejoin="round"/>
<path d="M54.9226 30.9105L54.9227 58.6591L88.3799 58.6591L88.3798 30.9105L80.5276 22.5352L62.7748 22.5352L54.9226 30.9105Z" stroke="#43A45E" stroke-width="1.5" stroke-linecap="round" stroke-linejoin="round"/>
<path d="M76.1655 50.8242V55.1765H84.6626V50.8242H76.1655Z" stroke="#43A45E" stroke-width="1.5" stroke-linecap="round" stroke-linejoin="round"/>
<path d="M59 27H76.4115" stroke="#43A45E" stroke-width="1.5" stroke-linecap="round" stroke-linejoin="round"/>
</svg>
