<svg width="18" height="18" viewBox="0 0 18 18" fill="none" xmlns="http://www.w3.org/2000/svg">
<path d="M16.2759 1.52588e-05H2.02295C1.64494 1.52588e-05 1.28241 0.15018 1.01512 0.417474C0.747821 0.684769 0.597656 1.0473 0.597656 1.42531L0.597656 15.6782C0.597656 16.0563 0.747821 16.4188 1.01512 16.6861C1.28241 16.9534 1.64494 17.1035 2.02295 17.1035H9.86207V10.6897H7.72413V7.83913H9.86207V5.99551C9.86207 3.78631 11.2111 2.58336 13.1823 2.58336C14.1265 2.58336 14.9375 2.65391 15.1741 2.68527V4.99425L13.8073 4.99496C12.7355 4.99496 12.5281 5.5045 12.5281 6.25135V7.83913H15.6922L14.9796 10.6897H12.5281V17.1035H16.2759C16.6539 17.1035 17.0164 16.9534 17.2837 16.6861C17.551 16.4188 17.7012 16.0563 17.7012 15.6782V1.42531C17.7012 1.0473 17.551 0.684769 17.2837 0.417474C17.0164 0.15018 16.6539 1.52588e-05 16.2759 1.52588e-05V1.52588e-05Z" fill="#43A45E"/>
</svg>
