<svg width="18" height="18" viewBox="0 0 18 18" fill="none" xmlns="http://www.w3.org/2000/svg">
<path fill-rule="evenodd" clip-rule="evenodd" d="M4.70088 0.0140345C4.70088 0.0224461 4.64481 0.0280538 4.56069 0.0280538C4.47657 0.0280538 4.4205 0.0336615 4.4205 0.0420731C4.4205 0.0500781 4.37844 0.0560924 4.32236 0.0560924C4.26629 0.0560924 4.22423 0.0621067 4.22423 0.0701117C4.22423 0.0779064 4.18684 0.084131 4.14011 0.084131C4.09339 0.084131 4.056 0.0903555 4.056 0.0981502C4.056 0.105861 4.03707 0.11217 4.01394 0.11217C3.99081 0.11217 3.97188 0.118478 3.97188 0.126189C3.97188 0.133899 3.94665 0.140208 3.9158 0.140208C3.88496 0.140208 3.85973 0.146517 3.85973 0.154227C3.85973 0.161938 3.82818 0.168247 3.78963 0.168247C3.75108 0.168247 3.71953 0.174555 3.71953 0.182266C3.71953 0.189977 3.6943 0.196285 3.66346 0.196285C3.63261 0.196285 3.60738 0.202594 3.60738 0.210305C3.60738 0.218015 3.59476 0.224324 3.57934 0.224324C3.56392 0.224324 3.5513 0.230632 3.5513 0.238343C3.5513 0.246054 3.53238 0.252362 3.50924 0.252362C3.48611 0.252362 3.46719 0.258671 3.46719 0.266382C3.46719 0.274092 3.45457 0.280401 3.43915 0.280401C3.42373 0.280401 3.41111 0.28671 3.41111 0.29442C3.41111 0.302131 3.39218 0.30844 3.36905 0.30844C3.34592 0.30844 3.32699 0.314748 3.32699 0.322459C3.32699 0.330169 3.30807 0.336478 3.28494 0.336478C3.2618 0.336478 3.24288 0.342787 3.24288 0.350497C3.24288 0.358208 3.22395 0.364517 3.20082 0.364517C3.17769 0.364517 3.15876 0.370825 3.15876 0.378536C3.15876 0.386247 3.14614 0.392555 3.13072 0.392555C3.1153 0.392555 3.10269 0.398864 3.10269 0.406575C3.10269 0.414285 3.09007 0.420594 3.07465 0.420594C3.05923 0.420594 3.04661 0.426902 3.04661 0.434613C3.04661 0.442324 3.03399 0.448632 3.01857 0.448632C3.00315 0.448632 2.99053 0.454941 2.99053 0.462652C2.99053 0.470362 2.97791 0.476671 2.96249 0.476671C2.94707 0.476671 2.93445 0.48298 2.93445 0.49069C2.93445 0.498401 2.92184 0.504709 2.90642 0.504709C2.89099 0.504709 2.87838 0.511018 2.87838 0.518729C2.87838 0.526439 2.86576 0.532748 2.85034 0.532748C2.83492 0.532748 2.8223 0.539057 2.8223 0.546767C2.8223 0.554478 2.80968 0.560787 2.79426 0.560787C2.77884 0.560787 2.76622 0.567095 2.76622 0.574806C2.76622 0.582517 2.75499 0.588825 2.74128 0.588825C2.72756 0.588825 2.70724 0.601443 2.69613 0.616864C2.68501 0.632285 2.66469 0.644902 2.65097 0.644902C2.63726 0.644902 2.62603 0.651211 2.62603 0.658922C2.62603 0.666632 2.6148 0.672941 2.60109 0.672941C2.58736 0.672941 2.56705 0.685558 2.55593 0.700979C2.54482 0.716401 2.5245 0.729018 2.51078 0.729018C2.49707 0.729018 2.48584 0.735327 2.48584 0.743037C2.48584 0.750748 2.47461 0.757057 2.4609 0.757057C2.44717 0.757057 2.42686 0.769674 2.41574 0.785095C2.40462 0.800516 2.38683 0.813134 2.37621 0.813134C2.36559 0.813134 2.33921 0.83206 2.31761 0.855192C2.296 0.878323 2.27077 0.897249 2.26153 0.897249C2.25229 0.897249 2.22705 0.916175 2.20545 0.939307C2.18385 0.962439 2.15861 0.981365 2.14937 0.981365C2.14013 0.981365 2.1149 1.00029 2.0933 1.02342C2.07169 1.04655 2.04684 1.06548 2.03806 1.06548C2.0293 1.06548 1.96583 1.12226 1.89703 1.19165C1.82822 1.26105 1.76522 1.31783 1.757 1.31783C1.73756 1.31783 1.61664 1.43874 1.61664 1.45819C1.61664 1.4664 1.55986 1.52941 1.49047 1.59821C1.42107 1.66702 1.36429 1.73049 1.36429 1.73925C1.36429 1.74802 1.34537 1.77288 1.32224 1.79448C1.2991 1.81609 1.28018 1.84132 1.28018 1.85056C1.28018 1.8598 1.26125 1.88503 1.23812 1.90664C1.21499 1.92824 1.19606 1.95348 1.19606 1.96272C1.19606 1.97195 1.17714 1.99719 1.154 2.01879C1.13087 2.0404 1.11195 2.06678 1.11195 2.07739C1.11195 2.08802 1.09933 2.10581 1.08391 2.11693C1.06849 2.12804 1.05587 2.14836 1.05587 2.16208C1.05587 2.17579 1.04956 2.18702 1.04185 2.18702C1.03414 2.18702 1.02783 2.19825 1.02783 2.21196C1.02783 2.22569 1.01521 2.246 0.999792 2.25712C0.984371 2.26824 0.971754 2.28855 0.971754 2.30228C0.971754 2.31599 0.965445 2.32722 0.957734 2.32722C0.950024 2.32722 0.943715 2.33845 0.943715 2.35216C0.943715 2.36588 0.931098 2.3862 0.915677 2.39731C0.900255 2.40843 0.887638 2.42874 0.887638 2.44247C0.887638 2.45618 0.881329 2.46741 0.873619 2.46741C0.865908 2.46741 0.8596 2.48003 0.8596 2.49545C0.8596 2.51087 0.853291 2.52349 0.84558 2.52349C0.83787 2.52349 0.831561 2.5361 0.831561 2.55153C0.831561 2.56695 0.825252 2.57956 0.817542 2.57956C0.809831 2.57956 0.803522 2.59218 0.803522 2.6076C0.803522 2.62302 0.797214 2.63564 0.789503 2.63564C0.781792 2.63564 0.775484 2.64826 0.775484 2.66368C0.775484 2.6791 0.769175 2.69172 0.761465 2.69172C0.753754 2.69172 0.747445 2.70434 0.747445 2.71976C0.747445 2.73518 0.741137 2.7478 0.733426 2.7478C0.725715 2.7478 0.719407 2.76041 0.719407 2.77583C0.719407 2.79125 0.713098 2.80387 0.705387 2.80387C0.697677 2.80387 0.691368 2.81649 0.691368 2.83191C0.691368 2.84733 0.685059 2.85995 0.677349 2.85995C0.669638 2.85995 0.66333 2.87888 0.66333 2.90201C0.66333 2.92514 0.657021 2.94406 0.64931 2.94406C0.6416 2.94406 0.635291 2.96299 0.635291 2.98612C0.635291 3.00925 0.628982 3.02818 0.621272 3.02818C0.613561 3.02818 0.607252 3.04711 0.607252 3.07024C0.607252 3.09337 0.600944 3.1123 0.593233 3.1123C0.585522 3.1123 0.579214 3.12491 0.579214 3.14033C0.579214 3.15576 0.572905 3.16837 0.565195 3.16837C0.557484 3.16837 0.551175 3.1873 0.551175 3.21043C0.551175 3.23356 0.544867 3.25249 0.537156 3.25249C0.529445 3.25249 0.523137 3.26511 0.523137 3.28053C0.523137 3.29595 0.516828 3.30857 0.509117 3.30857C0.501407 3.30857 0.495098 3.3338 0.495098 3.36464C0.495098 3.39549 0.488789 3.42072 0.481079 3.42072C0.473368 3.42072 0.46706 3.45226 0.46706 3.49082C0.46706 3.52937 0.460751 3.56091 0.45304 3.56091C0.44533 3.56091 0.439021 3.58615 0.439021 3.61699C0.439021 3.64783 0.432712 3.67307 0.425002 3.67307C0.417291 3.67307 0.410982 3.69199 0.410982 3.71513C0.410982 3.73826 0.404674 3.75718 0.396963 3.75718C0.389168 3.75718 0.382944 3.79457 0.382944 3.8413C0.382944 3.88803 0.376719 3.92541 0.368925 3.92541C0.36092 3.92541 0.354905 3.96747 0.354905 4.02355C0.354905 4.07963 0.348891 4.12168 0.340886 4.12168C0.332474 4.12168 0.326867 4.17776 0.326867 4.26188C0.326867 4.34599 0.321259 4.40207 0.312847 4.40207C0.303539 4.40207 0.298828 5.79465 0.298828 8.55178C0.298828 11.3089 0.303539 12.7015 0.312847 12.7015C0.321259 12.7015 0.326867 12.7576 0.326867 12.8417C0.326867 12.9258 0.332474 12.9819 0.340886 12.9819C0.348891 12.9819 0.354905 13.0239 0.354905 13.08C0.354905 13.1361 0.36092 13.1781 0.368925 13.1781C0.376719 13.1781 0.382944 13.2155 0.382944 13.2623C0.382944 13.309 0.389168 13.3464 0.396963 13.3464C0.404674 13.3464 0.410982 13.3653 0.410982 13.3884C0.410982 13.4116 0.417291 13.4305 0.425002 13.4305C0.432712 13.4305 0.439021 13.4557 0.439021 13.4866C0.439021 13.5174 0.44533 13.5426 0.45304 13.5426C0.460751 13.5426 0.46706 13.5742 0.46706 13.6127C0.46706 13.6513 0.473368 13.6828 0.481079 13.6828C0.488789 13.6828 0.495098 13.7081 0.495098 13.7389C0.495098 13.7698 0.501407 13.795 0.509117 13.795C0.516828 13.795 0.523137 13.8076 0.523137 13.823C0.523137 13.8385 0.529445 13.8511 0.537156 13.8511C0.544867 13.8511 0.551175 13.87 0.551175 13.8931C0.551175 13.9163 0.557484 13.9352 0.565195 13.9352C0.572905 13.9352 0.579214 13.9478 0.579214 13.9632C0.579214 13.9786 0.585522 13.9913 0.593233 13.9913C0.600944 13.9913 0.607252 14.0102 0.607252 14.0333C0.607252 14.0565 0.613561 14.0754 0.621272 14.0754C0.628982 14.0754 0.635291 14.0943 0.635291 14.1174C0.635291 14.1406 0.6416 14.1595 0.64931 14.1595C0.657021 14.1595 0.66333 14.1784 0.66333 14.2016C0.66333 14.2247 0.669638 14.2436 0.677349 14.2436C0.685059 14.2436 0.691368 14.2562 0.691368 14.2716C0.691368 14.2871 0.697677 14.2997 0.705387 14.2997C0.713098 14.2997 0.719407 14.3123 0.719407 14.3277C0.719407 14.3431 0.725715 14.3558 0.733426 14.3558C0.741137 14.3558 0.747445 14.3684 0.747445 14.3838C0.747445 14.3992 0.753754 14.4118 0.761465 14.4118C0.769175 14.4118 0.775484 14.4245 0.775484 14.4399C0.775484 14.4553 0.781792 14.4679 0.789503 14.4679C0.797214 14.4679 0.803522 14.4805 0.803522 14.496C0.803522 14.5114 0.809831 14.524 0.817542 14.524C0.825252 14.524 0.831561 14.5366 0.831561 14.552C0.831561 14.5675 0.83787 14.5801 0.84558 14.5801C0.853291 14.5801 0.8596 14.5927 0.8596 14.6081C0.8596 14.6235 0.865908 14.6361 0.873619 14.6361C0.881329 14.6361 0.887638 14.6474 0.887638 14.6611C0.887638 14.6748 0.900255 14.6951 0.915677 14.7062C0.931098 14.7174 0.943715 14.7377 0.943715 14.7514C0.943715 14.7651 0.950024 14.7763 0.957734 14.7763C0.965445 14.7763 0.971754 14.7876 0.971754 14.8013C0.971754 14.815 0.984371 14.8353 0.999792 14.8464C1.01521 14.8576 1.02783 14.8779 1.02783 14.8916C1.02783 14.9053 1.03414 14.9165 1.04185 14.9165C1.04956 14.9165 1.05587 14.9278 1.05587 14.9415C1.05587 14.9552 1.06849 14.9755 1.08391 14.9866C1.09933 14.9977 1.11195 15.0155 1.11195 15.0262C1.11195 15.0368 1.13087 15.0632 1.154 15.0848C1.17714 15.1064 1.19606 15.1316 1.19606 15.1408C1.19606 15.1501 1.21499 15.1753 1.23812 15.1969C1.26125 15.2185 1.28018 15.2438 1.28018 15.253C1.28018 15.2622 1.2991 15.2875 1.32224 15.3091C1.34537 15.3307 1.36429 15.3555 1.36429 15.3643C1.36429 15.3731 1.42107 15.4365 1.49047 15.5053C1.55986 15.5742 1.61664 15.6372 1.61664 15.6454C1.61664 15.6648 1.73756 15.7857 1.757 15.7857C1.76522 15.7857 1.82822 15.8425 1.89703 15.9119C1.96583 15.9813 2.0293 16.0381 2.03806 16.0381C2.04684 16.0381 2.07169 16.057 2.0933 16.0801C2.1149 16.1033 2.14013 16.1222 2.14937 16.1222C2.15861 16.1222 2.18385 16.1411 2.20545 16.1643C2.22705 16.1874 2.25229 16.2063 2.26153 16.2063C2.27077 16.2063 2.296 16.2252 2.31761 16.2484C2.33921 16.2715 2.36559 16.2904 2.37621 16.2904C2.38683 16.2904 2.40462 16.303 2.41574 16.3185C2.42686 16.3339 2.44717 16.3465 2.4609 16.3465C2.47461 16.3465 2.48584 16.3528 2.48584 16.3605C2.48584 16.3682 2.49707 16.3745 2.51078 16.3745C2.5245 16.3745 2.54482 16.3872 2.55593 16.4026C2.56705 16.418 2.58736 16.4306 2.60109 16.4306C2.6148 16.4306 2.62603 16.4369 2.62603 16.4446C2.62603 16.4523 2.63726 16.4587 2.65097 16.4587C2.66469 16.4587 2.68501 16.4713 2.69613 16.4867C2.70724 16.5021 2.72756 16.5147 2.74128 16.5147C2.75499 16.5147 2.76622 16.521 2.76622 16.5288C2.76622 16.5365 2.77884 16.5428 2.79426 16.5428C2.80968 16.5428 2.8223 16.5491 2.8223 16.5568C2.8223 16.5645 2.83492 16.5708 2.85034 16.5708C2.86576 16.5708 2.87838 16.5771 2.87838 16.5848C2.87838 16.5925 2.89099 16.5988 2.90642 16.5988C2.92184 16.5988 2.93445 16.6052 2.93445 16.6129C2.93445 16.6206 2.94707 16.6269 2.96249 16.6269C2.97791 16.6269 2.99053 16.6332 2.99053 16.6409C2.99053 16.6486 3.00315 16.6549 3.01857 16.6549C3.03399 16.6549 3.04661 16.6612 3.04661 16.6689C3.04661 16.6767 3.05923 16.683 3.07465 16.683C3.09007 16.683 3.10269 16.6893 3.10269 16.697C3.10269 16.7047 3.1153 16.711 3.13072 16.711C3.14614 16.711 3.15876 16.7173 3.15876 16.725C3.15876 16.7327 3.17769 16.739 3.20082 16.739C3.22395 16.739 3.24288 16.7453 3.24288 16.7531C3.24288 16.7608 3.2618 16.7671 3.28494 16.7671C3.30807 16.7671 3.32699 16.7734 3.32699 16.7811C3.32699 16.7888 3.34592 16.7951 3.36905 16.7951C3.39218 16.7951 3.41111 16.8014 3.41111 16.8091C3.41111 16.8168 3.42373 16.8232 3.43915 16.8232C3.45457 16.8232 3.46719 16.8295 3.46719 16.8372C3.46719 16.8449 3.48611 16.8512 3.50924 16.8512C3.53238 16.8512 3.5513 16.8575 3.5513 16.8652C3.5513 16.8729 3.56392 16.8792 3.57934 16.8792C3.59476 16.8792 3.60738 16.8855 3.60738 16.8933C3.60738 16.901 3.63261 16.9073 3.66346 16.9073C3.6943 16.9073 3.71953 16.9136 3.71953 16.9213C3.71953 16.929 3.75108 16.9353 3.78963 16.9353C3.82818 16.9353 3.85973 16.9416 3.85973 16.9493C3.85973 16.957 3.88496 16.9633 3.9158 16.9633C3.94665 16.9633 3.97188 16.9697 3.97188 16.9774C3.97188 16.9851 3.99081 16.9914 4.01394 16.9914C4.03707 16.9914 4.056 16.9977 4.056 17.0054C4.056 17.0132 4.09339 17.0194 4.14011 17.0194C4.18684 17.0194 4.22423 17.0257 4.22423 17.0334C4.22423 17.0415 4.26629 17.0475 4.32236 17.0475C4.37844 17.0475 4.4205 17.0535 4.4205 17.0615C4.4205 17.0699 4.47657 17.0755 4.56069 17.0755C4.64481 17.0755 4.70088 17.0811 4.70088 17.0895C4.70088 17.0988 6.09346 17.1035 8.85059 17.1035C11.6077 17.1035 13.0003 17.0988 13.0003 17.0895C13.0003 17.0811 13.0564 17.0755 13.1405 17.0755C13.2246 17.0755 13.2807 17.0699 13.2807 17.0615C13.2807 17.0535 13.3227 17.0475 13.3788 17.0475C13.4349 17.0475 13.477 17.0415 13.477 17.0334C13.477 17.0257 13.5143 17.0194 13.5611 17.0194C13.6078 17.0194 13.6452 17.0132 13.6452 17.0054C13.6452 16.9977 13.6641 16.9914 13.6872 16.9914C13.7104 16.9914 13.7293 16.9851 13.7293 16.9774C13.7293 16.9697 13.7545 16.9633 13.7854 16.9633C13.8162 16.9633 13.8415 16.957 13.8415 16.9493C13.8415 16.9416 13.873 16.9353 13.9116 16.9353C13.9501 16.9353 13.9816 16.929 13.9816 16.9213C13.9816 16.9136 14.0069 16.9073 14.0377 16.9073C14.0686 16.9073 14.0938 16.901 14.0938 16.8933C14.0938 16.8855 14.1064 16.8792 14.1218 16.8792C14.1373 16.8792 14.1499 16.8729 14.1499 16.8652C14.1499 16.8575 14.1688 16.8512 14.1919 16.8512C14.2151 16.8512 14.234 16.8449 14.234 16.8372C14.234 16.8295 14.2466 16.8232 14.262 16.8232C14.2775 16.8232 14.2901 16.8168 14.2901 16.8091C14.2901 16.8014 14.309 16.7951 14.3321 16.7951C14.3553 16.7951 14.3742 16.7888 14.3742 16.7811C14.3742 16.7734 14.3931 16.7671 14.4162 16.7671C14.4394 16.7671 14.4583 16.7608 14.4583 16.7531C14.4583 16.7453 14.4772 16.739 14.5004 16.739C14.5235 16.739 14.5424 16.7327 14.5424 16.725C14.5424 16.7173 14.555 16.711 14.5705 16.711C14.5859 16.711 14.5985 16.7047 14.5985 16.697C14.5985 16.6893 14.6111 16.683 14.6265 16.683C14.642 16.683 14.6546 16.6767 14.6546 16.6689C14.6546 16.6612 14.6672 16.6549 14.6826 16.6549C14.698 16.6549 14.7107 16.6486 14.7107 16.6409C14.7107 16.6332 14.7233 16.6269 14.7387 16.6269C14.7541 16.6269 14.7667 16.6206 14.7667 16.6129C14.7667 16.6052 14.7793 16.5988 14.7948 16.5988C14.8102 16.5988 14.8228 16.5925 14.8228 16.5848C14.8228 16.5771 14.8354 16.5708 14.8508 16.5708C14.8663 16.5708 14.8789 16.5645 14.8789 16.5568C14.8789 16.5491 14.8915 16.5428 14.9069 16.5428C14.9223 16.5428 14.935 16.5365 14.935 16.5288C14.935 16.521 14.9462 16.5147 14.9599 16.5147C14.9736 16.5147 14.9939 16.5021 15.0051 16.4867C15.0162 16.4713 15.0365 16.4587 15.0502 16.4587C15.0639 16.4587 15.0752 16.4523 15.0752 16.4446C15.0752 16.4369 15.0864 16.4306 15.1001 16.4306C15.1138 16.4306 15.1341 16.418 15.1453 16.4026C15.1564 16.3872 15.1767 16.3745 15.1904 16.3745C15.2041 16.3745 15.2153 16.3682 15.2153 16.3605C15.2153 16.3528 15.2266 16.3465 15.2403 16.3465C15.254 16.3465 15.2743 16.3339 15.2854 16.3185C15.2966 16.303 15.3144 16.2904 15.325 16.2904C15.3356 16.2904 15.362 16.2715 15.3836 16.2484C15.4052 16.2252 15.4304 16.2063 15.4397 16.2063C15.4489 16.2063 15.4741 16.1874 15.4957 16.1643C15.5173 16.1411 15.5426 16.1222 15.5518 16.1222C15.561 16.1222 15.5863 16.1033 15.6079 16.0801C15.6295 16.057 15.6543 16.0381 15.6631 16.0381C15.6719 16.0381 15.7354 15.9813 15.8042 15.9119C15.873 15.8425 15.936 15.7857 15.9442 15.7857C15.9636 15.7857 16.0845 15.6648 16.0845 15.6454C16.0845 15.6372 16.1413 15.5742 16.2107 15.5053C16.2801 15.4365 16.3369 15.3731 16.3369 15.3643C16.3369 15.3555 16.3558 15.3307 16.3789 15.3091C16.4021 15.2875 16.421 15.2622 16.421 15.253C16.421 15.2438 16.4399 15.2185 16.4631 15.1969C16.4862 15.1753 16.5051 15.1501 16.5051 15.1408C16.5051 15.1316 16.524 15.1064 16.5472 15.0848C16.5703 15.0632 16.5892 15.0368 16.5892 15.0262C16.5892 15.0155 16.6019 14.9977 16.6173 14.9866C16.6327 14.9755 16.6453 14.9552 16.6453 14.9415C16.6453 14.9278 16.6516 14.9165 16.6593 14.9165C16.667 14.9165 16.6734 14.9053 16.6734 14.8916C16.6734 14.8779 16.686 14.8576 16.7014 14.8464C16.7168 14.8353 16.7294 14.815 16.7294 14.8013C16.7294 14.7876 16.7357 14.7763 16.7434 14.7763C16.7512 14.7763 16.7575 14.7651 16.7575 14.7514C16.7575 14.7377 16.7701 14.7174 16.7855 14.7062C16.8009 14.6951 16.8135 14.6748 16.8135 14.6611C16.8135 14.6474 16.8199 14.6361 16.8276 14.6361C16.8353 14.6361 16.8416 14.6235 16.8416 14.6081C16.8416 14.5927 16.8479 14.5801 16.8556 14.5801C16.8633 14.5801 16.8696 14.5675 16.8696 14.552C16.8696 14.5366 16.8759 14.524 16.8836 14.524C16.8914 14.524 16.8977 14.5114 16.8977 14.496C16.8977 14.4805 16.904 14.4679 16.9117 14.4679C16.9194 14.4679 16.9257 14.4553 16.9257 14.4399C16.9257 14.4245 16.932 14.4118 16.9397 14.4118C16.9474 14.4118 16.9537 14.3992 16.9537 14.3838C16.9537 14.3684 16.96 14.3558 16.9678 14.3558C16.9755 14.3558 16.9818 14.3431 16.9818 14.3277C16.9818 14.3123 16.9881 14.2997 16.9958 14.2997C17.0035 14.2997 17.0098 14.2871 17.0098 14.2716C17.0098 14.2562 17.0161 14.2436 17.0238 14.2436C17.0315 14.2436 17.0379 14.2247 17.0379 14.2016C17.0379 14.1784 17.0442 14.1595 17.0519 14.1595C17.0596 14.1595 17.0659 14.1406 17.0659 14.1174C17.0659 14.0943 17.0722 14.0754 17.0799 14.0754C17.0876 14.0754 17.0939 14.0565 17.0939 14.0333C17.0939 14.0102 17.1002 13.9913 17.108 13.9913C17.1157 13.9913 17.122 13.9786 17.122 13.9632C17.122 13.9478 17.1283 13.9352 17.136 13.9352C17.1437 13.9352 17.15 13.9163 17.15 13.8931C17.15 13.87 17.1563 13.8511 17.164 13.8511C17.1717 13.8511 17.178 13.8385 17.178 13.823C17.178 13.8076 17.1844 13.795 17.1921 13.795C17.1998 13.795 17.2061 13.7698 17.2061 13.7389C17.2061 13.7081 17.2124 13.6828 17.2201 13.6828C17.2278 13.6828 17.2341 13.6513 17.2341 13.6127C17.2341 13.5742 17.2404 13.5426 17.2481 13.5426C17.2559 13.5426 17.2622 13.5174 17.2622 13.4866C17.2622 13.4557 17.2685 13.4305 17.2762 13.4305C17.2839 13.4305 17.2902 13.4116 17.2902 13.3884C17.2902 13.3653 17.2965 13.3464 17.3042 13.3464C17.312 13.3464 17.3182 13.309 17.3182 13.2623C17.3182 13.2155 17.3245 13.1781 17.3323 13.1781C17.3403 13.1781 17.3463 13.1361 17.3463 13.08C17.3463 13.0239 17.3523 12.9819 17.3603 12.9819C17.3687 12.9819 17.3743 12.9258 17.3743 12.8417C17.3743 12.7576 17.3799 12.7015 17.3883 12.7015C17.3976 12.7015 17.4024 11.3089 17.4024 8.55178C17.4024 5.79465 17.3976 4.40207 17.3883 4.40207C17.3799 4.40207 17.3743 4.34599 17.3743 4.26188C17.3743 4.17776 17.3687 4.12168 17.3603 4.12168C17.3523 4.12168 17.3463 4.07963 17.3463 4.02355C17.3463 3.96747 17.3403 3.92541 17.3323 3.92541C17.3245 3.92541 17.3182 3.88803 17.3182 3.8413C17.3182 3.79457 17.312 3.75718 17.3042 3.75718C17.2965 3.75718 17.2902 3.73826 17.2902 3.71513C17.2902 3.69199 17.2839 3.67307 17.2762 3.67307C17.2685 3.67307 17.2622 3.64783 17.2622 3.61699C17.2622 3.58615 17.2559 3.56091 17.2481 3.56091C17.2404 3.56091 17.2341 3.52937 17.2341 3.49082C17.2341 3.45226 17.2278 3.42072 17.2201 3.42072C17.2124 3.42072 17.2061 3.39549 17.2061 3.36464C17.2061 3.3338 17.1998 3.30857 17.1921 3.30857C17.1844 3.30857 17.178 3.29595 17.178 3.28053C17.178 3.26511 17.1717 3.25249 17.164 3.25249C17.1563 3.25249 17.15 3.23356 17.15 3.21043C17.15 3.1873 17.1437 3.16837 17.136 3.16837C17.1283 3.16837 17.122 3.15576 17.122 3.14033C17.122 3.12491 17.1157 3.1123 17.108 3.1123C17.1002 3.1123 17.0939 3.09337 17.0939 3.07024C17.0939 3.04711 17.0876 3.02818 17.0799 3.02818C17.0722 3.02818 17.0659 3.00925 17.0659 2.98612C17.0659 2.96299 17.0596 2.94406 17.0519 2.94406C17.0442 2.94406 17.0379 2.92514 17.0379 2.90201C17.0379 2.87888 17.0315 2.85995 17.0238 2.85995C17.0161 2.85995 17.0098 2.84733 17.0098 2.83191C17.0098 2.81649 17.0035 2.80387 16.9958 2.80387C16.9881 2.80387 16.9818 2.79125 16.9818 2.77583C16.9818 2.76041 16.9755 2.7478 16.9678 2.7478C16.96 2.7478 16.9537 2.73518 16.9537 2.71976C16.9537 2.70434 16.9474 2.69172 16.9397 2.69172C16.932 2.69172 16.9257 2.6791 16.9257 2.66368C16.9257 2.64826 16.9194 2.63564 16.9117 2.63564C16.904 2.63564 16.8977 2.62302 16.8977 2.6076C16.8977 2.59218 16.8914 2.57956 16.8836 2.57956C16.8759 2.57956 16.8696 2.56695 16.8696 2.55153C16.8696 2.5361 16.8633 2.52349 16.8556 2.52349C16.8479 2.52349 16.8416 2.51087 16.8416 2.49545C16.8416 2.48003 16.8353 2.46741 16.8276 2.46741C16.8199 2.46741 16.8135 2.45618 16.8135 2.44247C16.8135 2.42874 16.8009 2.40843 16.7855 2.39731C16.7701 2.3862 16.7575 2.36588 16.7575 2.35216C16.7575 2.33845 16.7512 2.32722 16.7434 2.32722C16.7357 2.32722 16.7294 2.31599 16.7294 2.30228C16.7294 2.28855 16.7168 2.26824 16.7014 2.25712C16.686 2.246 16.6734 2.22569 16.6734 2.21196C16.6734 2.19825 16.667 2.18702 16.6593 2.18702C16.6516 2.18702 16.6453 2.17579 16.6453 2.16208C16.6453 2.14836 16.6327 2.12804 16.6173 2.11693C16.6019 2.10581 16.5892 2.08802 16.5892 2.07739C16.5892 2.06678 16.5703 2.0404 16.5472 2.01879C16.524 1.99719 16.5051 1.97195 16.5051 1.96272C16.5051 1.95348 16.4862 1.92824 16.4631 1.90664C16.4399 1.88503 16.421 1.8598 16.421 1.85056C16.421 1.84132 16.4021 1.81609 16.3789 1.79448C16.3558 1.77288 16.3369 1.74802 16.3369 1.73925C16.3369 1.73049 16.2801 1.66702 16.2107 1.59821C16.1413 1.52941 16.0845 1.4664 16.0845 1.45819C16.0845 1.43874 15.9636 1.31783 15.9442 1.31783C15.936 1.31783 15.873 1.26105 15.8042 1.19165C15.7354 1.12226 15.6719 1.06548 15.6631 1.06548C15.6543 1.06548 15.6295 1.04655 15.6079 1.02342C15.5863 1.00029 15.561 0.981365 15.5518 0.981365C15.5426 0.981365 15.5173 0.962439 15.4957 0.939307C15.4741 0.916175 15.4489 0.897249 15.4397 0.897249C15.4304 0.897249 15.4052 0.878323 15.3836 0.855192C15.362 0.83206 15.3356 0.813134 15.325 0.813134C15.3144 0.813134 15.2966 0.800516 15.2854 0.785095C15.2743 0.769674 15.254 0.757057 15.2403 0.757057C15.2266 0.757057 15.2153 0.750748 15.2153 0.743037C15.2153 0.735327 15.2041 0.729018 15.1904 0.729018C15.1767 0.729018 15.1564 0.716401 15.1453 0.700979C15.1341 0.685558 15.1138 0.672941 15.1001 0.672941C15.0864 0.672941 15.0752 0.666632 15.0752 0.658922C15.0752 0.651211 15.0639 0.644902 15.0502 0.644902C15.0365 0.644902 15.0162 0.632285 15.0051 0.616864C14.9939 0.601443 14.9736 0.588825 14.9599 0.588825C14.9462 0.588825 14.935 0.582517 14.935 0.574806C14.935 0.567095 14.9223 0.560787 14.9069 0.560787C14.8915 0.560787 14.8789 0.554478 14.8789 0.546767C14.8789 0.539057 14.8663 0.532748 14.8508 0.532748C14.8354 0.532748 14.8228 0.526439 14.8228 0.518729C14.8228 0.511018 14.8102 0.504709 14.7948 0.504709C14.7793 0.504709 14.7667 0.498401 14.7667 0.49069C14.7667 0.48298 14.7541 0.476671 14.7387 0.476671C14.7233 0.476671 14.7107 0.470362 14.7107 0.462652C14.7107 0.454941 14.698 0.448632 14.6826 0.448632C14.6672 0.448632 14.6546 0.442324 14.6546 0.434613C14.6546 0.426902 14.642 0.420594 14.6265 0.420594C14.6111 0.420594 14.5985 0.414285 14.5985 0.406575C14.5985 0.398864 14.5859 0.392555 14.5705 0.392555C14.555 0.392555 14.5424 0.386247 14.5424 0.378536C14.5424 0.370825 14.5235 0.364517 14.5004 0.364517C14.4772 0.364517 14.4583 0.358208 14.4583 0.350497C14.4583 0.342787 14.4394 0.336478 14.4162 0.336478C14.3931 0.336478 14.3742 0.330169 14.3742 0.322459C14.3742 0.314748 14.3553 0.30844 14.3321 0.30844C14.309 0.30844 14.2901 0.302131 14.2901 0.29442C14.2901 0.28671 14.2775 0.280401 14.262 0.280401C14.2466 0.280401 14.234 0.274092 14.234 0.266382C14.234 0.258671 14.2151 0.252362 14.1919 0.252362C14.1688 0.252362 14.1499 0.246054 14.1499 0.238343C14.1499 0.230632 14.1373 0.224324 14.1218 0.224324C14.1064 0.224324 14.0938 0.218015 14.0938 0.210305C14.0938 0.202594 14.0686 0.196285 14.0377 0.196285C14.0069 0.196285 13.9816 0.189977 13.9816 0.182266C13.9816 0.174555 13.9501 0.168247 13.9116 0.168247C13.873 0.168247 13.8415 0.161938 13.8415 0.154227C13.8415 0.146517 13.8162 0.140208 13.7854 0.140208C13.7545 0.140208 13.7293 0.133899 13.7293 0.126189C13.7293 0.118478 13.7104 0.11217 13.6872 0.11217C13.6641 0.11217 13.6452 0.105861 13.6452 0.0981502C13.6452 0.0903555 13.6078 0.084131 13.5611 0.084131C13.5143 0.084131 13.477 0.0779064 13.477 0.0701117C13.477 0.0621067 13.4349 0.0560924 13.3788 0.0560924C13.3227 0.0560924 13.2807 0.0500781 13.2807 0.0420731C13.2807 0.0336615 13.2246 0.0280538 13.1405 0.0280538C13.0564 0.0280538 13.0003 0.0224461 13.0003 0.0140345C13.0003 0.00472574 11.6077 1.52588e-05 8.85059 1.52588e-05C6.09346 1.52588e-05 4.70088 0.00472574 4.70088 0.0140345ZM12.8321 1.52812C12.8321 1.53661 12.8928 1.54214 12.9863 1.54214C13.0797 1.54214 13.1405 1.54766 13.1405 1.55616C13.1405 1.56416 13.1826 1.57018 13.2386 1.57018C13.2947 1.57018 13.3368 1.57619 13.3368 1.58419C13.3368 1.59191 13.362 1.59821 13.3928 1.59821C13.4237 1.59821 13.4489 1.60452 13.4489 1.61223C13.4489 1.61994 13.4742 1.62625 13.505 1.62625C13.5358 1.62625 13.5611 1.63256 13.5611 1.64027C13.5611 1.64798 13.58 1.65429 13.6031 1.65429C13.6263 1.65429 13.6452 1.6606 13.6452 1.66831C13.6452 1.67602 13.6641 1.68233 13.6872 1.68233C13.7104 1.68233 13.7293 1.68864 13.7293 1.69635C13.7293 1.70406 13.7482 1.71037 13.7714 1.71037C13.7945 1.71037 13.8134 1.71668 13.8134 1.72439C13.8134 1.7321 13.826 1.73841 13.8415 1.73841C13.8569 1.73841 13.8695 1.74472 13.8695 1.75243C13.8695 1.76014 13.8884 1.76645 13.9116 1.76645C13.9347 1.76645 13.9536 1.77275 13.9536 1.78046C13.9536 1.78817 13.9662 1.79448 13.9816 1.79448C13.9971 1.79448 14.0097 1.80079 14.0097 1.8085C14.0097 1.81621 14.0223 1.82252 14.0377 1.82252C14.0531 1.82252 14.0658 1.82883 14.0658 1.83654C14.0658 1.84425 14.0784 1.85056 14.0938 1.85056C14.1092 1.85056 14.1218 1.85687 14.1218 1.86458C14.1218 1.87229 14.1345 1.8786 14.1499 1.8786C14.1653 1.8786 14.1779 1.88491 14.1779 1.89262C14.1779 1.90033 14.1905 1.90664 14.206 1.90664C14.2214 1.90664 14.234 1.91295 14.234 1.92066C14.234 1.92837 14.2452 1.93468 14.2589 1.93468C14.2727 1.93468 14.293 1.94729 14.3041 1.96272C14.3152 1.97814 14.3341 1.99075 14.3462 1.99075C14.3582 1.99075 14.3771 2.00337 14.3882 2.01879C14.3993 2.03421 14.4196 2.04683 14.4334 2.04683C14.4471 2.04683 14.4583 2.05314 14.4583 2.06085C14.4583 2.06856 14.4684 2.07487 14.4807 2.07487C14.493 2.07487 14.5208 2.0938 14.5424 2.11693C14.564 2.14006 14.5893 2.15899 14.5985 2.15899C14.6077 2.15899 14.633 2.17791 14.6546 2.20104C14.6762 2.22417 14.7008 2.2431 14.7094 2.2431C14.7296 2.2431 15.1593 2.67272 15.1593 2.69299C15.1593 2.70153 15.1782 2.72619 15.2013 2.7478C15.2245 2.7694 15.2434 2.79463 15.2434 2.80387C15.2434 2.81311 15.2623 2.83835 15.2854 2.85995C15.3086 2.88155 15.3275 2.90933 15.3275 2.92165C15.3275 2.93399 15.3338 2.94406 15.3415 2.94406C15.3492 2.94406 15.3555 2.95529 15.3555 2.96901C15.3555 2.98273 15.3682 3.00304 15.3836 3.01416C15.399 3.02528 15.4116 3.0442 15.4116 3.05622C15.4116 3.06823 15.4242 3.08716 15.4397 3.09828C15.4551 3.10939 15.4677 3.12971 15.4677 3.14343C15.4677 3.15714 15.474 3.16837 15.4817 3.16837C15.4894 3.16837 15.4957 3.18099 15.4957 3.19641C15.4957 3.21183 15.502 3.22445 15.5098 3.22445C15.5175 3.22445 15.5238 3.23707 15.5238 3.25249C15.5238 3.26791 15.5301 3.28053 15.5378 3.28053C15.5455 3.28053 15.5518 3.29315 15.5518 3.30857C15.5518 3.32399 15.5581 3.3366 15.5658 3.3366C15.5735 3.3366 15.5798 3.34922 15.5798 3.36464C15.5798 3.38006 15.5862 3.39268 15.5939 3.39268C15.6016 3.39268 15.6079 3.4053 15.6079 3.42072C15.6079 3.43614 15.6142 3.44876 15.6219 3.44876C15.6296 3.44876 15.6359 3.46769 15.6359 3.49082C15.6359 3.51395 15.6422 3.53287 15.6499 3.53287C15.6577 3.53287 15.664 3.54549 15.664 3.56091C15.664 3.57633 15.6703 3.58895 15.678 3.58895C15.6857 3.58895 15.692 3.60788 15.692 3.63101C15.692 3.65414 15.6983 3.67307 15.706 3.67307C15.7137 3.67307 15.72 3.69199 15.72 3.71513C15.72 3.73826 15.7263 3.75718 15.7341 3.75718C15.7418 3.75718 15.7481 3.77611 15.7481 3.79924C15.7481 3.82237 15.7544 3.8413 15.7621 3.8413C15.7698 3.8413 15.7761 3.86653 15.7761 3.89738C15.7761 3.92822 15.7824 3.95345 15.7901 3.95345C15.7978 3.95345 15.8042 3.97869 15.8042 4.00953C15.8042 4.04037 15.8105 4.06561 15.8182 4.06561C15.8262 4.06561 15.8322 4.10767 15.8322 4.16374C15.8322 4.21982 15.8382 4.26188 15.8462 4.26188C15.8547 4.26188 15.8602 4.32262 15.8602 4.41609C15.8602 4.50956 15.8658 4.5703 15.8743 4.5703C15.8836 4.5703 15.8883 5.9068 15.8883 8.55178C15.8883 11.1968 15.8836 12.5333 15.8743 12.5333C15.8658 12.5333 15.8602 12.594 15.8602 12.6875C15.8602 12.7809 15.8547 12.8417 15.8462 12.8417C15.8382 12.8417 15.8322 12.8837 15.8322 12.9398C15.8322 12.9959 15.8262 13.0379 15.8182 13.0379C15.8105 13.0379 15.8042 13.0632 15.8042 13.094C15.8042 13.1249 15.7978 13.1501 15.7901 13.1501C15.7824 13.1501 15.7761 13.1753 15.7761 13.2062C15.7761 13.237 15.7698 13.2623 15.7621 13.2623C15.7544 13.2623 15.7481 13.2812 15.7481 13.3043C15.7481 13.3274 15.7418 13.3464 15.7341 13.3464C15.7263 13.3464 15.72 13.3653 15.72 13.3884C15.72 13.4116 15.7137 13.4305 15.706 13.4305C15.6983 13.4305 15.692 13.4494 15.692 13.4725C15.692 13.4957 15.6857 13.5146 15.678 13.5146C15.6703 13.5146 15.664 13.5272 15.664 13.5426C15.664 13.5581 15.6577 13.5707 15.6499 13.5707C15.6422 13.5707 15.6359 13.5896 15.6359 13.6127C15.6359 13.6359 15.6296 13.6548 15.6219 13.6548C15.6142 13.6548 15.6079 13.6674 15.6079 13.6828C15.6079 13.6983 15.6016 13.7109 15.5939 13.7109C15.5862 13.7109 15.5798 13.7235 15.5798 13.7389C15.5798 13.7543 15.5735 13.767 15.5658 13.767C15.5581 13.767 15.5518 13.7796 15.5518 13.795C15.5518 13.8104 15.5455 13.823 15.5378 13.823C15.5301 13.823 15.5238 13.8356 15.5238 13.8511C15.5238 13.8665 15.5175 13.8791 15.5098 13.8791C15.502 13.8791 15.4957 13.8917 15.4957 13.9071C15.4957 13.9226 15.4894 13.9352 15.4817 13.9352C15.474 13.9352 15.4677 13.9464 15.4677 13.9601C15.4677 13.9738 15.4551 13.9942 15.4397 14.0053C15.4242 14.0164 15.4116 14.0353 15.4116 14.0473C15.4116 14.0594 15.399 14.0783 15.3836 14.0894C15.3682 14.1005 15.3555 14.1208 15.3555 14.1346C15.3555 14.1483 15.3492 14.1595 15.3415 14.1595C15.3338 14.1595 15.3275 14.1696 15.3275 14.1819C15.3275 14.1942 15.3086 14.222 15.2854 14.2436C15.2623 14.2652 15.2434 14.2904 15.2434 14.2997C15.2434 14.3089 15.2245 14.3342 15.2013 14.3558C15.1782 14.3774 15.1593 14.402 15.1593 14.4106C15.1593 14.4191 15.0615 14.5238 14.9421 14.6433C14.8226 14.7627 14.7179 14.8605 14.7094 14.8605C14.7008 14.8605 14.6762 14.8794 14.6546 14.9025C14.633 14.9256 14.6077 14.9446 14.5985 14.9446C14.5893 14.9446 14.564 14.9635 14.5424 14.9866C14.5208 15.0098 14.493 15.0287 14.4807 15.0287C14.4684 15.0287 14.4583 15.035 14.4583 15.0427C14.4583 15.0504 14.4471 15.0567 14.4334 15.0567C14.4196 15.0567 14.3993 15.0693 14.3882 15.0848C14.3771 15.1002 14.3582 15.1128 14.3462 15.1128C14.3341 15.1128 14.3152 15.1254 14.3041 15.1408C14.293 15.1563 14.2727 15.1689 14.2589 15.1689C14.2452 15.1689 14.234 15.1752 14.234 15.1829C14.234 15.1906 14.2214 15.1969 14.206 15.1969C14.1905 15.1969 14.1779 15.2032 14.1779 15.2109C14.1779 15.2186 14.1653 15.225 14.1499 15.225C14.1345 15.225 14.1218 15.2313 14.1218 15.239C14.1218 15.2467 14.1092 15.253 14.0938 15.253C14.0784 15.253 14.0658 15.2593 14.0658 15.267C14.0658 15.2747 14.0531 15.281 14.0377 15.281C14.0223 15.281 14.0097 15.2873 14.0097 15.2951C14.0097 15.3028 13.9971 15.3091 13.9816 15.3091C13.9662 15.3091 13.9536 15.3154 13.9536 15.3231C13.9536 15.3308 13.9347 15.3371 13.9116 15.3371C13.8884 15.3371 13.8695 15.3434 13.8695 15.3511C13.8695 15.3588 13.8569 15.3652 13.8415 15.3652C13.826 15.3652 13.8134 15.3715 13.8134 15.3792C13.8134 15.3869 13.7945 15.3932 13.7714 15.3932C13.7482 15.3932 13.7293 15.3995 13.7293 15.4072C13.7293 15.4149 13.7104 15.4212 13.6872 15.4212C13.6641 15.4212 13.6452 15.4275 13.6452 15.4352C13.6452 15.443 13.6263 15.4493 13.6031 15.4493C13.58 15.4493 13.5611 15.4556 13.5611 15.4633C13.5611 15.471 13.5358 15.4773 13.505 15.4773C13.4742 15.4773 13.4489 15.4836 13.4489 15.4913C13.4489 15.499 13.4237 15.5053 13.3928 15.5053C13.362 15.5053 13.3368 15.5117 13.3368 15.5194C13.3368 15.5274 13.2947 15.5334 13.2386 15.5334C13.1826 15.5334 13.1405 15.5394 13.1405 15.5474C13.1405 15.5559 13.0797 15.5614 12.9863 15.5614C12.8928 15.5614 12.8321 15.5669 12.8321 15.5754C12.8321 15.5847 11.4956 15.5895 8.85059 15.5895C6.20562 15.5895 4.86911 15.5847 4.86911 15.5754C4.86911 15.5669 4.80837 15.5614 4.7149 15.5614C4.62144 15.5614 4.56069 15.5559 4.56069 15.5474C4.56069 15.5394 4.51863 15.5334 4.46256 15.5334C4.40648 15.5334 4.36442 15.5274 4.36442 15.5194C4.36442 15.5117 4.33919 15.5053 4.30834 15.5053C4.2775 15.5053 4.25227 15.499 4.25227 15.4913C4.25227 15.4836 4.22703 15.4773 4.19619 15.4773C4.16535 15.4773 4.14011 15.471 4.14011 15.4633C4.14011 15.4556 4.12119 15.4493 4.09805 15.4493C4.07492 15.4493 4.056 15.443 4.056 15.4352C4.056 15.4275 4.03707 15.4212 4.01394 15.4212C3.99081 15.4212 3.97188 15.4149 3.97188 15.4072C3.97188 15.3995 3.95295 15.3932 3.92982 15.3932C3.90669 15.3932 3.88776 15.3869 3.88776 15.3792C3.88776 15.3715 3.87515 15.3652 3.85973 15.3652C3.84431 15.3652 3.83169 15.3588 3.83169 15.3511C3.83169 15.3434 3.81276 15.3371 3.78963 15.3371C3.7665 15.3371 3.74757 15.3308 3.74757 15.3231C3.74757 15.3154 3.73495 15.3091 3.71953 15.3091C3.70411 15.3091 3.69149 15.3028 3.69149 15.2951C3.69149 15.2873 3.67888 15.281 3.66346 15.281C3.64804 15.281 3.63542 15.2747 3.63542 15.267C3.63542 15.2593 3.6228 15.253 3.60738 15.253C3.59196 15.253 3.57934 15.2467 3.57934 15.239C3.57934 15.2313 3.56672 15.225 3.5513 15.225C3.53588 15.225 3.52326 15.2186 3.52326 15.2109C3.52326 15.2032 3.51065 15.1969 3.49522 15.1969C3.4798 15.1969 3.46719 15.1906 3.46719 15.1829C3.46719 15.1752 3.45596 15.1689 3.44225 15.1689C3.42852 15.1689 3.40821 15.1563 3.39709 15.1408C3.38597 15.1254 3.36705 15.1128 3.35503 15.1128C3.34302 15.1128 3.32409 15.1002 3.31297 15.0848C3.30186 15.0693 3.28154 15.0567 3.26782 15.0567C3.25411 15.0567 3.24288 15.0504 3.24288 15.0427C3.24288 15.035 3.2328 15.0287 3.22046 15.0287C3.20814 15.0287 3.18037 15.0098 3.15876 14.9866C3.13716 14.9635 3.11192 14.9446 3.10269 14.9446C3.09345 14.9446 3.06821 14.9256 3.04661 14.9025C3.025 14.8794 3.00034 14.8605 2.99181 14.8605C2.97153 14.8605 2.54191 14.4308 2.54191 14.4106C2.54191 14.402 2.52299 14.3774 2.49986 14.3558C2.47672 14.3342 2.4578 14.3089 2.4578 14.2997C2.4578 14.2904 2.43887 14.2652 2.41574 14.2436C2.39261 14.222 2.37368 14.1942 2.37368 14.1819C2.37368 14.1696 2.36737 14.1595 2.35966 14.1595C2.35195 14.1595 2.34564 14.1483 2.34564 14.1346C2.34564 14.1208 2.33303 14.1005 2.31761 14.0894C2.30218 14.0783 2.28957 14.0594 2.28957 14.0473C2.28957 14.0353 2.27695 14.0164 2.26153 14.0053C2.24611 13.9942 2.23349 13.9738 2.23349 13.9601C2.23349 13.9464 2.22718 13.9352 2.21947 13.9352C2.21176 13.9352 2.20545 13.9226 2.20545 13.9071C2.20545 13.8917 2.19914 13.8791 2.19143 13.8791C2.18372 13.8791 2.17741 13.8665 2.17741 13.8511C2.17741 13.8356 2.1711 13.823 2.16339 13.823C2.15568 13.823 2.14937 13.8104 2.14937 13.795C2.14937 13.7796 2.14306 13.767 2.13535 13.767C2.12764 13.767 2.12134 13.7543 2.12134 13.7389C2.12134 13.7235 2.11503 13.7109 2.10732 13.7109C2.09961 13.7109 2.0933 13.6983 2.0933 13.6828C2.0933 13.6674 2.08699 13.6548 2.07928 13.6548C2.07157 13.6548 2.06526 13.6359 2.06526 13.6127C2.06526 13.5896 2.05895 13.5707 2.05124 13.5707C2.04353 13.5707 2.03722 13.5581 2.03722 13.5426C2.03722 13.5272 2.03091 13.5146 2.0232 13.5146C2.01549 13.5146 2.00918 13.4957 2.00918 13.4725C2.00918 13.4494 2.00287 13.4305 1.99516 13.4305C1.98745 13.4305 1.98114 13.4116 1.98114 13.3884C1.98114 13.3653 1.97483 13.3464 1.96712 13.3464C1.95941 13.3464 1.9531 13.3274 1.9531 13.3043C1.9531 13.2812 1.9468 13.2623 1.93908 13.2623C1.93137 13.2623 1.92507 13.237 1.92507 13.2062C1.92507 13.1753 1.91876 13.1501 1.91105 13.1501C1.90334 13.1501 1.89703 13.1249 1.89703 13.094C1.89703 13.0632 1.89072 13.0379 1.88301 13.0379C1.875 13.0379 1.86899 12.9959 1.86899 12.9398C1.86899 12.8837 1.86297 12.8417 1.85497 12.8417C1.84647 12.8417 1.84095 12.7809 1.84095 12.6875C1.84095 12.594 1.83543 12.5333 1.82693 12.5333C1.81762 12.5333 1.81291 11.1968 1.81291 8.55178C1.81291 5.9068 1.81762 4.5703 1.82693 4.5703C1.83543 4.5703 1.84095 4.50956 1.84095 4.41609C1.84095 4.32262 1.84647 4.26188 1.85497 4.26188C1.86297 4.26188 1.86899 4.21982 1.86899 4.16374C1.86899 4.10767 1.875 4.06561 1.88301 4.06561C1.89072 4.06561 1.89703 4.04037 1.89703 4.00953C1.89703 3.97869 1.90334 3.95345 1.91105 3.95345C1.91876 3.95345 1.92507 3.92822 1.92507 3.89738C1.92507 3.86653 1.93137 3.8413 1.93908 3.8413C1.9468 3.8413 1.9531 3.82237 1.9531 3.79924C1.9531 3.77611 1.95941 3.75718 1.96712 3.75718C1.97483 3.75718 1.98114 3.73826 1.98114 3.71513C1.98114 3.69199 1.98745 3.67307 1.99516 3.67307C2.00287 3.67307 2.00918 3.65414 2.00918 3.63101C2.00918 3.60788 2.01549 3.58895 2.0232 3.58895C2.03091 3.58895 2.03722 3.57633 2.03722 3.56091C2.03722 3.54549 2.04353 3.53287 2.05124 3.53287C2.05895 3.53287 2.06526 3.51395 2.06526 3.49082C2.06526 3.46769 2.07157 3.44876 2.07928 3.44876C2.08699 3.44876 2.0933 3.43614 2.0933 3.42072C2.0933 3.4053 2.09961 3.39268 2.10732 3.39268C2.11503 3.39268 2.12134 3.38006 2.12134 3.36464C2.12134 3.34922 2.12764 3.3366 2.13535 3.3366C2.14306 3.3366 2.14937 3.32399 2.14937 3.30857C2.14937 3.29315 2.15568 3.28053 2.16339 3.28053C2.1711 3.28053 2.17741 3.26791 2.17741 3.25249C2.17741 3.23707 2.18372 3.22445 2.19143 3.22445C2.19914 3.22445 2.20545 3.21183 2.20545 3.19641C2.20545 3.18099 2.21176 3.16837 2.21947 3.16837C2.22718 3.16837 2.23349 3.15714 2.23349 3.14343C2.23349 3.12971 2.24611 3.10939 2.26153 3.09828C2.27695 3.08716 2.28957 3.06823 2.28957 3.05622C2.28957 3.0442 2.30218 3.02528 2.31761 3.01416C2.33303 3.00304 2.34564 2.98273 2.34564 2.96901C2.34564 2.95529 2.35195 2.94406 2.35966 2.94406C2.36737 2.94406 2.37368 2.93399 2.37368 2.92165C2.37368 2.90933 2.39261 2.88155 2.41574 2.85995C2.43887 2.83835 2.4578 2.81311 2.4578 2.80387C2.4578 2.79463 2.47672 2.7694 2.49986 2.7478C2.52299 2.72619 2.54191 2.70153 2.54191 2.69299C2.54191 2.67272 2.97153 2.2431 2.99181 2.2431C3.00034 2.2431 3.025 2.22417 3.04661 2.20104C3.06821 2.17791 3.09345 2.15899 3.10269 2.15899C3.11192 2.15899 3.13716 2.14006 3.15876 2.11693C3.18037 2.0938 3.20814 2.07487 3.22046 2.07487C3.2328 2.07487 3.24288 2.06856 3.24288 2.06085C3.24288 2.05314 3.25411 2.04683 3.26782 2.04683C3.28154 2.04683 3.30186 2.03421 3.31297 2.01879C3.32409 2.00337 3.34302 1.99075 3.35503 1.99075C3.36705 1.99075 3.38597 1.97814 3.39709 1.96272C3.40821 1.94729 3.42852 1.93468 3.44225 1.93468C3.45596 1.93468 3.46719 1.92837 3.46719 1.92066C3.46719 1.91295 3.4798 1.90664 3.49522 1.90664C3.51065 1.90664 3.52326 1.90033 3.52326 1.89262C3.52326 1.88491 3.53588 1.8786 3.5513 1.8786C3.56672 1.8786 3.57934 1.87229 3.57934 1.86458C3.57934 1.85687 3.59196 1.85056 3.60738 1.85056C3.6228 1.85056 3.63542 1.84425 3.63542 1.83654C3.63542 1.82883 3.64804 1.82252 3.66346 1.82252C3.67888 1.82252 3.69149 1.81621 3.69149 1.8085C3.69149 1.80079 3.70411 1.79448 3.71953 1.79448C3.73495 1.79448 3.74757 1.78817 3.74757 1.78046C3.74757 1.77275 3.7665 1.76645 3.78963 1.76645C3.81276 1.76645 3.83169 1.76014 3.83169 1.75243C3.83169 1.74472 3.84431 1.73841 3.85973 1.73841C3.87515 1.73841 3.88776 1.7321 3.88776 1.72439C3.88776 1.71668 3.90669 1.71037 3.92982 1.71037C3.95295 1.71037 3.97188 1.70406 3.97188 1.69635C3.97188 1.68864 3.99081 1.68233 4.01394 1.68233C4.03707 1.68233 4.056 1.67602 4.056 1.66831C4.056 1.6606 4.07492 1.65429 4.09805 1.65429C4.12119 1.65429 4.14011 1.64798 4.14011 1.64027C4.14011 1.63256 4.16535 1.62625 4.19619 1.62625C4.22703 1.62625 4.25227 1.61994 4.25227 1.61223C4.25227 1.60452 4.2775 1.59821 4.30834 1.59821C4.33919 1.59821 4.36442 1.59191 4.36442 1.58419C4.36442 1.57619 4.40648 1.57018 4.46256 1.57018C4.51863 1.57018 4.56069 1.56416 4.56069 1.55616C4.56069 1.54766 4.62144 1.54214 4.7149 1.54214C4.80837 1.54214 4.86911 1.53661 4.86911 1.52812C4.86911 1.51881 6.20562 1.5141 8.85059 1.5141C11.4956 1.5141 12.8321 1.51881 12.8321 1.52812ZM13.2807 2.87397C13.2807 2.88168 13.2555 2.88799 13.2246 2.88799C13.1938 2.88799 13.1685 2.8943 13.1685 2.90201C13.1685 2.90972 13.1433 2.91603 13.1125 2.91603C13.0816 2.91603 13.0564 2.92234 13.0564 2.93005C13.0564 2.93776 13.0438 2.94406 13.0283 2.94406C13.0129 2.94406 13.0003 2.95037 13.0003 2.95808C13.0003 2.96579 12.9877 2.9721 12.9723 2.9721C12.9568 2.9721 12.9442 2.97841 12.9442 2.98612C12.9442 2.99383 12.9316 3.00014 12.9162 3.00014C12.9008 3.00014 12.8881 3.00645 12.8881 3.01416C12.8881 3.02187 12.8769 3.02818 12.8632 3.02818C12.8495 3.02818 12.8292 3.0408 12.818 3.05622C12.8069 3.07164 12.7897 3.08426 12.7797 3.08426C12.756 3.08426 12.5517 3.28857 12.5517 3.31225C12.5517 3.32225 12.5391 3.33951 12.5236 3.35062C12.5082 3.36174 12.4956 3.38206 12.4956 3.39578C12.4956 3.40949 12.4893 3.42072 12.4816 3.42072C12.4739 3.42072 12.4676 3.43334 12.4676 3.44876C12.4676 3.46418 12.4613 3.4768 12.4535 3.4768C12.4458 3.4768 12.4395 3.48942 12.4395 3.50484C12.4395 3.52026 12.4332 3.53287 12.4255 3.53287C12.4178 3.53287 12.4115 3.54549 12.4115 3.56091C12.4115 3.57633 12.4052 3.58895 12.3975 3.58895C12.3898 3.58895 12.3835 3.61419 12.3835 3.64503C12.3835 3.67587 12.3771 3.70111 12.3694 3.70111C12.3617 3.70111 12.3554 3.73265 12.3554 3.7712C12.3554 3.80976 12.3491 3.8413 12.3414 3.8413C12.3331 3.8413 12.3274 3.89271 12.3274 3.96747C12.3274 4.04224 12.3331 4.09365 12.3414 4.09365C12.3492 4.09365 12.3554 4.13104 12.3554 4.17776C12.3554 4.22449 12.3616 4.26188 12.3694 4.26188C12.3771 4.26188 12.3835 4.2808 12.3835 4.30394C12.3835 4.32707 12.3898 4.34599 12.3975 4.34599C12.4052 4.34599 12.4115 4.36353 12.4115 4.38495C12.4115 4.40783 12.4231 4.43225 12.4395 4.44413C12.4549 4.45525 12.4676 4.47556 12.4676 4.48928C12.4676 4.503 12.4739 4.51422 12.4816 4.51422C12.4893 4.51422 12.4956 4.52684 12.4956 4.54226C12.4956 4.55768 12.5019 4.5703 12.5096 4.5703C12.5173 4.5703 12.5236 4.57985 12.5236 4.59151C12.5236 4.61917 12.7832 4.87873 12.8109 4.87873C12.8225 4.87873 12.8321 4.88503 12.8321 4.89275C12.8321 4.90046 12.8433 4.90676 12.857 4.90676C12.8707 4.90676 12.891 4.91938 12.9022 4.9348C12.9133 4.95022 12.9336 4.96284 12.9473 4.96284C12.961 4.96284 12.9723 4.96915 12.9723 4.97686C12.9723 4.98457 12.9849 4.99088 13.0003 4.99088C13.0157 4.99088 13.0283 4.99719 13.0283 5.0049C13.0283 5.01261 13.0473 5.01892 13.0704 5.01892C13.0935 5.01892 13.1125 5.02523 13.1125 5.03294C13.1125 5.04065 13.1377 5.04696 13.1685 5.04696C13.1994 5.04696 13.2246 5.05327 13.2246 5.06098C13.2246 5.06974 13.3087 5.075 13.4489 5.075C13.5891 5.075 13.6732 5.06974 13.6732 5.06098C13.6732 5.05327 13.6922 5.04696 13.7153 5.04696C13.7384 5.04696 13.7573 5.04065 13.7573 5.03294C13.7573 5.02523 13.7812 5.01892 13.8103 5.01892C13.8472 5.01892 13.8694 5.01041 13.8835 4.99088C13.8946 4.97546 13.9149 4.96284 13.9287 4.96284C13.9424 4.96284 13.9536 4.95653 13.9536 4.94882C13.9536 4.94111 13.9662 4.9348 13.9816 4.9348C13.9971 4.9348 14.0097 4.92849 14.0097 4.92078C14.0097 4.91307 14.0198 4.90676 14.0321 4.90676C14.0444 4.90676 14.0722 4.88784 14.0938 4.86471C14.1154 4.84158 14.1402 4.82265 14.1489 4.82265C14.1694 4.82265 14.2901 4.70197 14.2901 4.68145C14.2901 4.67277 14.309 4.64798 14.3321 4.62638C14.3553 4.60478 14.3742 4.577 14.3742 4.56468C14.3742 4.55234 14.3805 4.54226 14.3882 4.54226C14.3959 4.54226 14.4022 4.52965 14.4022 4.51422C14.4022 4.4988 14.4085 4.48619 14.4162 4.48619C14.424 4.48619 14.4303 4.47357 14.4303 4.45815C14.4303 4.44273 14.4366 4.43011 14.4443 4.43011C14.452 4.43011 14.4583 4.41749 14.4583 4.40207C14.4583 4.38665 14.4646 4.37403 14.4723 4.37403C14.48 4.37403 14.4863 4.35511 14.4863 4.33197C14.4863 4.30884 14.4927 4.28992 14.5004 4.28992C14.5081 4.28992 14.5144 4.27099 14.5144 4.24786C14.5144 4.22473 14.5207 4.2058 14.5284 4.2058C14.5366 4.2058 14.5424 4.15945 14.5424 4.09481C14.5424 4.01974 14.5481 3.98118 14.5599 3.97565C14.574 3.96911 14.574 3.96583 14.5599 3.9593C14.5481 3.95376 14.5424 3.91521 14.5424 3.84014C14.5424 3.77549 14.5366 3.72914 14.5284 3.72914C14.5207 3.72914 14.5144 3.71022 14.5144 3.68709C14.5144 3.66396 14.5081 3.64503 14.5004 3.64503C14.4927 3.64503 14.4863 3.6261 14.4863 3.60297C14.4863 3.57984 14.48 3.56091 14.4723 3.56091C14.4646 3.56091 14.4583 3.5483 14.4583 3.53287C14.4583 3.51745 14.452 3.50484 14.4443 3.50484C14.4366 3.50484 14.4303 3.49222 14.4303 3.4768C14.4303 3.46138 14.424 3.44876 14.4162 3.44876C14.4085 3.44876 14.4022 3.43614 14.4022 3.42072C14.4022 3.4053 14.3959 3.39268 14.3882 3.39268C14.3805 3.39268 14.3742 3.38273 14.3742 3.37056C14.3742 3.35838 14.349 3.32418 14.3181 3.29455C14.2873 3.26491 14.262 3.23358 14.262 3.22491C14.262 3.20446 14.1979 3.14033 14.1775 3.14033C14.1688 3.14033 14.1375 3.1151 14.1078 3.08426C14.0782 3.05342 14.044 3.02818 14.0318 3.02818C14.0196 3.02818 14.0097 3.02187 14.0097 3.01416C14.0097 3.00645 13.9971 3.00014 13.9816 3.00014C13.9662 3.00014 13.9536 2.99383 13.9536 2.98612C13.9536 2.97841 13.941 2.9721 13.9256 2.9721C13.9102 2.9721 13.8975 2.96579 13.8975 2.95808C13.8975 2.95037 13.8786 2.94406 13.8555 2.94406C13.8323 2.94406 13.8134 2.93776 13.8134 2.93005C13.8134 2.92234 13.7945 2.91603 13.7714 2.91603C13.7482 2.91603 13.7293 2.90972 13.7293 2.90201C13.7293 2.8943 13.7041 2.88799 13.6732 2.88799C13.6424 2.88799 13.6171 2.88168 13.6171 2.87397C13.6171 2.8654 13.5517 2.85995 13.4489 2.85995C13.3461 2.85995 13.2807 2.8654 13.2807 2.87397ZM8.51413 4.16374C8.51413 4.17215 8.45805 4.17776 8.37394 4.17776C8.28982 4.17776 8.23374 4.18337 8.23374 4.19178C8.23374 4.19979 8.19169 4.2058 8.13561 4.2058C8.07953 4.2058 8.03747 4.21181 8.03747 4.21982C8.03747 4.22753 8.00593 4.23384 7.96738 4.23384C7.92882 4.23384 7.89728 4.24015 7.89728 4.24786C7.89728 4.25557 7.87835 4.26188 7.85522 4.26188C7.83209 4.26188 7.81316 4.26819 7.81316 4.2759C7.81316 4.28361 7.78793 4.28992 7.75709 4.28992C7.72624 4.28992 7.70101 4.29622 7.70101 4.30394C7.70101 4.31165 7.67578 4.31795 7.64493 4.31795C7.61409 4.31795 7.58886 4.32426 7.58886 4.33197C7.58886 4.33968 7.56993 4.34599 7.5468 4.34599C7.52367 4.34599 7.50474 4.3523 7.50474 4.36001C7.50474 4.36772 7.48581 4.37403 7.46268 4.37403C7.43955 4.37403 7.42062 4.38034 7.42062 4.38805C7.42062 4.39576 7.4017 4.40207 7.37857 4.40207C7.35543 4.40207 7.33651 4.40838 7.33651 4.41609C7.33651 4.4238 7.31758 4.43011 7.29445 4.43011C7.27132 4.43011 7.25239 4.43642 7.25239 4.44413C7.25239 4.45184 7.23978 4.45815 7.22435 4.45815C7.20893 4.45815 7.19632 4.46446 7.19632 4.47217C7.19632 4.47988 7.17739 4.48619 7.15426 4.48619C7.13113 4.48619 7.1122 4.49249 7.1122 4.50021C7.1122 4.50792 7.09958 4.51422 7.08416 4.51422C7.06874 4.51422 7.05612 4.52053 7.05612 4.52824C7.05612 4.53595 7.04351 4.54226 7.02808 4.54226C7.01266 4.54226 7.00005 4.54857 7.00005 4.55628C7.00005 4.56399 6.98743 4.5703 6.97201 4.5703C6.95659 4.5703 6.94397 4.57661 6.94397 4.58432C6.94397 4.59203 6.93135 4.59834 6.91593 4.59834C6.90051 4.59834 6.88789 4.60465 6.88789 4.61236C6.88789 4.62007 6.87527 4.62638 6.85985 4.62638C6.84443 4.62638 6.83181 4.63269 6.83181 4.6404C6.83181 4.64811 6.8192 4.65442 6.80378 4.65442C6.78835 4.65442 6.77574 4.66073 6.77574 4.66844C6.77574 4.67615 6.76312 4.68246 6.7477 4.68246C6.73228 4.68246 6.71966 4.68876 6.71966 4.69648C6.71966 4.70419 6.70843 4.71049 6.69472 4.71049C6.68099 4.71049 6.66068 4.72311 6.64956 4.73853C6.63845 4.75395 6.61813 4.76657 6.60441 4.76657C6.5907 4.76657 6.57947 4.77288 6.57947 4.78059C6.57947 4.7883 6.56824 4.79461 6.55453 4.79461C6.5408 4.79461 6.52049 4.80723 6.50937 4.82265C6.49825 4.83807 6.47794 4.85069 6.46422 4.85069C6.4505 4.85069 6.43927 4.857 6.43927 4.86471C6.43927 4.87242 6.42919 4.87873 6.41686 4.87873C6.40453 4.87873 6.37676 4.89765 6.35516 4.92078C6.33356 4.94392 6.30832 4.96284 6.29908 4.96284C6.28984 4.96284 6.26461 4.98177 6.243 5.0049C6.2214 5.02803 6.19617 5.04696 6.18693 5.04696C6.17769 5.04696 6.15245 5.06588 6.13085 5.08902C6.10925 5.11215 6.08439 5.13107 6.07561 5.13107C6.06685 5.13107 6.00339 5.18785 5.93458 5.25725C5.86577 5.32664 5.80273 5.38342 5.79446 5.38342C5.77491 5.38342 5.68223 5.4761 5.68223 5.49564C5.68223 5.50392 5.62546 5.56696 5.55606 5.63577C5.48666 5.70457 5.42989 5.76804 5.42989 5.7768C5.42989 5.78558 5.41096 5.81043 5.38783 5.83204C5.3647 5.85364 5.34577 5.87888 5.34577 5.88811C5.34577 5.89735 5.32684 5.92259 5.30371 5.94419C5.28058 5.9658 5.26165 5.99103 5.26165 6.00027C5.26165 6.00951 5.24273 6.03474 5.2196 6.05635C5.19647 6.07795 5.17754 6.10572 5.17754 6.11805C5.17754 6.13038 5.17123 6.14046 5.16352 6.14046C5.15581 6.14046 5.1495 6.15169 5.1495 6.1654C5.1495 6.17913 5.13688 6.19944 5.12146 6.21056C5.10604 6.22168 5.09342 6.24199 5.09342 6.25571C5.09342 6.26943 5.08711 6.28065 5.0794 6.28065C5.07169 6.28065 5.06538 6.29188 5.06538 6.30559C5.06538 6.31932 5.05277 6.33963 5.03735 6.35075C5.02193 6.36187 5.00931 6.38218 5.00931 6.39591C5.00931 6.40962 5.003 6.42085 4.99529 6.42085C4.98758 6.42085 4.98127 6.43346 4.98127 6.44889C4.98127 6.46431 4.97496 6.47692 4.96725 6.47692C4.95954 6.47692 4.95323 6.48954 4.95323 6.50496C4.95323 6.52038 4.94692 6.533 4.93921 6.533C4.9315 6.533 4.92519 6.54562 4.92519 6.56104C4.92519 6.57646 4.91888 6.58908 4.91117 6.58908C4.90346 6.58908 4.89715 6.6017 4.89715 6.61712C4.89715 6.63254 4.89084 6.64516 4.88313 6.64516C4.87542 6.64516 4.86911 6.65777 4.86911 6.67319C4.86911 6.68862 4.86281 6.70123 4.8551 6.70123C4.84738 6.70123 4.84108 6.71385 4.84108 6.72927C4.84108 6.74469 4.83477 6.75731 4.82706 6.75731C4.81935 6.75731 4.81304 6.76993 4.81304 6.78535C4.81304 6.80077 4.80673 6.81339 4.79902 6.81339C4.79131 6.81339 4.785 6.83231 4.785 6.85545C4.785 6.87858 4.77869 6.8975 4.77098 6.8975C4.76327 6.8975 4.75696 6.91012 4.75696 6.92554C4.75696 6.94096 4.75065 6.95358 4.74294 6.95358C4.73523 6.95358 4.72892 6.97251 4.72892 6.99564C4.72892 7.01877 4.72261 7.0377 4.7149 7.0377C4.70719 7.0377 4.70088 7.05662 4.70088 7.07975C4.70088 7.10289 4.69457 7.12181 4.68686 7.12181C4.67915 7.12181 4.67284 7.14074 4.67284 7.16387C4.67284 7.187 4.66654 7.20593 4.65883 7.20593C4.65111 7.20593 4.64481 7.22485 4.64481 7.24799C4.64481 7.27112 4.6385 7.29004 4.63079 7.29004C4.62308 7.29004 4.61677 7.31528 4.61677 7.34612C4.61677 7.37696 4.61046 7.4022 4.60275 7.4022C4.59504 7.4022 4.58873 7.42743 4.58873 7.45827C4.58873 7.48912 4.58242 7.51435 4.57471 7.51435C4.567 7.51435 4.56069 7.53328 4.56069 7.55641C4.56069 7.57954 4.55438 7.59847 4.54667 7.59847C4.53896 7.59847 4.53265 7.63001 4.53265 7.66856C4.53265 7.70712 4.52634 7.73866 4.51863 7.73866C4.51063 7.73866 4.50461 7.78072 4.50461 7.8368C4.50461 7.89287 4.4986 7.93493 4.49059 7.93493C4.48218 7.93493 4.47657 7.99101 4.47657 8.07512C4.47657 8.15924 4.47097 8.21532 4.46256 8.21532C4.4536 8.21532 4.44854 8.33682 4.44854 8.55178C4.44854 8.76674 4.4536 8.88824 4.46256 8.88824C4.47097 8.88824 4.47657 8.94432 4.47657 9.02843C4.47657 9.11255 4.48218 9.16863 4.49059 9.16863C4.4986 9.16863 4.50461 9.21069 4.50461 9.26676C4.50461 9.32284 4.51063 9.3649 4.51863 9.3649C4.52634 9.3649 4.53265 9.39644 4.53265 9.43499C4.53265 9.47355 4.53896 9.50509 4.54667 9.50509C4.55438 9.50509 4.56069 9.52402 4.56069 9.54715C4.56069 9.57028 4.567 9.58921 4.57471 9.58921C4.58242 9.58921 4.58873 9.61444 4.58873 9.64528C4.58873 9.67613 4.59504 9.70136 4.60275 9.70136C4.61046 9.70136 4.61677 9.72659 4.61677 9.75744C4.61677 9.78828 4.62308 9.81351 4.63079 9.81351C4.6385 9.81351 4.64481 9.83244 4.64481 9.85557C4.64481 9.8787 4.65111 9.89763 4.65883 9.89763C4.66654 9.89763 4.67284 9.91656 4.67284 9.93969C4.67284 9.96282 4.67915 9.98175 4.68686 9.98175C4.69457 9.98175 4.70088 10.0007 4.70088 10.0238C4.70088 10.0469 4.70719 10.0659 4.7149 10.0659C4.72261 10.0659 4.72892 10.0848 4.72892 10.1079C4.72892 10.1311 4.73523 10.15 4.74294 10.15C4.75065 10.15 4.75696 10.1626 4.75696 10.178C4.75696 10.1934 4.76327 10.2061 4.77098 10.2061C4.77869 10.2061 4.785 10.225 4.785 10.2481C4.785 10.2712 4.79131 10.2902 4.79902 10.2902C4.80673 10.2902 4.81304 10.3028 4.81304 10.3182C4.81304 10.3336 4.81935 10.3462 4.82706 10.3462C4.83477 10.3462 4.84108 10.3589 4.84108 10.3743C4.84108 10.3897 4.84738 10.4023 4.8551 10.4023C4.86281 10.4023 4.86911 10.4149 4.86911 10.4304C4.86911 10.4458 4.87542 10.4584 4.88313 10.4584C4.89084 10.4584 4.89715 10.471 4.89715 10.4864C4.89715 10.5019 4.90346 10.5145 4.91117 10.5145C4.91888 10.5145 4.92519 10.5271 4.92519 10.5425C4.92519 10.5579 4.9315 10.5706 4.93921 10.5706C4.94692 10.5706 4.95323 10.5832 4.95323 10.5986C4.95323 10.614 4.95954 10.6266 4.96725 10.6266C4.97496 10.6266 4.98127 10.6393 4.98127 10.6547C4.98127 10.6701 4.98758 10.6827 4.99529 10.6827C5.003 10.6827 5.00931 10.6939 5.00931 10.7077C5.00931 10.7214 5.02193 10.7417 5.03735 10.7528C5.05277 10.7639 5.06538 10.7842 5.06538 10.798C5.06538 10.8117 5.07169 10.8229 5.0794 10.8229C5.08711 10.8229 5.09342 10.8341 5.09342 10.8478C5.09342 10.8616 5.10604 10.8819 5.12146 10.893C5.13688 10.9041 5.1495 10.9244 5.1495 10.9382C5.1495 10.9519 5.15581 10.9631 5.16352 10.9631C5.17123 10.9631 5.17754 10.9732 5.17754 10.9855C5.17754 10.9978 5.19647 11.0256 5.2196 11.0472C5.24273 11.0688 5.26165 11.094 5.26165 11.1033C5.26165 11.1125 5.28058 11.1378 5.30371 11.1594C5.32684 11.181 5.34577 11.2062 5.34577 11.2154C5.34577 11.2247 5.3647 11.2499 5.38783 11.2715C5.41096 11.2931 5.42989 11.318 5.42989 11.3268C5.42989 11.3355 5.48666 11.399 5.55606 11.4678C5.62546 11.5366 5.68223 11.5996 5.68223 11.6079C5.68223 11.6275 5.77491 11.7201 5.79446 11.7201C5.80273 11.7201 5.86577 11.7769 5.93458 11.8463C6.00339 11.9157 6.06685 11.9725 6.07561 11.9725C6.08439 11.9725 6.10925 11.9914 6.13085 12.0145C6.15245 12.0377 6.17769 12.0566 6.18693 12.0566C6.19617 12.0566 6.2214 12.0755 6.243 12.0987C6.26461 12.1218 6.28984 12.1407 6.29908 12.1407C6.30832 12.1407 6.33356 12.1596 6.35516 12.1828C6.37676 12.2059 6.40453 12.2248 6.41686 12.2248C6.42919 12.2248 6.43927 12.2311 6.43927 12.2389C6.43927 12.2466 6.4505 12.2529 6.46422 12.2529C6.47794 12.2529 6.49825 12.2655 6.50937 12.2809C6.52049 12.2963 6.5408 12.3089 6.55453 12.3089C6.56824 12.3089 6.57947 12.3153 6.57947 12.323C6.57947 12.3307 6.5907 12.337 6.60441 12.337C6.61813 12.337 6.63845 12.3496 6.64956 12.365C6.66068 12.3804 6.68099 12.3931 6.69472 12.3931C6.70843 12.3931 6.71966 12.3994 6.71966 12.4071C6.71966 12.4148 6.73228 12.4211 6.7477 12.4211C6.76312 12.4211 6.77574 12.4274 6.77574 12.4351C6.77574 12.4428 6.78835 12.4491 6.80378 12.4491C6.8192 12.4491 6.83181 12.4554 6.83181 12.4632C6.83181 12.4709 6.84443 12.4772 6.85985 12.4772C6.87527 12.4772 6.88789 12.4835 6.88789 12.4912C6.88789 12.4989 6.90051 12.5052 6.91593 12.5052C6.93135 12.5052 6.94397 12.5115 6.94397 12.5192C6.94397 12.5269 6.95659 12.5333 6.97201 12.5333C6.98743 12.5333 7.00005 12.5396 7.00005 12.5473C7.00005 12.555 7.01266 12.5613 7.02808 12.5613C7.04351 12.5613 7.05612 12.5676 7.05612 12.5753C7.05612 12.583 7.06874 12.5893 7.08416 12.5893C7.09958 12.5893 7.1122 12.5956 7.1122 12.6034C7.1122 12.6111 7.13113 12.6174 7.15426 12.6174C7.17739 12.6174 7.19632 12.6237 7.19632 12.6314C7.19632 12.6391 7.20893 12.6454 7.22435 12.6454C7.23978 12.6454 7.25239 12.6517 7.25239 12.6594C7.25239 12.6671 7.27132 12.6734 7.29445 12.6734C7.31758 12.6734 7.33651 12.6798 7.33651 12.6875C7.33651 12.6952 7.35543 12.7015 7.37857 12.7015C7.4017 12.7015 7.42062 12.7078 7.42062 12.7155C7.42062 12.7232 7.43955 12.7295 7.46268 12.7295C7.48581 12.7295 7.50474 12.7358 7.50474 12.7435C7.50474 12.7513 7.52367 12.7576 7.5468 12.7576C7.56993 12.7576 7.58886 12.7639 7.58886 12.7716C7.58886 12.7793 7.61409 12.7856 7.64493 12.7856C7.67578 12.7856 7.70101 12.7919 7.70101 12.7996C7.70101 12.8073 7.72624 12.8136 7.75709 12.8136C7.78793 12.8136 7.81316 12.8199 7.81316 12.8277C7.81316 12.8354 7.83209 12.8417 7.85522 12.8417C7.87835 12.8417 7.89728 12.848 7.89728 12.8557C7.89728 12.8634 7.92882 12.8697 7.96738 12.8697C8.00593 12.8697 8.03747 12.876 8.03747 12.8837C8.03747 12.8917 8.07953 12.8978 8.13561 12.8978C8.19169 12.8978 8.23374 12.9038 8.23374 12.9118C8.23374 12.9202 8.28982 12.9258 8.37394 12.9258C8.45805 12.9258 8.51413 12.9314 8.51413 12.9398C8.51413 12.9488 8.63563 12.9538 8.85059 12.9538C9.06555 12.9538 9.18705 12.9488 9.18705 12.9398C9.18705 12.9314 9.24313 12.9258 9.32725 12.9258C9.41136 12.9258 9.46744 12.9202 9.46744 12.9118C9.46744 12.9038 9.5095 12.8978 9.56558 12.8978C9.62165 12.8978 9.66371 12.8917 9.66371 12.8837C9.66371 12.876 9.69525 12.8697 9.73381 12.8697C9.77236 12.8697 9.8039 12.8634 9.8039 12.8557C9.8039 12.848 9.82283 12.8417 9.84596 12.8417C9.86909 12.8417 9.88802 12.8354 9.88802 12.8277C9.88802 12.8199 9.91325 12.8136 9.9441 12.8136C9.97494 12.8136 10.0002 12.8073 10.0002 12.7996C10.0002 12.7919 10.0254 12.7856 10.0563 12.7856C10.0871 12.7856 10.1123 12.7793 10.1123 12.7716C10.1123 12.7639 10.1313 12.7576 10.1544 12.7576C10.1775 12.7576 10.1964 12.7513 10.1964 12.7435C10.1964 12.7358 10.2154 12.7295 10.2385 12.7295C10.2616 12.7295 10.2806 12.7232 10.2806 12.7155C10.2806 12.7078 10.2995 12.7015 10.3226 12.7015C10.3457 12.7015 10.3647 12.6952 10.3647 12.6875C10.3647 12.6798 10.3836 12.6734 10.4067 12.6734C10.4299 12.6734 10.4488 12.6671 10.4488 12.6594C10.4488 12.6517 10.4614 12.6454 10.4768 12.6454C10.4922 12.6454 10.5049 12.6391 10.5049 12.6314C10.5049 12.6237 10.5238 12.6174 10.5469 12.6174C10.5701 12.6174 10.589 12.6111 10.589 12.6034C10.589 12.5956 10.6016 12.5893 10.617 12.5893C10.6324 12.5893 10.6451 12.583 10.6451 12.5753C10.6451 12.5676 10.6577 12.5613 10.6731 12.5613C10.6885 12.5613 10.7011 12.555 10.7011 12.5473C10.7011 12.5396 10.7138 12.5333 10.7292 12.5333C10.7446 12.5333 10.7572 12.5269 10.7572 12.5192C10.7572 12.5115 10.7698 12.5052 10.7853 12.5052C10.8007 12.5052 10.8133 12.4989 10.8133 12.4912C10.8133 12.4835 10.8259 12.4772 10.8413 12.4772C10.8568 12.4772 10.8694 12.4709 10.8694 12.4632C10.8694 12.4554 10.882 12.4491 10.8974 12.4491C10.9128 12.4491 10.9254 12.4428 10.9254 12.4351C10.9254 12.4274 10.9381 12.4211 10.9535 12.4211C10.9689 12.4211 10.9815 12.4148 10.9815 12.4071C10.9815 12.3994 10.9928 12.3931 11.0065 12.3931C11.0202 12.3931 11.0405 12.3804 11.0516 12.365C11.0627 12.3496 11.083 12.337 11.0968 12.337C11.1105 12.337 11.1217 12.3307 11.1217 12.323C11.1217 12.3153 11.1329 12.3089 11.1467 12.3089C11.1604 12.3089 11.1807 12.2963 11.1918 12.2809C11.2029 12.2655 11.2232 12.2529 11.237 12.2529C11.2507 12.2529 11.2619 12.2466 11.2619 12.2389C11.2619 12.2311 11.272 12.2248 11.2843 12.2248C11.2966 12.2248 11.3244 12.2059 11.346 12.1828C11.3676 12.1596 11.3929 12.1407 11.4021 12.1407C11.4113 12.1407 11.4366 12.1218 11.4582 12.0987C11.4798 12.0755 11.505 12.0566 11.5143 12.0566C11.5235 12.0566 11.5487 12.0377 11.5703 12.0145C11.5919 11.9914 11.6168 11.9725 11.6256 11.9725C11.6343 11.9725 11.6978 11.9157 11.7666 11.8463C11.8354 11.7769 11.8985 11.7201 11.9067 11.7201C11.9263 11.7201 12.0189 11.6275 12.0189 11.6079C12.0189 11.5996 12.0757 11.5366 12.1451 11.4678C12.2145 11.399 12.2713 11.3355 12.2713 11.3268C12.2713 11.318 12.2902 11.2931 12.3134 11.2715C12.3365 11.2499 12.3554 11.2247 12.3554 11.2154C12.3554 11.2062 12.3743 11.181 12.3975 11.1594C12.4206 11.1378 12.4395 11.1125 12.4395 11.1033C12.4395 11.094 12.4585 11.0688 12.4816 11.0472C12.5047 11.0256 12.5236 10.9978 12.5236 10.9855C12.5236 10.9732 12.53 10.9631 12.5377 10.9631C12.5454 10.9631 12.5517 10.9519 12.5517 10.9382C12.5517 10.9244 12.5643 10.9041 12.5797 10.893C12.5951 10.8819 12.6078 10.8616 12.6078 10.8478C12.6078 10.8341 12.6141 10.8229 12.6218 10.8229C12.6295 10.8229 12.6358 10.8117 12.6358 10.798C12.6358 10.7842 12.6484 10.7639 12.6638 10.7528C12.6793 10.7417 12.6919 10.7214 12.6919 10.7077C12.6919 10.6939 12.6982 10.6827 12.7059 10.6827C12.7136 10.6827 12.7199 10.6701 12.7199 10.6547C12.7199 10.6393 12.7262 10.6266 12.7339 10.6266C12.7416 10.6266 12.748 10.614 12.748 10.5986C12.748 10.5832 12.7543 10.5706 12.762 10.5706C12.7697 10.5706 12.776 10.5579 12.776 10.5425C12.776 10.5271 12.7823 10.5145 12.79 10.5145C12.7977 10.5145 12.804 10.5019 12.804 10.4864C12.804 10.471 12.8103 10.4584 12.818 10.4584C12.8258 10.4584 12.8321 10.4458 12.8321 10.4304C12.8321 10.4149 12.8384 10.4023 12.8461 10.4023C12.8538 10.4023 12.8601 10.3897 12.8601 10.3743C12.8601 10.3589 12.8664 10.3462 12.8741 10.3462C12.8818 10.3462 12.8881 10.3336 12.8881 10.3182C12.8881 10.3028 12.8945 10.2902 12.9022 10.2902C12.9099 10.2902 12.9162 10.2712 12.9162 10.2481C12.9162 10.225 12.9225 10.2061 12.9302 10.2061C12.9379 10.2061 12.9442 10.1934 12.9442 10.178C12.9442 10.1626 12.9505 10.15 12.9582 10.15C12.966 10.15 12.9723 10.1311 12.9723 10.1079C12.9723 10.0848 12.9786 10.0659 12.9863 10.0659C12.994 10.0659 13.0003 10.0469 13.0003 10.0238C13.0003 10.0007 13.0066 9.98175 13.0143 9.98175C13.022 9.98175 13.0283 9.96282 13.0283 9.93969C13.0283 9.91656 13.0346 9.89763 13.0424 9.89763C13.0501 9.89763 13.0564 9.8787 13.0564 9.85557C13.0564 9.83244 13.0627 9.81351 13.0704 9.81351C13.0781 9.81351 13.0844 9.78828 13.0844 9.75744C13.0844 9.72659 13.0907 9.70136 13.0984 9.70136C13.1061 9.70136 13.1125 9.67613 13.1125 9.64528C13.1125 9.61444 13.1188 9.58921 13.1265 9.58921C13.1342 9.58921 13.1405 9.57028 13.1405 9.54715C13.1405 9.52402 13.1468 9.50509 13.1545 9.50509C13.1622 9.50509 13.1685 9.47355 13.1685 9.43499C13.1685 9.39644 13.1748 9.3649 13.1826 9.3649C13.1906 9.3649 13.1966 9.32284 13.1966 9.26676C13.1966 9.21069 13.2026 9.16863 13.2106 9.16863C13.219 9.16863 13.2246 9.11255 13.2246 9.02843C13.2246 8.94432 13.2302 8.88824 13.2386 8.88824C13.2476 8.88824 13.2526 8.76674 13.2526 8.55178C13.2526 8.33682 13.2476 8.21532 13.2386 8.21532C13.2302 8.21532 13.2246 8.15924 13.2246 8.07512C13.2246 7.99101 13.219 7.93493 13.2106 7.93493C13.2026 7.93493 13.1966 7.89287 13.1966 7.8368C13.1966 7.78072 13.1906 7.73866 13.1826 7.73866C13.1748 7.73866 13.1685 7.70712 13.1685 7.66856C13.1685 7.63001 13.1622 7.59847 13.1545 7.59847C13.1468 7.59847 13.1405 7.57954 13.1405 7.55641C13.1405 7.53328 13.1342 7.51435 13.1265 7.51435C13.1188 7.51435 13.1125 7.48912 13.1125 7.45827C13.1125 7.42743 13.1061 7.4022 13.0984 7.4022C13.0907 7.4022 13.0844 7.37696 13.0844 7.34612C13.0844 7.31528 13.0781 7.29004 13.0704 7.29004C13.0627 7.29004 13.0564 7.27112 13.0564 7.24799C13.0564 7.22485 13.0501 7.20593 13.0424 7.20593C13.0346 7.20593 13.0283 7.187 13.0283 7.16387C13.0283 7.14074 13.022 7.12181 13.0143 7.12181C13.0066 7.12181 13.0003 7.10289 13.0003 7.07975C13.0003 7.05662 12.994 7.0377 12.9863 7.0377C12.9786 7.0377 12.9723 7.01877 12.9723 6.99564C12.9723 6.97251 12.966 6.95358 12.9582 6.95358C12.9505 6.95358 12.9442 6.94096 12.9442 6.92554C12.9442 6.91012 12.9379 6.8975 12.9302 6.8975C12.9225 6.8975 12.9162 6.87858 12.9162 6.85545C12.9162 6.83231 12.9099 6.81339 12.9022 6.81339C12.8945 6.81339 12.8881 6.80077 12.8881 6.78535C12.8881 6.76993 12.8818 6.75731 12.8741 6.75731C12.8664 6.75731 12.8601 6.74469 12.8601 6.72927C12.8601 6.71385 12.8538 6.70123 12.8461 6.70123C12.8384 6.70123 12.8321 6.68862 12.8321 6.67319C12.8321 6.65777 12.8258 6.64516 12.818 6.64516C12.8103 6.64516 12.804 6.63254 12.804 6.61712C12.804 6.6017 12.7977 6.58908 12.79 6.58908C12.7823 6.58908 12.776 6.57646 12.776 6.56104C12.776 6.54562 12.7697 6.533 12.762 6.533C12.7543 6.533 12.748 6.52038 12.748 6.50496C12.748 6.48954 12.7416 6.47692 12.7339 6.47692C12.7262 6.47692 12.7199 6.46431 12.7199 6.44889C12.7199 6.43346 12.7136 6.42085 12.7059 6.42085C12.6982 6.42085 12.6919 6.40962 12.6919 6.39591C12.6919 6.38218 12.6793 6.36187 12.6638 6.35075C12.6484 6.33963 12.6358 6.31932 12.6358 6.30559C12.6358 6.29188 12.6295 6.28065 12.6218 6.28065C12.6141 6.28065 12.6078 6.26943 12.6078 6.25571C12.6078 6.24199 12.5951 6.22168 12.5797 6.21056C12.5643 6.19944 12.5517 6.17913 12.5517 6.1654C12.5517 6.15169 12.5454 6.14046 12.5377 6.14046C12.53 6.14046 12.5236 6.13038 12.5236 6.11805C12.5236 6.10572 12.5047 6.07795 12.4816 6.05635C12.4585 6.03474 12.4395 6.00951 12.4395 6.00027C12.4395 5.99103 12.4206 5.9658 12.3975 5.94419C12.3743 5.92259 12.3554 5.89735 12.3554 5.88811C12.3554 5.87888 12.3365 5.85364 12.3134 5.83204C12.2902 5.81043 12.2713 5.78558 12.2713 5.7768C12.2713 5.76804 12.2145 5.70457 12.1451 5.63577C12.0757 5.56696 12.0189 5.50392 12.0189 5.49564C12.0189 5.4761 11.9263 5.38342 11.9067 5.38342C11.8985 5.38342 11.8354 5.32664 11.7666 5.25725C11.6978 5.18785 11.6343 5.13107 11.6256 5.13107C11.6168 5.13107 11.5919 5.11215 11.5703 5.08902C11.5487 5.06588 11.5235 5.04696 11.5143 5.04696C11.505 5.04696 11.4798 5.02803 11.4582 5.0049C11.4366 4.98177 11.4113 4.96284 11.4021 4.96284C11.3929 4.96284 11.3676 4.94392 11.346 4.92078C11.3244 4.89765 11.2966 4.87873 11.2843 4.87873C11.272 4.87873 11.2619 4.87242 11.2619 4.86471C11.2619 4.857 11.2507 4.85069 11.237 4.85069C11.2232 4.85069 11.2029 4.83807 11.1918 4.82265C11.1807 4.80723 11.1604 4.79461 11.1467 4.79461C11.1329 4.79461 11.1217 4.7883 11.1217 4.78059C11.1217 4.77288 11.1105 4.76657 11.0968 4.76657C11.083 4.76657 11.0627 4.75395 11.0516 4.73853C11.0405 4.72311 11.0202 4.71049 11.0065 4.71049C10.9928 4.71049 10.9815 4.70419 10.9815 4.69648C10.9815 4.68876 10.9689 4.68246 10.9535 4.68246C10.9381 4.68246 10.9254 4.67615 10.9254 4.66844C10.9254 4.66073 10.9128 4.65442 10.8974 4.65442C10.882 4.65442 10.8694 4.64811 10.8694 4.6404C10.8694 4.63269 10.8568 4.62638 10.8413 4.62638C10.8259 4.62638 10.8133 4.62007 10.8133 4.61236C10.8133 4.60465 10.8007 4.59834 10.7853 4.59834C10.7698 4.59834 10.7572 4.59203 10.7572 4.58432C10.7572 4.57661 10.7446 4.5703 10.7292 4.5703C10.7138 4.5703 10.7011 4.56399 10.7011 4.55628C10.7011 4.54857 10.6885 4.54226 10.6731 4.54226C10.6577 4.54226 10.6451 4.53595 10.6451 4.52824C10.6451 4.52053 10.6324 4.51422 10.617 4.51422C10.6016 4.51422 10.589 4.50792 10.589 4.50021C10.589 4.49249 10.5701 4.48619 10.5469 4.48619C10.5238 4.48619 10.5049 4.47988 10.5049 4.47217C10.5049 4.46446 10.4922 4.45815 10.4768 4.45815C10.4614 4.45815 10.4488 4.45184 10.4488 4.44413C10.4488 4.43642 10.4299 4.43011 10.4067 4.43011C10.3836 4.43011 10.3647 4.4238 10.3647 4.41609C10.3647 4.40838 10.3457 4.40207 10.3226 4.40207C10.2995 4.40207 10.2806 4.39576 10.2806 4.38805C10.2806 4.38034 10.2616 4.37403 10.2385 4.37403C10.2154 4.37403 10.1964 4.36772 10.1964 4.36001C10.1964 4.3523 10.1775 4.34599 10.1544 4.34599C10.1313 4.34599 10.1123 4.33968 10.1123 4.33197C10.1123 4.32426 10.0871 4.31795 10.0563 4.31795C10.0254 4.31795 10.0002 4.31165 10.0002 4.30394C10.0002 4.29622 9.97494 4.28992 9.9441 4.28992C9.91325 4.28992 9.88802 4.28361 9.88802 4.2759C9.88802 4.26819 9.86909 4.26188 9.84596 4.26188C9.82283 4.26188 9.8039 4.25557 9.8039 4.24786C9.8039 4.24015 9.77236 4.23384 9.73381 4.23384C9.69525 4.23384 9.66371 4.22753 9.66371 4.21982C9.66371 4.21181 9.62165 4.2058 9.56558 4.2058C9.5095 4.2058 9.46744 4.19979 9.46744 4.19178C9.46744 4.18337 9.41136 4.17776 9.32725 4.17776C9.24313 4.17776 9.18705 4.17215 9.18705 4.16374C9.18705 4.15478 9.06555 4.14972 8.85059 4.14972C8.63563 4.14972 8.51413 4.15478 8.51413 4.16374ZM9.13098 5.67783C9.13098 5.68583 9.17304 5.69184 9.22911 5.69184C9.28519 5.69184 9.32725 5.69786 9.32725 5.70586C9.32725 5.71357 9.35879 5.71988 9.39734 5.71988C9.4359 5.71988 9.46744 5.72619 9.46744 5.7339C9.46744 5.74161 9.49267 5.74792 9.52352 5.74792C9.55436 5.74792 9.57959 5.75423 9.57959 5.76194C9.57959 5.76965 9.60483 5.77596 9.63567 5.77596C9.66651 5.77596 9.69175 5.78227 9.69175 5.78998C9.69175 5.79769 9.71067 5.804 9.73381 5.804C9.75694 5.804 9.77586 5.81031 9.77586 5.81802C9.77586 5.82573 9.79479 5.83204 9.81792 5.83204C9.84105 5.83204 9.85998 5.83835 9.85998 5.84606C9.85998 5.85377 9.8726 5.86008 9.88802 5.86008C9.90344 5.86008 9.91606 5.86638 9.91606 5.8741C9.91606 5.88181 9.93498 5.88811 9.95812 5.88811C9.98125 5.88811 10.0002 5.89442 10.0002 5.90213C10.0002 5.90984 10.0128 5.91615 10.0282 5.91615C10.0436 5.91615 10.0563 5.92246 10.0563 5.93017C10.0563 5.93788 10.0689 5.94419 10.0843 5.94419C10.0997 5.94419 10.1123 5.9505 10.1123 5.95821C10.1123 5.96592 10.1249 5.97223 10.1404 5.97223C10.1558 5.97223 10.1684 5.97854 10.1684 5.98625C10.1684 5.99396 10.181 6.00027 10.1964 6.00027C10.2119 6.00027 10.2245 6.00658 10.2245 6.01429C10.2245 6.022 10.2357 6.02831 10.2494 6.02831C10.2631 6.02831 10.2835 6.04092 10.2946 6.05635C10.3057 6.07177 10.326 6.08438 10.3397 6.08438C10.3534 6.08438 10.3647 6.09069 10.3647 6.0984C10.3647 6.10611 10.3773 6.11242 10.3927 6.11242C10.4081 6.11242 10.4208 6.11873 10.4208 6.12644C10.4208 6.13415 10.4307 6.14046 10.4429 6.14046C10.4551 6.14046 10.4892 6.1657 10.5189 6.19654C10.5485 6.22738 10.5802 6.25262 10.5893 6.25262C10.5983 6.25262 10.6235 6.27154 10.6451 6.29467C10.6667 6.31781 10.6913 6.33673 10.6999 6.33673C10.7202 6.33673 11.0656 6.68219 11.0656 6.70248C11.0656 6.71103 11.0846 6.73571 11.1077 6.75731C11.1308 6.77891 11.1498 6.80402 11.1498 6.81311C11.1498 6.82218 11.175 6.85385 11.2058 6.88348C11.2367 6.91312 11.2619 6.94731 11.2619 6.9595C11.2619 6.97167 11.2682 6.98162 11.2759 6.98162C11.2836 6.98162 11.2899 6.99424 11.2899 7.00966C11.2899 7.02508 11.2963 7.0377 11.304 7.0377C11.3117 7.0377 11.318 7.04893 11.318 7.06264C11.318 7.07636 11.3306 7.09668 11.346 7.10779C11.3614 7.11891 11.3741 7.13922 11.3741 7.15295C11.3741 7.16666 11.3804 7.17789 11.3881 7.17789C11.3958 7.17789 11.4021 7.19051 11.4021 7.20593C11.4021 7.22135 11.4084 7.23397 11.4161 7.23397C11.4238 7.23397 11.4301 7.24658 11.4301 7.262C11.4301 7.27743 11.4364 7.29004 11.4442 7.29004C11.4519 7.29004 11.4582 7.30266 11.4582 7.31808C11.4582 7.3335 11.4645 7.34612 11.4722 7.34612C11.4799 7.34612 11.4862 7.35874 11.4862 7.37416C11.4862 7.38958 11.4925 7.4022 11.5002 7.4022C11.5079 7.4022 11.5143 7.42112 11.5143 7.44426C11.5143 7.46739 11.5206 7.48631 11.5283 7.48631C11.536 7.48631 11.5423 7.49893 11.5423 7.51435C11.5423 7.52977 11.5486 7.54239 11.5563 7.54239C11.564 7.54239 11.5703 7.56132 11.5703 7.58445C11.5703 7.60758 11.5766 7.62651 11.5844 7.62651C11.5921 7.62651 11.5984 7.64543 11.5984 7.66856C11.5984 7.6917 11.6047 7.71062 11.6124 7.71062C11.6201 7.71062 11.6264 7.73586 11.6264 7.7667C11.6264 7.79754 11.6327 7.82278 11.6404 7.82278C11.6481 7.82278 11.6544 7.84801 11.6544 7.87885C11.6544 7.9097 11.6608 7.93493 11.6685 7.93493C11.6762 7.93493 11.6825 7.96647 11.6825 8.00503C11.6825 8.04358 11.6888 8.07512 11.6965 8.07512C11.7045 8.07512 11.7105 8.11718 11.7105 8.17326C11.7105 8.22934 11.7165 8.27139 11.7245 8.27139C11.7334 8.27139 11.7386 8.3742 11.7386 8.55178C11.7386 8.72936 11.7334 8.83216 11.7245 8.83216C11.7165 8.83216 11.7105 8.87422 11.7105 8.9303C11.7105 8.98638 11.7045 9.02843 11.6965 9.02843C11.6888 9.02843 11.6825 9.05998 11.6825 9.09853C11.6825 9.13708 11.6762 9.16863 11.6685 9.16863C11.6608 9.16863 11.6544 9.19386 11.6544 9.2247C11.6544 9.25555 11.6481 9.28078 11.6404 9.28078C11.6327 9.28078 11.6264 9.30602 11.6264 9.33686C11.6264 9.3677 11.6201 9.39294 11.6124 9.39294C11.6047 9.39294 11.5984 9.41186 11.5984 9.43499C11.5984 9.45813 11.5921 9.47705 11.5844 9.47705C11.5766 9.47705 11.5703 9.49598 11.5703 9.51911C11.5703 9.54224 11.564 9.56117 11.5563 9.56117C11.5486 9.56117 11.5423 9.57378 11.5423 9.58921C11.5423 9.60463 11.536 9.61724 11.5283 9.61724C11.5206 9.61724 11.5143 9.63617 11.5143 9.6593C11.5143 9.68243 11.5079 9.70136 11.5002 9.70136C11.4925 9.70136 11.4862 9.71398 11.4862 9.7294C11.4862 9.74482 11.4799 9.75744 11.4722 9.75744C11.4645 9.75744 11.4582 9.77005 11.4582 9.78548C11.4582 9.8009 11.4519 9.81351 11.4442 9.81351C11.4364 9.81351 11.4301 9.82613 11.4301 9.84155C11.4301 9.85697 11.4238 9.86959 11.4161 9.86959C11.4084 9.86959 11.4021 9.88221 11.4021 9.89763C11.4021 9.91305 11.3958 9.92567 11.3881 9.92567C11.3804 9.92567 11.3741 9.9369 11.3741 9.95061C11.3741 9.96433 11.3614 9.98465 11.346 9.99577C11.3306 10.0069 11.318 10.0272 11.318 10.0409C11.318 10.0546 11.3117 10.0659 11.304 10.0659C11.2963 10.0659 11.2899 10.0785 11.2899 10.0939C11.2899 10.1093 11.2836 10.1219 11.2759 10.1219C11.2682 10.1219 11.2619 10.1319 11.2619 10.1441C11.2619 10.1562 11.2367 10.1904 11.2058 10.2201C11.175 10.2497 11.1498 10.2814 11.1498 10.2905C11.1498 10.2995 11.1308 10.3246 11.1077 10.3462C11.0846 10.3679 11.0656 10.3925 11.0656 10.4011C11.0656 10.4214 10.7202 10.7668 10.6999 10.7668C10.6913 10.7668 10.6667 10.7858 10.6451 10.8089C10.6235 10.832 10.5983 10.8509 10.5893 10.8509C10.5802 10.8509 10.5485 10.8762 10.5189 10.907C10.4892 10.9379 10.4551 10.9631 10.4429 10.9631C10.4307 10.9631 10.4208 10.9694 10.4208 10.9771C10.4208 10.9848 10.4081 10.9911 10.3927 10.9911C10.3773 10.9911 10.3647 10.9974 10.3647 11.0052C10.3647 11.0129 10.3534 11.0192 10.3397 11.0192C10.326 11.0192 10.3057 11.0318 10.2946 11.0472C10.2835 11.0626 10.2631 11.0752 10.2494 11.0752C10.2357 11.0752 10.2245 11.0816 10.2245 11.0893C10.2245 11.097 10.2119 11.1033 10.1964 11.1033C10.181 11.1033 10.1684 11.1096 10.1684 11.1173C10.1684 11.125 10.1558 11.1313 10.1404 11.1313C10.1249 11.1313 10.1123 11.1376 10.1123 11.1453C10.1123 11.1531 10.0997 11.1594 10.0843 11.1594C10.0689 11.1594 10.0563 11.1657 10.0563 11.1734C10.0563 11.1811 10.0436 11.1874 10.0282 11.1874C10.0128 11.1874 10.0002 11.1937 10.0002 11.2014C10.0002 11.2091 9.98125 11.2154 9.95812 11.2154C9.93498 11.2154 9.91606 11.2218 9.91606 11.2295C9.91606 11.2372 9.90344 11.2435 9.88802 11.2435C9.8726 11.2435 9.85998 11.2498 9.85998 11.2575C9.85998 11.2652 9.84105 11.2715 9.81792 11.2715C9.79479 11.2715 9.77586 11.2778 9.77586 11.2855C9.77586 11.2932 9.75694 11.2996 9.73381 11.2996C9.71067 11.2996 9.69175 11.3059 9.69175 11.3136C9.69175 11.3213 9.66651 11.3276 9.63567 11.3276C9.60483 11.3276 9.57959 11.3339 9.57959 11.3416C9.57959 11.3493 9.55436 11.3556 9.52352 11.3556C9.49267 11.3556 9.46744 11.3619 9.46744 11.3697C9.46744 11.3774 9.4359 11.3837 9.39734 11.3837C9.35879 11.3837 9.32725 11.39 9.32725 11.3977C9.32725 11.4057 9.28519 11.4117 9.22911 11.4117C9.17304 11.4117 9.13098 11.4177 9.13098 11.4257C9.13098 11.4346 9.02817 11.4398 8.85059 11.4398C8.67301 11.4398 8.57021 11.4346 8.57021 11.4257C8.57021 11.4177 8.52815 11.4117 8.47207 11.4117C8.41599 11.4117 8.37394 11.4057 8.37394 11.3977C8.37394 11.39 8.34239 11.3837 8.30384 11.3837C8.26529 11.3837 8.23374 11.3774 8.23374 11.3697C8.23374 11.3619 8.20851 11.3556 8.17767 11.3556C8.14682 11.3556 8.12159 11.3493 8.12159 11.3416C8.12159 11.3339 8.09635 11.3276 8.06551 11.3276C8.03467 11.3276 8.00943 11.3213 8.00943 11.3136C8.00943 11.3059 7.99051 11.2996 7.96738 11.2996C7.94424 11.2996 7.92532 11.2932 7.92532 11.2855C7.92532 11.2778 7.90639 11.2715 7.88326 11.2715C7.86013 11.2715 7.8412 11.2652 7.8412 11.2575C7.8412 11.2498 7.82859 11.2435 7.81316 11.2435C7.79774 11.2435 7.78513 11.2372 7.78513 11.2295C7.78513 11.2218 7.7662 11.2154 7.74307 11.2154C7.71994 11.2154 7.70101 11.2091 7.70101 11.2014C7.70101 11.1937 7.68839 11.1874 7.67297 11.1874C7.65755 11.1874 7.64493 11.1811 7.64493 11.1734C7.64493 11.1657 7.63232 11.1594 7.61689 11.1594C7.60147 11.1594 7.58886 11.1531 7.58886 11.1453C7.58886 11.1376 7.57624 11.1313 7.56082 11.1313C7.5454 11.1313 7.53278 11.125 7.53278 11.1173C7.53278 11.1096 7.52016 11.1033 7.50474 11.1033C7.48932 11.1033 7.4767 11.097 7.4767 11.0893C7.4767 11.0816 7.46547 11.0752 7.45176 11.0752C7.43804 11.0752 7.41772 11.0626 7.40661 11.0472C7.39549 11.0318 7.37517 11.0192 7.36145 11.0192C7.34774 11.0192 7.33651 11.0129 7.33651 11.0052C7.33651 10.9974 7.32389 10.9911 7.30847 10.9911C7.29305 10.9911 7.28043 10.9848 7.28043 10.9771C7.28043 10.9694 7.27048 10.9631 7.25831 10.9631C7.24613 10.9631 7.21193 10.9379 7.1823 10.907C7.15266 10.8762 7.12099 10.8509 7.11192 10.8509C7.10284 10.8509 7.07773 10.832 7.05612 10.8089C7.03452 10.7858 7.00985 10.7668 7.00129 10.7668C6.98101 10.7668 6.63554 10.4214 6.63554 10.4011C6.63554 10.3925 6.61662 10.3679 6.59349 10.3462C6.57036 10.3246 6.55143 10.2995 6.55143 10.2905C6.55143 10.2814 6.52619 10.2497 6.49535 10.2201C6.46451 10.1904 6.43927 10.1562 6.43927 10.1441C6.43927 10.1319 6.43297 10.1219 6.42526 10.1219C6.41754 10.1219 6.41124 10.1093 6.41124 10.0939C6.41124 10.0785 6.40493 10.0659 6.39722 10.0659C6.38951 10.0659 6.3832 10.0546 6.3832 10.0409C6.3832 10.0272 6.37058 10.0069 6.35516 9.99577C6.33974 9.98465 6.32712 9.96433 6.32712 9.95061C6.32712 9.9369 6.32081 9.92567 6.3131 9.92567C6.30539 9.92567 6.29908 9.91305 6.29908 9.89763C6.29908 9.88221 6.29277 9.86959 6.28506 9.86959C6.27735 9.86959 6.27104 9.85697 6.27104 9.84155C6.27104 9.82613 6.26473 9.81351 6.25702 9.81351C6.24931 9.81351 6.243 9.8009 6.243 9.78548C6.243 9.77005 6.2367 9.75744 6.22899 9.75744C6.22127 9.75744 6.21497 9.74482 6.21497 9.7294C6.21497 9.71398 6.20866 9.70136 6.20095 9.70136C6.19324 9.70136 6.18693 9.68243 6.18693 9.6593C6.18693 9.63617 6.18062 9.61724 6.17291 9.61724C6.1652 9.61724 6.15889 9.60463 6.15889 9.58921C6.15889 9.57378 6.15258 9.56117 6.14487 9.56117C6.13716 9.56117 6.13085 9.54224 6.13085 9.51911C6.13085 9.49598 6.12454 9.47705 6.11683 9.47705C6.10912 9.47705 6.10281 9.45813 6.10281 9.43499C6.10281 9.41186 6.0965 9.39294 6.08879 9.39294C6.08108 9.39294 6.07477 9.3677 6.07477 9.33686C6.07477 9.30602 6.06846 9.28078 6.06075 9.28078C6.05304 9.28078 6.04673 9.25555 6.04673 9.2247C6.04673 9.19386 6.04043 9.16863 6.03272 9.16863C6.025 9.16863 6.0187 9.13708 6.0187 9.09853C6.0187 9.05998 6.01239 9.02843 6.00468 9.02843C5.99667 9.02843 5.99066 8.98638 5.99066 8.9303C5.99066 8.87422 5.98464 8.83216 5.97664 8.83216C5.96776 8.83216 5.96262 8.72936 5.96262 8.55178C5.96262 8.3742 5.96776 8.27139 5.97664 8.27139C5.98464 8.27139 5.99066 8.22934 5.99066 8.17326C5.99066 8.11718 5.99667 8.07512 6.00468 8.07512C6.01239 8.07512 6.0187 8.04358 6.0187 8.00503C6.0187 7.96647 6.025 7.93493 6.03272 7.93493C6.04043 7.93493 6.04673 7.9097 6.04673 7.87885C6.04673 7.84801 6.05304 7.82278 6.06075 7.82278C6.06846 7.82278 6.07477 7.79754 6.07477 7.7667C6.07477 7.73586 6.08108 7.71062 6.08879 7.71062C6.0965 7.71062 6.10281 7.6917 6.10281 7.66856C6.10281 7.64543 6.10912 7.62651 6.11683 7.62651C6.12454 7.62651 6.13085 7.60758 6.13085 7.58445C6.13085 7.56132 6.13716 7.54239 6.14487 7.54239C6.15258 7.54239 6.15889 7.52977 6.15889 7.51435C6.15889 7.49893 6.1652 7.48631 6.17291 7.48631C6.18062 7.48631 6.18693 7.46739 6.18693 7.44426C6.18693 7.42112 6.19324 7.4022 6.20095 7.4022C6.20866 7.4022 6.21497 7.38958 6.21497 7.37416C6.21497 7.35874 6.22127 7.34612 6.22899 7.34612C6.2367 7.34612 6.243 7.3335 6.243 7.31808C6.243 7.30266 6.24931 7.29004 6.25702 7.29004C6.26473 7.29004 6.27104 7.27743 6.27104 7.262C6.27104 7.24658 6.27735 7.23397 6.28506 7.23397C6.29277 7.23397 6.29908 7.22135 6.29908 7.20593C6.29908 7.19051 6.30539 7.17789 6.3131 7.17789C6.32081 7.17789 6.32712 7.16666 6.32712 7.15295C6.32712 7.13922 6.33974 7.11891 6.35516 7.10779C6.37058 7.09668 6.3832 7.07636 6.3832 7.06264C6.3832 7.04893 6.38951 7.0377 6.39722 7.0377C6.40493 7.0377 6.41124 7.02508 6.41124 7.00966C6.41124 6.99424 6.41754 6.98162 6.42526 6.98162C6.43297 6.98162 6.43927 6.97167 6.43927 6.9595C6.43927 6.94731 6.46451 6.91312 6.49535 6.88348C6.52619 6.85385 6.55143 6.82218 6.55143 6.81311C6.55143 6.80402 6.57036 6.77891 6.59349 6.75731C6.61662 6.73571 6.63554 6.71103 6.63554 6.70248C6.63554 6.68219 6.98101 6.33673 7.00129 6.33673C7.00985 6.33673 7.03452 6.31781 7.05612 6.29467C7.07773 6.27154 7.10284 6.25262 7.11192 6.25262C7.12099 6.25262 7.15266 6.22738 7.1823 6.19654C7.21193 6.1657 7.24613 6.14046 7.25831 6.14046C7.27048 6.14046 7.28043 6.13415 7.28043 6.12644C7.28043 6.11873 7.29305 6.11242 7.30847 6.11242C7.32389 6.11242 7.33651 6.10611 7.33651 6.0984C7.33651 6.09069 7.34774 6.08438 7.36145 6.08438C7.37517 6.08438 7.39549 6.07177 7.40661 6.05635C7.41772 6.04092 7.43804 6.02831 7.45176 6.02831C7.46547 6.02831 7.4767 6.022 7.4767 6.01429C7.4767 6.00658 7.48932 6.00027 7.50474 6.00027C7.52016 6.00027 7.53278 5.99396 7.53278 5.98625C7.53278 5.97854 7.5454 5.97223 7.56082 5.97223C7.57624 5.97223 7.58886 5.96592 7.58886 5.95821C7.58886 5.9505 7.60147 5.94419 7.61689 5.94419C7.63232 5.94419 7.64493 5.93788 7.64493 5.93017C7.64493 5.92246 7.65755 5.91615 7.67297 5.91615C7.68839 5.91615 7.70101 5.90984 7.70101 5.90213C7.70101 5.89442 7.71994 5.88811 7.74307 5.88811C7.7662 5.88811 7.78513 5.88181 7.78513 5.8741C7.78513 5.86638 7.79774 5.86008 7.81316 5.86008C7.82859 5.86008 7.8412 5.85377 7.8412 5.84606C7.8412 5.83835 7.86013 5.83204 7.88326 5.83204C7.90639 5.83204 7.92532 5.82573 7.92532 5.81802C7.92532 5.81031 7.94424 5.804 7.96738 5.804C7.99051 5.804 8.00943 5.79769 8.00943 5.78998C8.00943 5.78227 8.03467 5.77596 8.06551 5.77596C8.09635 5.77596 8.12159 5.76965 8.12159 5.76194C8.12159 5.75423 8.14682 5.74792 8.17767 5.74792C8.20851 5.74792 8.23374 5.74161 8.23374 5.7339C8.23374 5.72619 8.26529 5.71988 8.30384 5.71988C8.34239 5.71988 8.37394 5.71357 8.37394 5.70586C8.37394 5.69786 8.41599 5.69184 8.47207 5.69184C8.52815 5.69184 8.57021 5.68583 8.57021 5.67783C8.57021 5.66895 8.67301 5.66381 8.85059 5.66381C9.02817 5.66381 9.13098 5.66895 9.13098 5.67783Z" fill="#43A45E"/>
</svg>
