<svg width="109" height="85" viewBox="0 0 109 85" fill="none" xmlns="http://www.w3.org/2000/svg">
<path d="M39.7113 84.3915H40.1028V84V45.6398V45.2483H39.7113H21.3783C21.6118 37.9364 23.3388 32.1031 26.5258 27.7157C29.8595 23.2529 35.3338 19.7404 43.0027 17.2073L43.425 17.0678L43.233 16.6665L35.6561 0.831019L35.5044 0.513927L35.1728 0.63074C26.8644 3.55806 20.0172 7.58877 14.6434 12.7303C9.2731 17.8683 5.56135 23.7032 3.51935 30.2335L3.51933 30.2335L3.5183 30.2369C1.57353 36.6607 0.608491 45.4413 0.608491 56.5609V84V84.3915H1H39.7113ZM104.322 84.3915H104.714V84V45.6398V45.2483H104.322H85.989C86.2225 37.9363 87.9496 32.1028 91.1367 27.7154C94.4704 23.2527 99.9447 19.7403 107.613 17.2073L108.036 17.0678L107.844 16.6665L100.267 0.831019L100.115 0.512803L99.7822 0.6312C91.5658 3.55862 84.7205 7.58882 79.2565 12.728L79.2541 12.7303C73.8848 17.8674 70.1729 23.656 68.1305 30.0954L68.129 30.1004C66.1842 36.5244 65.2192 45.3507 65.2192 56.5609V84V84.3915H65.6107H104.322Z" stroke="#377B36" stroke-width="0.783019"/>
</svg>
