<svg width="20" height="17" viewBox="0 0 20 17" fill="none" xmlns="http://www.w3.org/2000/svg">
<path fill-rule="evenodd" clip-rule="evenodd" d="M4.54105 5.42578H0.411621V16.6774H4.54105V5.42578Z" fill="#5A5A5A"/>
<path fill-rule="evenodd" clip-rule="evenodd" d="M4.81112 1.94349C4.78432 0.840276 3.91438 0 2.50172 0C1.08907 0 0.165527 0.840276 0.165527 1.94349C0.165527 3.02386 1.06177 3.88833 2.44812 3.88833H2.47451C3.91438 3.88833 4.81112 3.02386 4.81112 1.94349Z" fill="#5A5A5A"/>
<path fill-rule="evenodd" clip-rule="evenodd" d="M19.4328 10.2247C19.4328 6.76864 17.3956 5.16016 14.6782 5.16016C12.4858 5.16016 11.5042 6.25225 10.9561 7.01837V5.42467H6.82617C6.8806 6.48046 6.82617 16.6763 6.82617 16.6763H10.9561V10.3925C10.9561 10.0562 10.9829 9.72074 11.0921 9.47998C11.3905 8.80817 12.0701 8.11262 13.2109 8.11262C14.7058 8.11262 15.3033 9.14437 15.3033 10.6564V16.676H19.4326L19.4328 10.2247Z" fill="#5A5A5A"/>
</svg>
