<svg width="18" height="17" viewBox="0 0 18 17" fill="none" xmlns="http://www.w3.org/2000/svg">
<path d="M17.1035 2.22347C16.4621 2.56554 15.8208 2.82209 15.1081 2.90761C15.8208 2.3945 16.3909 1.53933 16.6759 0.598632C15.9633 1.11174 15.2506 1.45381 14.4667 1.62484C13.8254 0.769667 12.8989 0.256561 11.9012 0.256561C9.97706 0.256561 8.40923 2.13795 8.40923 4.44693C8.40923 4.789 8.40923 5.13107 8.4805 5.38762C5.48738 5.21658 2.92185 3.50623 1.2115 0.940702C0.855176 1.62484 0.712647 2.30898 0.712647 3.07864C0.712647 4.53244 1.35403 5.81521 2.28047 6.58487C1.71035 6.58487 1.14024 6.41383 0.712647 6.07176V6.15728C0.712647 8.2097 1.92415 9.92005 3.49197 10.2621C3.20691 10.3476 2.92185 10.4332 2.56553 10.4332C2.35173 10.4332 2.13794 10.4332 1.92415 10.3476C2.35174 12.058 3.6345 13.2552 5.20232 13.2552C3.99082 14.367 2.49426 15.0511 0.855176 15.0511C0.570118 15.0511 0.285059 15.0511 0 14.9656C1.56782 16.1628 3.42071 16.847 5.34485 16.847C11.8299 16.847 15.3219 10.4332 15.3219 4.87451V4.36141C16.0346 3.76278 16.6047 2.99313 17.1035 2.22347Z" fill="#43A45E"/>
</svg>
