<svg width="135" height="30" viewBox="0 0 135 30" fill="none" xmlns="http://www.w3.org/2000/svg">
<path d="M16.0813 17.9561C16.6015 17.7926 17.3952 17.3467 17.8269 16.9969C20.0768 14.8569 19.3802 11.3761 17.5216 9.27458C15.4387 6.7936 11.5304 6.19244 8.50122 7.11315C3.73157 8.44076 0.528203 13.3863 0.549876 18.1225C0.791562 25.3703 8.33553 30.5955 15.4352 29.9454C19.8727 29.6101 23.8828 27.4984 26.5604 24.3373C34.7305 14.692 27.4699 2.23488e-05 13.9958 0C10.1825 -6.32478e-06 6.55886 1.24253 3.37739 4.11218C1.52821 5.78012 0.637929 7.48367 0.030455 9.14758C-0.20909 9.80371 1.02481 8.31563 1.62009 7.73974C4.05869 5.38063 5.96848 4.78019 8.14183 4.34744C11.9739 3.58443 16.2551 4.5533 18.9404 6.76146C19.625 7.32072 20.596 8.36262 21.0421 9.07729C22.3485 10.9751 22.6126 13.2584 21.9804 15.4144C21.204 18.0071 19.1327 20.2627 16.3265 20.8215C14.3744 21.2102 12.1788 20.6911 10.7454 19.3664C9.45379 18.2519 8.81112 17.1506 9.08403 15.4518C9.23972 14.2863 10.2541 12.901 11.6955 13.2769C12.5313 13.4948 13.0394 14.3872 12.6063 15.1462C12.1105 15.9509 11.7575 16.8279 12.622 17.5147C13.5631 18.3614 14.8385 18.3127 16.0813 17.9561Z" fill="#43A45E"/>
<path d="M36.9016 9.63669C37.9519 9.63669 38.8033 8.78526 38.8033 7.735C38.8033 6.68474 37.9519 5.83331 36.9016 5.83331C35.8514 5.83331 35 6.68474 35 7.735C35 8.78526 35.8514 9.63669 36.9016 9.63669Z" fill="#1A1A1A"/>
<path d="M88.1311 11.5707V23.0054H91.7175V17.0901C91.7175 15.491 92.5869 14.606 94.3258 14.4352L96.3053 14.2256L96.0957 11.268L95.071 11.3379C93.2856 11.4776 92.1212 12.2151 91.5778 13.5503V11.5707H88.1311Z" fill="#1A1A1A"/>
<path d="M41.1849 23.0054V11.5707H44.6316V13.2242C44.9732 12.6343 45.4389 12.1762 46.0289 11.8502C46.6344 11.5086 47.3331 11.3379 48.1249 11.3379C48.9322 11.3379 49.6153 11.5164 50.1743 11.8735C50.7487 12.2306 51.1834 12.774 51.4784 13.5037C51.8355 12.8206 52.3478 12.2927 53.0155 11.9201C53.6986 11.5319 54.4516 11.3379 55.2744 11.3379C56.5786 11.3379 57.5489 11.7338 58.1855 12.5256C58.8221 13.3019 59.1403 14.5051 59.1403 16.1353V23.0054H55.6238V16.2517C55.6238 15.491 55.4996 14.9398 55.2511 14.5983C55.0183 14.2412 54.6146 14.0626 54.0401 14.0626C53.3725 14.0626 52.8524 14.2955 52.4798 14.7613C52.1072 15.227 51.9209 15.8869 51.9209 16.7408V23.0054H48.4043V16.2517C48.4043 15.491 48.2801 14.9398 48.0317 14.5983C47.7833 14.2412 47.3796 14.0626 46.8207 14.0626C46.1531 14.0626 45.633 14.2955 45.2604 14.7613C44.8878 15.227 44.7015 15.8869 44.7015 16.7408V23.0054H41.1849Z" fill="#1A1A1A"/>
<path d="M35.1397 23.0054V11.5707H38.6563V23.0054H35.1397Z" fill="#1A1A1A"/>
<path fill-rule="evenodd" clip-rule="evenodd" d="M61.6013 11.5707L61.6013 27.5H65.1178L65.1178 21.4684C65.4594 22.0118 65.9407 22.4465 66.5617 22.7725C67.1983 23.0986 67.8969 23.2616 68.6577 23.2616C69.6513 23.2616 70.5208 23.0209 71.266 22.5396C72.0268 22.0428 72.6167 21.3519 73.0359 20.467C73.4551 19.5665 73.6647 18.503 73.6647 17.2764C73.6647 16.0499 73.4551 14.9942 73.0359 14.1092C72.6167 13.2242 72.0268 12.5411 71.266 12.0598C70.5208 11.5785 69.6513 11.3379 68.6577 11.3379C67.8504 11.3379 67.1206 11.5164 66.4686 11.8735C65.832 12.2151 65.3585 12.6808 65.048 13.2708V11.5707H61.6013ZM69.4262 19.8149C68.9604 20.3583 68.3549 20.63 67.6097 20.63C66.849 20.63 66.2357 20.3583 65.7699 19.8149C65.3041 19.2715 65.0713 18.4253 65.0713 17.2764C65.0713 16.1431 65.3041 15.3124 65.7699 14.7846C66.2357 14.2412 66.849 13.9695 67.6097 13.9695C68.3549 13.9695 68.9604 14.2412 69.4262 14.7846C69.892 15.3124 70.1249 16.1431 70.1249 17.2764C70.1249 18.4253 69.892 19.2715 69.4262 19.8149Z" fill="#1A1A1A"/>
<path fill-rule="evenodd" clip-rule="evenodd" d="M81.5211 23.2616C80.1704 23.2616 79.006 23.0209 78.0279 22.5396C77.0653 22.0428 76.32 21.3519 75.7922 20.467C75.2798 19.5665 75.0236 18.5107 75.0236 17.2997C75.0236 16.1198 75.2721 15.0873 75.7689 14.2023C76.2812 13.3019 76.9721 12.6032 77.8416 12.1064C78.7265 11.594 79.7434 11.3379 80.8923 11.3379C82.5536 11.3379 83.8733 11.8657 84.8514 12.9215C85.8295 13.9617 86.3186 15.3745 86.3186 17.16V18.045H78.3772C78.5014 18.9454 78.8274 19.6053 79.3553 20.0245C79.8987 20.4281 80.6439 20.63 81.591 20.63C82.212 20.63 82.8408 20.5368 83.4774 20.3505C84.1139 20.1642 84.6884 19.877 85.2007 19.4888L86.1323 21.841C85.5578 22.2757 84.8514 22.625 84.013 22.889C83.1901 23.1374 82.3595 23.2616 81.5211 23.2616ZM81.0321 13.6667C80.2868 13.6667 79.6813 13.8918 79.2156 14.3421C78.7653 14.7923 78.4859 15.4211 78.3772 16.2285H83.4075C83.3144 14.5206 82.5225 13.6667 81.0321 13.6667Z" fill="#1A1A1A"/>
<path d="M97.4956 23.0054V11.5707H101.012V23.0054H97.4956Z" fill="#1A1A1A"/>
<path d="M104.472 22.0506C105.171 22.8579 106.25 23.2616 107.709 23.2616C109.2 23.2616 110.326 22.6561 111.086 21.4451V23.0054H114.51V11.5707H110.993V17.9518C110.993 18.7281 110.776 19.3569 110.341 19.8382C109.922 20.3039 109.378 20.5368 108.711 20.5368C107.546 20.5368 106.964 19.8615 106.964 18.5107V11.5707H103.448V18.4176C103.448 20.0322 103.789 21.2432 104.472 22.0506Z" fill="#1A1A1A"/>
<path d="M117.044 23.0054V11.5707H120.491V13.2242C120.833 12.6343 121.299 12.1762 121.888 11.8502C122.494 11.5086 123.193 11.3379 123.984 11.3379C124.792 11.3379 125.475 11.5164 126.034 11.8735C126.608 12.2306 127.043 12.774 127.338 13.5037C127.695 12.8206 128.207 12.2927 128.875 11.9201C129.558 11.5319 130.311 11.3379 131.134 11.3379C132.438 11.3379 133.409 11.7338 134.045 12.5256C134.682 13.3019 135 14.5051 135 16.1353V23.0054H131.483V16.2517C131.483 15.491 131.359 14.9398 131.111 14.5983C130.878 14.2412 130.474 14.0626 129.9 14.0626C129.232 14.0626 128.712 14.2955 128.339 14.7613C127.967 15.227 127.78 15.8869 127.78 16.7408V23.0054H124.264V16.2517C124.264 15.491 124.14 14.9398 123.891 14.5983C123.643 14.2412 123.239 14.0626 122.68 14.0626C122.013 14.0626 121.493 14.2955 121.12 14.7613C120.747 15.227 120.561 15.8869 120.561 16.7408V23.0054H117.044Z" fill="#1A1A1A"/>
<path d="M101.243 7.735C101.243 8.78526 100.392 9.63669 99.3414 9.63669C98.2911 9.63669 97.4397 8.78526 97.4397 7.735C97.4397 6.68474 98.2911 5.83331 99.3414 5.83331C100.392 5.83331 101.243 6.68474 101.243 7.735Z" fill="#1A1A1A"/>
</svg>
