<svg width="102" height="89" viewBox="0 0 102 89" fill="none" xmlns="http://www.w3.org/2000/svg">
<path d="M10.5747 29.7049C10.4971 29.5119 10.4385 29.3068 10.3369 29.1275C9.89908 28.3519 9.67502 27.5264 9.86633 26.6491C10.1214 25.4788 9.73879 24.5619 8.94251 23.7191C8.40649 23.152 7.88598 22.5384 7.51197 21.8594C7.28447 21.4457 7.32238 20.8718 7.29481 20.365C7.27585 20.0186 7.46889 19.7859 7.836 19.6894C7.93597 19.6636 8.04799 19.4688 8.05489 19.3464C8.09798 18.5984 8.49784 18.102 9.11142 17.7349C9.24069 17.6574 9.35099 17.5488 9.47164 17.454L9.48198 17.304C9.17002 17.211 8.86495 17.0765 8.5461 17.0334C7.86185 16.9404 7.82566 16.8749 7.63434 16.2268C7.50336 15.7839 7.22931 15.384 7.0087 14.9686C6.7381 14.4585 6.66055 13.9552 7.13797 13.5226C7.22759 13.4416 7.29136 13.2744 7.28619 13.152C7.22414 11.8215 7.95837 10.9735 9.00801 10.3444C9.41649 10.0996 9.89218 9.96347 10.3903 9.75492C10.1507 9.22062 9.91459 8.70529 9.68881 8.18478C9.59746 7.97623 9.53369 7.75562 9.44406 7.54534C9.21138 6.99381 9.35616 6.55086 9.79222 6.15962C9.90252 6.06137 9.99215 5.86662 9.98525 5.72184C9.88184 3.68289 11.0108 2.46779 12.7464 1.75597C14.1062 1.19927 15.5282 0.795957 16.9208 0.321984C17.0828 0.26683 17.2414 0.199612 17.4034 0.142735C17.8498 -0.014107 18.2807 -0.15199 18.6236 0.363348C18.7029 0.482273 18.9098 0.542597 19.0683 0.578791C20.3196 0.863175 21.5623 0.618433 22.786 0.425396C24.4768 0.158247 26.1262 0.215123 27.7619 0.699438C28.5823 0.942458 29.4113 1.16824 30.2162 1.4578C31.6571 1.97831 32.6429 3.01415 33.4116 4.31543C33.8959 5.13583 34.4164 5.95279 35.0317 6.67668C35.697 7.46089 36.3778 7.49881 37.2534 6.9783C37.3585 6.91625 37.4344 6.76975 37.4792 6.64566C37.6584 6.151 37.8928 5.8873 38.3875 5.9683C39.2131 6.10274 39.8887 5.68737 40.6315 5.52018C41.5916 5.30302 42.5533 5.09275 43.5167 4.88247C43.8235 4.81526 44.1355 4.77044 44.4406 4.69116C45.1283 4.51191 45.4747 4.76872 45.8659 5.37024C46.2227 5.91832 46.7501 6.37334 47.2568 6.80422C47.9118 7.36093 48.6391 7.83662 49.4905 8.03828C49.8559 8.12446 50.2541 8.15031 50.6264 8.10894C50.978 8.07102 51.1986 8.11411 51.3347 8.46916C51.4864 8.8673 51.788 9.08791 52.2189 9.19822C53.122 9.4309 53.9838 9.1672 54.8628 9.06895C55.08 9.04482 55.385 9.07929 55.5229 9.21545C55.9176 9.60325 56.4192 9.69805 56.9035 9.86523C57.3258 10.0117 57.7377 10.1893 58.1548 10.3547C58.1548 10.4047 58.1548 10.4564 58.1548 10.5064C58.4254 10.3271 58.7166 10.1737 58.9631 9.96519C59.7525 9.29474 60.4919 8.58119 60.89 7.58843C60.9417 7.45917 61.0951 7.3368 61.2296 7.2782C62.7118 6.63876 64.1958 6.0045 65.6884 5.39092C66.0279 5.25131 66.3537 5.26682 66.7449 5.45124C67.1017 5.62015 67.6101 5.53914 68.0358 5.47192C68.6994 5.37023 69.3475 5.18065 70.0059 5.04104C70.8176 4.86696 71.5708 5.06344 72.2844 5.4409C72.7342 5.67875 73.1823 5.80285 73.708 5.82008C74.2785 5.83904 74.8542 6.01484 75.4091 6.18892C76.1813 6.43021 76.9465 6.656 77.767 6.52501C77.8652 6.5095 77.9755 6.51811 78.0634 6.4802C79.2647 5.96658 80.2282 6.45951 81.1503 7.18168C81.6449 7.56947 82.1499 7.94693 82.6739 8.29336C83.1186 8.58809 83.3305 8.49674 83.3978 7.96416C83.4564 7.50398 83.6442 7.17995 84.001 6.88523C84.2199 6.70426 84.3612 6.40953 84.4939 6.14411C84.7404 5.6529 84.8473 5.57706 85.3936 5.69598C85.6659 5.75459 85.871 5.70288 86.0072 5.44435C86.395 4.70323 87.1482 4.48778 87.8359 4.18272C88.1289 4.05345 88.3185 4.24132 88.4891 4.45503C88.8286 4.87903 88.9355 4.90316 89.2733 4.48434C89.687 3.97417 90.0455 3.42091 90.4281 2.88661C90.4781 2.81595 90.5229 2.74356 90.5746 2.67462C91.1847 1.87489 91.2519 1.90592 92.062 2.47986C92.7928 2.99864 93.5942 3.42091 94.3733 3.86731C95.6108 4.57568 96.2847 5.7115 96.6518 7.02139C97.1465 8.78629 97.6894 10.5253 98.4357 12.2041C98.6442 12.6746 98.6166 13.2572 98.6632 13.7915C98.6838 14.0293 98.6304 14.2775 98.5873 14.5171C98.4132 15.4823 98.87 16.1079 99.6645 16.5595C100.187 16.8559 100.718 17.1386 101.219 17.4678C101.395 17.5832 101.564 17.797 101.614 17.9969C102.015 19.5705 102.105 21.1665 101.878 22.7763C101.824 23.1589 101.643 23.4329 101.262 23.6329C100.633 23.9638 100.044 24.3757 99.4474 24.767C98.9889 25.0669 98.5149 25.2427 97.9479 25.1617C97.7945 25.1392 97.5446 25.2633 97.4584 25.3978C96.8397 26.3681 95.9693 27.0782 95.1247 27.8366C93.982 28.8621 93.1047 30.1341 92.748 31.6404C92.5635 32.4126 92.6325 33.2709 92.7152 34.0775C92.8583 35.4615 92.7738 36.83 92.6118 38.1985C92.5067 39.0861 91.6346 40.0117 90.8245 39.9514C89.3836 39.8428 88.4581 40.6494 87.6067 41.6077C87.3085 41.9438 87.093 42.3609 86.8845 42.7659C86.5536 43.4105 86.7225 44.081 86.9569 44.6894C87.8324 46.9593 86.6932 48.3898 84.9955 49.2774C84.3009 49.6411 83.6046 50.0117 82.9634 50.4598C82.3016 50.9234 82.0017 51.6059 82.0741 52.4401C82.1172 52.94 82.1568 53.4484 82.1137 53.9448C82.0672 54.4825 81.9414 55.0151 81.8104 55.5408C81.7449 55.801 81.5553 55.9872 81.2433 55.9682C80.9003 55.9475 80.7676 56.1458 80.6315 56.4439C80.1627 57.4694 79.6111 58.4587 79.1544 59.4894C78.82 60.2443 78.6098 61.0527 78.3047 61.8231C77.9945 62.6073 77.5498 63.2295 76.5501 63.1881C76.333 63.1795 76.0175 63.3932 75.8986 63.5949C75.5384 64.2068 75.2351 64.8548 74.9438 65.5029C74.5474 66.3819 74.1854 67.2919 73.2616 67.7572C72.2689 68.2588 71.2261 68.5053 70.1954 67.8848C69.949 67.7366 69.8283 67.3729 69.656 67.1023C69.537 66.9162 69.475 66.6301 69.3113 66.5525C68.9459 66.3836 68.9235 66.1216 68.9786 65.8114C69.0579 65.3633 68.8855 65.1564 68.4357 65.0909C67.2878 64.922 66.1382 64.7566 65.0007 64.5308C64.2044 64.3722 63.4167 64.1499 62.648 63.8896C62.1879 63.7328 61.8104 63.8431 61.7777 64.3895C61.7708 64.5135 61.6846 64.6859 61.5829 64.7428C61.0228 65.0565 60.6832 65.5511 60.4764 66.1216C60.08 67.2212 59.3027 67.9382 58.334 68.5397C57.6377 68.9741 56.9914 69.5084 56.3847 70.0651C55.5833 70.7993 54.8111 71.5714 54.0889 72.3815C53.5788 72.9537 53.1617 73.6104 52.7239 74.2447C52.6567 74.3412 52.667 74.5359 52.7118 74.66C52.9773 75.3839 53.3289 76.0819 53.5271 76.8214C53.9924 78.5621 53.8252 80.1978 52.5326 81.5956C51.7277 82.4677 50.9555 83.3708 50.1627 84.2533C50.011 84.4222 49.837 84.5773 49.6543 84.7134C49.2734 84.9944 48.9907 84.9582 48.6787 84.6135C48.6201 84.5497 48.5684 84.479 48.5029 84.4239C47.9652 83.9654 47.8928 83.8465 47.5222 84.5669C47.4499 84.7066 47.362 84.8375 47.2965 84.9806C47.0104 85.5942 46.8346 85.6493 46.2261 85.4718C45.9745 85.3994 45.6298 85.5166 45.3661 85.6338C44.737 85.913 44.1407 86.0423 43.5616 85.5407C43.3461 85.3546 43.1669 85.4942 42.9842 85.6114C42.3206 86.0337 41.6795 86.4956 40.9866 86.8627C40.0473 87.3608 39.0752 87.5694 38.1221 86.842C38.0376 86.7783 37.836 86.7438 37.7722 86.7972C37.0224 87.4263 36.0745 87.447 35.1903 87.6435C33.1548 88.0985 31.0797 88.2553 29.0028 88.3536C27.7033 88.4139 26.4313 88.3019 25.2248 87.7383C24.1958 87.2574 23.4547 86.4904 22.8946 85.5287C22.6205 85.0599 22.3655 84.5807 22.119 84.0964C21.7829 83.4329 21.2934 82.9089 20.747 82.4108C20.3093 82.0109 19.8629 81.5749 19.5716 81.0664C19.2183 80.4511 19.4337 79.7893 19.8577 79.2619C20.1404 78.9086 20.118 78.6 19.9508 78.2415C18.6857 75.5304 16.8449 73.2709 14.5147 71.4146C12.8274 70.0702 10.9349 69.0482 8.95285 68.214C7.91184 67.7762 6.81394 67.7641 5.70053 68.0313C4.65607 68.2829 3.59781 68.476 2.50854 68.395C2.02767 68.3588 1.62436 68.1899 1.2762 67.8641C1.1952 67.7883 1.10385 67.7073 1.00044 67.6693C0.469586 67.4763 0.459244 67.416 0.588509 66.8593C0.674686 66.487 0.676411 66.0923 0.702264 65.708C0.776376 64.579 0.75397 63.4346 0.94356 62.3264C1.06076 61.6421 0.905641 61.0716 0.793611 60.4356C0.666069 59.7031 0.697093 58.9189 0.793611 58.1744C1.04352 56.2388 1.09695 54.3136 0.719499 52.3953C0.554039 51.5542 0.293785 50.7304 0.131772 49.8893C0.042148 49.4188 0.0404244 48.9258 0.045595 48.4432C0.0611069 47.2868 0.136943 46.1285 0.124878 44.972C0.112813 43.962 0.409261 42.9658 1.67779 42.6832C1.97079 42.6177 2.09661 42.4695 2.17244 42.1816C2.32584 41.6008 2.50336 41.5094 3.0842 41.7111C3.52025 41.8628 3.83911 41.8593 3.96493 41.3354C3.97527 41.2957 3.99767 41.232 4.02525 41.2251C4.81119 41.0337 4.7905 40.253 5.12487 39.7308C5.64193 38.9241 6.17623 38.1296 6.67261 37.3092C6.82256 37.061 6.90529 36.7559 6.95872 36.4664C7.06041 35.9062 7.16899 35.7976 7.72914 35.6408C8.16692 35.5184 8.5978 35.353 9.01318 35.1651C9.38891 34.9945 9.40787 34.6067 9.0442 34.4222C7.84117 33.8121 7.75672 32.5177 8.15485 31.4371C8.36168 30.8752 8.64779 30.3426 8.91321 29.8032C9.12866 29.3654 9.30963 29.2947 9.77154 29.4619C10.0111 29.5481 10.2386 29.6687 10.4713 29.7739C10.504 29.748 10.5368 29.7239 10.5695 29.698L10.5747 29.7049ZM7.62056 14.2947C7.85668 14.6998 8.14451 15.0565 8.2824 15.4633C8.46337 16.001 8.78567 16.232 9.32341 16.3285C9.96112 16.444 10.3627 16.9886 10.3696 17.6229C10.3731 17.9297 10.3007 18.1882 9.95423 18.2882C9.80428 18.3313 9.66468 18.414 9.52679 18.4881C9.03903 18.7466 8.82186 19.2378 8.97009 19.7411C9.139 20.3151 9.02352 20.5081 8.42545 20.5719C8.1583 20.5994 8.04283 20.7287 8.11004 20.9597C8.19967 21.2699 8.29101 21.6077 8.47888 21.8576C8.90977 22.4281 9.39063 22.9607 9.86805 23.4933C10.5109 24.212 10.8539 25.0255 10.7643 26.0045C10.7281 26.4043 10.7315 26.8076 10.6988 27.2075C10.6557 27.7435 10.8367 28.2089 11.0659 28.6846C11.2555 29.0758 11.3779 29.5084 11.4641 29.9359C11.533 30.2771 11.5089 30.6218 11.047 30.7459C10.6436 30.8545 10.2627 31.0717 9.94734 30.577C9.81807 30.3736 9.62848 30.334 9.49922 30.6218C9.30101 31.0665 9.06833 31.4957 8.89253 31.9472C8.61159 32.6625 8.83048 33.2778 9.48371 33.6742C9.89391 33.9241 10.2714 34.2137 10.2041 34.7428C10.1386 35.2599 9.97319 35.7494 9.39236 35.9493C9.00284 36.0837 8.61504 36.2302 8.23931 36.4009C8.08764 36.4698 7.92735 36.5922 7.84979 36.7352C7.49474 37.3833 7.2138 38.0761 6.82083 38.7001C6.26585 39.5808 5.57127 40.3788 5.442 41.4767C5.42649 41.6111 5.21105 41.8024 5.06627 41.8266C4.75603 41.8783 4.63194 42.0489 4.54231 42.3143C4.39064 42.7625 4.22346 42.8383 3.75982 42.7107C3.63573 42.6763 3.50991 42.6487 3.38237 42.6263C3.05662 42.5677 2.85669 42.6642 2.83773 43.0348C2.81877 43.4105 2.58437 43.5622 2.22587 43.5312C1.83291 43.4967 1.4589 43.5553 1.22794 43.8983C0.945283 44.3223 0.860829 44.7911 1.05042 45.2926C1.13487 45.5167 1.23656 45.7631 1.22105 45.9924C1.18658 46.4888 1.03663 46.98 1.01767 47.4763C0.984925 48.3312 0.857382 49.2257 1.05042 50.0358C1.43822 51.6559 1.88978 53.2623 1.85876 54.9376C1.83463 56.2681 1.68468 57.5952 1.58644 58.9241C1.52956 59.7066 1.55025 60.4684 1.97768 61.1716C2.05524 61.2991 2.01733 61.5198 1.98458 61.6887C1.88289 62.2212 1.69502 62.7435 1.65711 63.2795C1.58989 64.2378 1.64849 65.2047 1.57438 66.1612C1.51577 66.9248 2.03111 67.6711 2.8722 67.5883C3.6116 67.516 4.35789 67.4401 5.08178 67.2764C6.31756 66.9972 7.54989 66.842 8.77533 67.2454C10.4868 67.8072 12.0414 68.7086 13.5409 69.6756C16.6657 71.6921 19.0459 74.3963 20.6678 77.7538C20.9935 78.4277 21.3106 79.0551 20.5781 79.7583C20.0559 80.2598 20.1731 80.6821 20.6953 81.2147C20.766 81.287 20.8315 81.3646 20.9125 81.4232C22.0569 82.2608 22.7774 83.4139 23.3892 84.6617C24.3096 86.5421 25.8367 87.4815 27.9325 87.4763C28.7357 87.4746 29.5474 87.5142 30.342 87.4211C32.1483 87.2126 33.9511 86.9575 35.747 86.6748C36.4433 86.5645 37.1586 86.4215 37.5774 85.7062C37.7429 85.4235 38.0876 85.4511 38.2979 85.751C39.0183 86.7834 39.7611 86.5542 40.5798 86.1026C41.4295 85.6338 42.2293 85.0737 43.0531 84.5583C43.5443 84.2498 43.6408 84.2619 43.9976 84.729C44.2337 85.0392 44.4664 85.1012 44.8473 84.9358C45.2575 84.7565 45.7143 84.648 46.1589 84.5945C46.4554 84.5601 46.6364 84.4739 46.7604 84.2119C46.9156 83.8896 47.0845 83.5742 47.2585 83.2622C47.4654 82.8917 47.7049 82.8279 48.0738 83.0571C48.353 83.2312 48.6408 83.4035 48.8787 83.6259C49.1769 83.9034 49.3768 83.8965 49.6474 83.5794C50.4092 82.6883 51.2124 81.8317 51.9759 80.9423C52.8359 79.941 53.091 78.7948 52.8221 77.4935C52.6067 76.4542 52.1827 75.5097 51.6829 74.5911C51.495 74.2481 51.5553 74.0361 51.8587 73.7862C52.1948 73.5087 52.4792 73.1606 52.7532 72.8176C52.9755 72.5401 53.11 72.185 53.3513 71.9299C54.1975 71.0371 55.049 70.1426 55.9486 69.305C56.5295 68.7638 57.1793 68.2864 57.8359 67.8365C58.5253 67.366 59.2372 66.9455 59.5526 66.1026C59.687 65.7424 59.8973 65.4132 60.0541 65.0599C60.092 64.972 60.0903 64.8272 60.0421 64.7497C59.8111 64.3808 59.949 64.1637 60.3023 64.0051C60.8435 63.7604 61.3313 63.4587 61.6605 62.9296C61.7949 62.7107 62.0155 62.678 62.2999 62.7952C62.9979 63.083 63.7063 63.3777 64.4371 63.5484C65.3971 63.7724 66.3847 63.8793 67.3602 64.0396C67.8962 64.1275 68.4288 64.2533 68.97 64.3067C69.7939 64.3877 70.0214 64.5635 69.9076 65.3219C69.8783 65.5132 70.0007 65.8321 70.1541 65.92C70.4057 66.0665 70.4505 66.2354 70.4505 66.4767C70.454 67.1299 70.7022 67.4091 71.3519 67.3901C72.7549 67.3488 73.4305 66.8162 73.9872 65.5718C74.3595 64.7393 74.7439 63.9103 75.1834 63.1123C75.4212 62.6814 75.8211 62.3815 76.3605 62.3453C77.1051 62.2954 77.3343 62.0644 77.5894 61.3422C77.9428 60.3477 78.3271 59.3636 78.739 58.3933C79.1406 57.4488 79.5922 56.5249 80.0196 55.5925C80.1368 55.3391 80.304 55.1702 80.6091 55.1806C80.9589 55.1909 81.1468 55.0082 81.164 54.6635C81.1916 54.0965 81.2795 53.5191 81.2158 52.9606C81.0365 51.4284 81.5846 50.2599 82.8704 49.4532C83.546 49.0293 84.2854 48.7052 84.9731 48.2985C85.9934 47.6952 86.5863 46.8662 86.3657 45.7338C86.2899 45.3426 86.133 44.9669 86.0313 44.5808C85.8435 43.8604 85.7987 43.1468 86.0934 42.4333C86.5777 41.2613 87.4119 40.3978 88.4529 39.7221C89.1079 39.2947 89.8007 38.9879 90.6349 39.1137C90.8555 39.1465 91.2175 38.9845 91.3364 38.7966C91.5725 38.426 91.8121 37.9796 91.8259 37.5574C91.8741 36.0682 91.8155 34.5739 91.8242 33.083C91.8276 32.454 91.7587 31.7783 91.9569 31.2061C92.5549 29.4774 93.5494 27.9917 94.9782 26.8059C95.5211 26.3543 95.9744 25.7942 96.4605 25.2737C96.7535 24.96 97 24.5981 97.3223 24.3223C97.4774 24.1879 97.8238 24.0862 97.972 24.1689C98.3839 24.3999 98.6804 24.2447 99.001 24.0327C99.5249 23.6846 100.064 23.3571 100.569 22.9831C100.768 22.8366 100.981 22.6108 101.036 22.385C101.352 21.0803 101.13 19.7877 100.83 18.514C100.78 18.3002 100.559 18.09 100.363 17.9555C99.9989 17.7039 99.6008 17.504 99.2113 17.292C98.1702 16.7215 97.3964 15.5391 97.7704 14.2396C97.9841 13.4985 97.8221 12.7746 97.486 12.0748C97.1706 11.4199 96.8793 10.746 96.6501 10.0565C96.3019 9.01208 96.0468 7.93831 95.6987 6.89385C95.3798 5.93728 94.8455 5.11687 93.9303 4.60326C93.2444 4.21891 92.5601 3.83456 91.8862 3.42953C91.2968 3.0762 91.3226 3.0762 90.9348 3.64497C90.5729 4.17582 90.2075 4.71184 89.7749 5.18237C89.2199 5.78561 88.6994 5.78216 88.0358 5.29268C87.9358 5.21856 87.7583 5.15824 87.6532 5.19788C87.1689 5.37541 86.7621 5.63911 86.6466 6.21132C86.6191 6.34404 86.3898 6.55258 86.2881 6.53363C85.5401 6.39574 85.0679 6.71977 84.7473 7.35575C84.7352 7.38161 84.7163 7.40574 84.6956 7.42297C84.3991 7.65393 84.2699 7.94348 84.2182 8.32955C84.1113 9.11204 83.4236 9.49812 82.698 9.22407C82.4067 9.11377 82.1172 8.97588 81.8638 8.79663C81.3243 8.41918 80.8176 7.99691 80.2833 7.61256C79.7697 7.242 79.2371 7.01105 78.5632 7.22132C77.7032 7.49019 76.8259 7.54362 75.94 7.24717C75.304 7.03345 74.6491 6.87833 73.9993 6.70426C73.8649 6.66806 73.7218 6.66806 73.5839 6.64221C73.1565 6.56293 72.7032 6.54397 72.3085 6.38368C71.5932 6.0924 70.9193 5.6753 70.0989 5.85627C69.6508 5.95452 69.213 6.10102 68.7632 6.18202C68.0393 6.31129 67.3171 6.64049 66.5708 6.33542C66.1606 6.16823 65.7814 6.23028 65.4057 6.38885C64.3251 6.84214 63.2478 7.30232 62.1758 7.77802C61.9517 7.87799 61.7242 8.02449 61.5691 8.20891C61.0124 8.87592 60.5488 9.63255 59.9283 10.2306C59.4164 10.7236 58.7528 11.0769 58.1169 11.4216C57.6929 11.6525 57.4498 11.4905 57.2499 11.0459C57.2017 10.9373 57.0672 10.8425 56.9517 10.789C56.3192 10.5029 55.6815 10.2237 55.0386 9.96175C54.918 9.91349 54.7611 9.94624 54.6232 9.95485C53.8838 10.0031 53.1427 10.0979 52.4033 10.0962C51.7622 10.0962 51.2348 9.78595 50.8004 9.29474C50.6694 9.14651 50.4247 9.07068 50.2179 9.02242C49.8421 8.93624 49.4319 8.96037 49.0786 8.82593C47.4481 8.20891 46.1176 7.17823 45.0404 5.80629C44.9335 5.67013 44.6767 5.57361 44.4974 5.5874C44.0562 5.62187 43.6184 5.71322 43.1858 5.81319C42.2948 6.01656 41.4106 6.24407 40.5212 6.44917C39.9542 6.58016 39.3871 6.72666 38.8115 6.78699C38.5254 6.81629 38.3703 6.86972 38.2772 7.14893C38.2272 7.3006 38.11 7.46778 37.9756 7.54707C36.6898 8.29853 35.7901 8.57947 34.4854 7.37299C33.6908 6.63876 33.1945 5.69943 32.6774 4.77561C32.0018 3.56913 31.09 2.63153 29.7543 2.19892C28.7219 1.86455 27.6688 1.59396 26.6191 1.30957C25.5781 1.02863 24.5406 1.05966 23.4685 1.21305C22.1535 1.40092 20.816 1.44228 19.4854 1.51467C19.1976 1.53019 18.8598 1.47503 18.6185 1.33025C18.0411 0.985547 17.4982 0.918329 16.8932 1.2458C16.6347 1.38541 16.3175 1.41126 16.0349 1.51295C14.906 1.91453 13.7477 2.25752 12.6602 2.7539C11.5554 3.2589 10.8246 4.12239 10.8556 5.43918C10.8625 5.69598 10.9487 5.95796 10.9177 6.20788C10.8953 6.39402 10.7884 6.63531 10.6402 6.72839C10.1938 7.01277 10.149 7.11101 10.3524 7.59705C10.6712 8.36058 11.0142 9.11721 11.2607 9.90315C11.4365 10.4616 11.1986 10.727 10.6281 10.746C9.6733 10.7804 8.97009 11.2458 8.44269 12.0007C8.1945 12.3575 8.02214 12.7573 8.14451 13.2141C8.27435 13.6978 8.0997 14.0575 7.62056 14.293V14.2947Z" fill="#A2A2A2"/>
<path d="M45.751 51.8703C45.661 51.7034 45.5997 51.5926 45.5424 51.4804C43.3152 47.1265 41.0555 44.6413 38.8739 40.2639C37.3118 37.1279 37.9403 33.443 40.5926 31.0567C43.6973 28.2624 48.4241 28.4241 51.2967 31.4557C53.4404 33.7194 53.9216 36.399 53.014 39.3512C52.9188 39.6589 52.7884 39.9601 52.6424 40.247C50.4152 44.6139 48.1829 47.1239 45.9518 51.4883C45.8983 51.5939 45.841 51.6982 45.7523 51.869L45.751 51.8703ZM45.7275 40.792C47.9247 40.8077 49.745 39.0017 49.7567 36.7954C49.7672 34.6035 47.9521 32.7819 45.7484 32.774C43.5604 32.7675 41.7713 34.5474 41.7426 36.7576C41.714 38.9535 43.5134 40.7751 45.7288 40.7907L45.7275 40.792Z" fill="#A2A2A2"/>
</svg>
