<svg width="106" height="87" viewBox="0 0 106 87" fill="none" xmlns="http://www.w3.org/2000/svg">
<path d="M74.1128 53.2621L105 1H33.8649L1 53.2621H74.1128Z" stroke="#1A1A1A" stroke-width="1.5" stroke-linecap="round" stroke-linejoin="round"/>
<path d="M105 1V8.5L76 57.6183H1V53.0008" stroke="#1A1A1A" stroke-width="1.5" stroke-linecap="round" stroke-linejoin="round"/>
<path d="M18.5 25H90.5" stroke="#1A1A1A" stroke-width="1.5" stroke-linecap="round" stroke-linejoin="round"/>
<path d="M66.5 1L40 53" stroke="#1A1A1A" stroke-width="1.5" stroke-linecap="round" stroke-linejoin="round"/>
<path d="M55 82V58H48V82H55Z" stroke="#1A1A1A" stroke-width="1.5" stroke-linecap="round" stroke-linejoin="round"/>
<path d="M47.5872 79H40L25 86H61.5L74.5 79L55.6537 79" stroke="#1A1A1A" stroke-width="1.5" stroke-linecap="round" stroke-linejoin="round"/>
<path d="M57.2446 41.3666L64.3317 47.8254C64.4458 47.9418 64.5714 48 64.7083 48C64.8453 48 64.9708 47.9418 65.0849 47.8254C65.1991 47.7091 65.2561 47.5871 65.2561 47.4596C65.2561 47.3311 65.2219 47.2086 65.1534 47.0923L61.7981 42.4489L67.3446 41.8903C67.6641 41.8437 67.8696 41.6747 67.9609 41.3833C68.0522 41.0929 67.9837 40.8429 67.7554 40.6334L60.7025 34.1746C60.5884 34.0582 60.4569 34 60.3081 34C60.1602 34 60.0292 34.0582 59.9151 34.1746C59.8238 34.2909 59.7726 34.4129 59.7617 34.5404C59.7498 34.6689 59.7895 34.7914 59.8808 34.9077L63.2019 39.5511L57.6554 40.1097C57.3359 40.1563 57.1304 40.3248 57.0391 40.6153C56.9478 40.9067 57.0163 41.1571 57.2446 41.3666Z" fill="#1A1A1A"/>
<path d="M22.2446 41.3666L29.3317 47.8254C29.4458 47.9418 29.5714 48 29.7083 48C29.8453 48 29.9708 47.9418 30.0849 47.8254C30.1991 47.7091 30.2561 47.5871 30.2561 47.4596C30.2561 47.3311 30.2219 47.2086 30.1534 47.0923L26.7981 42.4489L32.3446 41.8903C32.6641 41.8437 32.8696 41.6747 32.9609 41.3833C33.0522 41.0929 32.9837 40.8429 32.7554 40.6334L25.7025 34.1746C25.5884 34.0582 25.4569 34 25.3081 34C25.1602 34 25.0292 34.0582 24.9151 34.1746C24.8238 34.2909 24.7726 34.4129 24.7617 34.5404C24.7498 34.6689 24.7895 34.7914 24.8808 34.9077L28.2019 39.5511L22.6554 40.1097C22.3359 40.1563 22.1304 40.3248 22.0391 40.6153C21.9478 40.9067 22.0163 41.1571 22.2446 41.3666Z" fill="#1A1A1A"/>
<path d="M36.2446 15.3666L43.3317 21.8254C43.4458 21.9418 43.5714 22 43.7083 22C43.8453 22 43.9708 21.9418 44.0849 21.8254C44.1991 21.7091 44.2561 21.5871 44.2561 21.4596C44.2561 21.3311 44.2219 21.2086 44.1534 21.0923L40.7981 16.4489L46.3446 15.8903C46.6641 15.8437 46.8696 15.6747 46.9609 15.3833C47.0522 15.0929 46.9837 14.8429 46.7554 14.6334L39.7025 8.17456C39.5884 8.05819 39.4569 8 39.3081 8C39.1602 8 39.0292 8.05819 38.9151 8.17456C38.8238 8.29094 38.7726 8.4129 38.7617 8.54045C38.7498 8.66893 38.7895 8.79136 38.8808 8.90773L42.2019 13.5511L36.6554 14.1097C36.3359 14.1563 36.1304 14.3248 36.0391 14.6153C35.9478 14.9067 36.0163 15.1571 36.2446 15.3666Z" fill="#1A1A1A"/>
<path d="M72.2446 15.3666L79.3317 21.8254C79.4458 21.9418 79.5714 22 79.7083 22C79.8453 22 79.9708 21.9418 80.0849 21.8254C80.1991 21.7091 80.2561 21.5871 80.2561 21.4596C80.2561 21.3311 80.2219 21.2086 80.1534 21.0923L76.7981 16.4489L82.3446 15.8903C82.6641 15.8437 82.8696 15.6747 82.9609 15.3833C83.0522 15.0929 82.9837 14.8429 82.7554 14.6334L75.7025 8.17456C75.5884 8.05819 75.4569 8 75.3081 8C75.1602 8 75.0292 8.05819 74.9151 8.17456C74.8238 8.29094 74.7726 8.4129 74.7617 8.54045C74.7498 8.66893 74.7895 8.79136 74.8808 8.90773L78.2019 13.5511L72.6554 14.1097C72.3359 14.1563 72.1304 14.3248 72.0391 14.6153C71.9478 14.9067 72.0163 15.1571 72.2446 15.3666Z" fill="#1A1A1A"/>
</svg>
