<svg width="111" height="94" viewBox="0 0 111 94" fill="none" xmlns="http://www.w3.org/2000/svg">
<circle cx="20.4718" cy="13.3019" r="12.8019" stroke="#A2A2A2"/>
<mask id="path-2-inside-1_3513_14652" fill="white">
<path fill-rule="evenodd" clip-rule="evenodd" d="M40.8487 54.9822C40.8613 54.6882 40.8676 54.3926 40.8676 54.0954C40.8676 42.8309 31.7359 33.6992 20.4714 33.6992C9.2069 33.6992 0.0751953 42.8309 0.0751953 54.0954C0.0751953 54.3926 0.0815487 54.6882 0.0941269 54.9822H0.0751953V79.8124H40.8676V54.9822H40.8487Z"/>
</mask>
<path d="M40.8487 54.9822L39.8496 54.9395L39.805 55.9822H40.8487V54.9822ZM0.0941269 54.9822V55.9822H1.13782L1.09321 54.9395L0.0941269 54.9822ZM0.0751953 54.9822V53.9822H-0.924805V54.9822H0.0751953ZM0.0751953 79.8124H-0.924805V80.8124H0.0751953V79.8124ZM40.8676 79.8124V80.8124H41.8676V79.8124H40.8676ZM40.8676 54.9822H41.8676V53.9822H40.8676V54.9822ZM39.8676 54.0954C39.8676 54.3783 39.8616 54.6597 39.8496 54.9395L41.8478 55.025C41.861 54.7167 41.8676 54.4068 41.8676 54.0954H39.8676ZM20.4714 34.6992C31.1837 34.6992 39.8676 43.3832 39.8676 54.0954H41.8676C41.8676 42.2786 32.2882 32.6992 20.4714 32.6992V34.6992ZM1.0752 54.0954C1.0752 43.3832 9.75918 34.6992 20.4714 34.6992V32.6992C8.65461 32.6992 -0.924805 42.2786 -0.924805 54.0954H1.0752ZM1.09321 54.9395C1.08124 54.6597 1.0752 54.3783 1.0752 54.0954H-0.924805C-0.924805 54.4068 -0.918146 54.7167 -0.904959 55.025L1.09321 54.9395ZM0.0751953 55.9822H0.0941269V53.9822H0.0751953V55.9822ZM1.0752 79.8124V54.9822H-0.924805V79.8124H1.0752ZM40.8676 78.8124H0.0751953V80.8124H40.8676V78.8124ZM39.8676 54.9822V79.8124H41.8676V54.9822H39.8676ZM40.8487 55.9822H40.8676V53.9822H40.8487V55.9822Z" fill="#A2A2A2" mask="url(#path-2-inside-1_3513_14652)"/>
<circle cx="90.5285" cy="13.3019" r="12.8019" stroke="#A2A2A2"/>
<mask id="path-5-inside-2_3513_14652" fill="white">
<path fill-rule="evenodd" clip-rule="evenodd" d="M110.906 54.9822C110.918 54.6882 110.925 54.3926 110.925 54.0954C110.925 42.8309 101.793 33.6992 90.5286 33.6992C79.264 33.6992 70.1323 42.8309 70.1323 54.0954C70.1323 54.3926 70.1387 54.6882 70.1513 54.9822H70.1323V79.8124H110.925V54.9822H110.906Z"/>
</mask>
<path d="M110.906 54.9822L109.907 54.9395L109.862 55.9822H110.906V54.9822ZM70.1513 54.9822V55.9822H71.1949L71.1503 54.9395L70.1513 54.9822ZM70.1323 54.9822V53.9822H69.1323V54.9822H70.1323ZM70.1323 79.8124H69.1323V80.8124H70.1323V79.8124ZM110.925 79.8124V80.8124H111.925V79.8124H110.925ZM110.925 54.9822H111.925V53.9822H110.925V54.9822ZM109.925 54.0954C109.925 54.3783 109.919 54.6597 109.907 54.9395L111.905 55.025C111.918 54.7167 111.925 54.4068 111.925 54.0954H109.925ZM90.5286 34.6992C101.241 34.6992 109.925 43.3832 109.925 54.0954H111.925C111.925 42.2786 102.345 32.6992 90.5286 32.6992V34.6992ZM71.1323 54.0954C71.1323 43.3832 79.8163 34.6992 90.5286 34.6992V32.6992C78.7117 32.6992 69.1323 42.2786 69.1323 54.0954H71.1323ZM71.1503 54.9395C71.1384 54.6597 71.1323 54.3783 71.1323 54.0954H69.1323C69.1323 54.4068 69.139 54.7167 69.1522 55.025L71.1503 54.9395ZM70.1323 55.9822H70.1513V53.9822H70.1323V55.9822ZM71.1323 79.8124V54.9822H69.1323V79.8124H71.1323ZM110.925 78.8124H70.1323V80.8124H110.925V78.8124ZM109.925 54.9822V79.8124H111.925V54.9822H109.925ZM110.906 55.9822H110.925V53.9822H110.906V55.9822Z" fill="#A2A2A2" mask="url(#path-5-inside-2_3513_14652)"/>
<circle cx="55.5001" cy="69.6134" r="23.8868" fill="#1A1A1A" stroke="#A2A2A2"/>
<path d="M57.717 54.9805L49.7358 69.8651H62.1509L53.7264 85.1314" stroke="#A2A2A2"/>
</svg>
