<svg width="14" height="13" viewBox="0 0 14 13" fill="none" xmlns="http://www.w3.org/2000/svg">
<path d="M12.7825 4.43631L9.29433 4.10648C9.07444 4.08649 8.88444 3.94656 8.79458 3.73666L7.54519 0.708172C7.34529 0.208421 6.63554 0.208421 6.43564 0.708172L5.19625 3.73666C5.11629 3.94656 4.91638 4.08649 4.69649 4.10648L1.20821 4.43631C0.688461 4.48629 0.478564 5.13596 0.868373 5.48579L3.49708 7.79463C3.667 7.94456 3.73696 8.16445 3.68699 8.38434L2.89738 11.6226C2.77744 12.1325 3.32717 12.5522 3.78694 12.2824L6.69551 10.5731C6.88542 10.4632 7.1153 10.4632 7.30521 10.5731L10.2139 12.2824C10.6737 12.5522 11.2234 12.1425 11.1033 11.6226L10.3237 8.38434C10.2738 8.16445 10.3437 7.94456 10.5136 7.79463L13.1423 5.48579C13.5222 5.13596 13.3023 4.48629 12.7825 4.43631Z" fill="#43A45E"/>
</svg>
