<svg width="90" height="55" viewBox="0 0 90 55" fill="none" xmlns="http://www.w3.org/2000/svg">
<path d="M74.1826 1H27.2282C23.9867 1 21.3589 3.62777 21.3589 6.8693V36.2158C21.3589 39.4573 23.9867 42.0851 27.2282 42.0851H74.1826C77.4241 42.0851 80.0519 39.4573 80.0519 36.2158V6.8693C80.0519 3.62777 77.4241 1 74.1826 1Z" stroke="#43A45E" stroke-width="1.5" stroke-linecap="round" stroke-linejoin="round"/>
<path d="M1 53.8242H88.4893" stroke="#43A45E" stroke-width="1.5" stroke-linecap="round" stroke-linejoin="round"/>
<path d="M55.6577 42.0859V53.8245" stroke="#43A45E" stroke-width="1.5" stroke-linecap="round" stroke-linejoin="round"/>
<path d="M44.103 42.0859V53.8245" stroke="#43A45E" stroke-width="1.5" stroke-linecap="round" stroke-linejoin="round"/>
<rect x="64.5537" y="45.5684" width="21.4596" height="8.2537" stroke="#43A45E" stroke-width="1.5" stroke-linecap="round" stroke-linejoin="round"/>
<path d="M19.9838 14.2031H6.77783V53.8209H31.5389V42.2657" stroke="#43A45E" stroke-width="1.5" stroke-linecap="round" stroke-linejoin="round"/>
<path d="M19.158 32.3638C15.9671 32.3638 13.3804 29.7771 13.3804 26.5862C13.3804 23.3953 15.9671 20.8086 19.158 20.8086" stroke="#43A45E" stroke-width="1.5" stroke-linecap="round" stroke-linejoin="round"/>
</svg>
