<svg fill="none" height="18" viewBox="0 0 18 18" width="18" xmlns="http://www.w3.org/2000/svg"><path clip-rule="evenodd" d="m4.70088.0140345c0 .0084116-.05607.0140193-.14019.0140193s-.14019.0056077-.14019.0140193c0 .008005-.04206.0140193-.09814.0140193-.05607 0-.09813.0060143-.09813.0140193 0 .0077947-.03739.0140193-.08412.0140193-.04672 0-.08411.0062245-.08411.0140193 0 .0077107-.01893.0140197-.04206.0140197s-.04206.006308-.04206.014019c0 .00771-.02523.014019-.05608.014019-.03084 0-.05607.006309-.05607.014019 0 .007711-.03155.01402-.0701.01402s-.0701.006308-.0701.014019-.02523.014019-.05607.014019c-.03085 0-.05608.006309-.05608.01402 0 .00771-.01262.014019-.02804.014019s-.02804.006308-.02804.014019-.01892.014019-.04206.014019c-.02313 0-.04205.006309-.04205.01402 0 .00771-.01262.014019-.02804.014019s-.02804.006309-.02804.014019c0 .007711-.01893.01402-.04206.01402s-.04206.006308-.04206.014019c0 .00771-.01892.014019-.04205.014019-.02314 0-.04206.006309-.04206.014019 0 .007711-.01893.01402-.04206.01402s-.04206.006308-.04206.014019-.01262.014019-.02804.014019-.02804.006309-.02804.01402c0 .00771-.01261.014019-.02803.014019s-.02804.006308-.02804.014019-.01262.014019-.02804.014019-.02804.006309-.02804.01402c0 .00771-.01262.014019-.02804.014019s-.02804.006309-.02804.014019c0 .007711-.01261.014019-.02804.014019-.01542 0-.02803.006309-.02803.01402 0 .00771-.01262.014019-.02804.014019s-.02804.006309-.02804.014019c0 .007711-.01262.01402-.02804.01402s-.02804.006308-.02804.014019-.01123.014019-.02494.014019c-.01372 0-.03404.012618-.04515.028039-.01112.015421-.03144.028038-.04516.028038-.01371 0-.02494.006309-.02494.01402 0 .00771-.01123.014019-.02494.014019-.01373 0-.03404.012617-.04516.028038-.01111.015422-.03143.028039-.04515.028039-.01371 0-.02494.006309-.02494.014019 0 .007711-.01123.01402-.02494.01402-.01373 0-.03404.012617-.04516.028038s-.02891.028039-.03953.028039-.037.018926-.0586.042058c-.02161.023131-.04684.042057-.05608.042057s-.03448.018926-.05608.042058-.04684.042058-.05608.042058-.03447.018925-.05607.042055c-.02161.02313-.04646.04206-.05524.04206-.00876 0-.07223.05678-.14103.12617-.06881.0694-.13181.12618-.14003.12618-.01944 0-.14036.12091-.14036.14036 0 .00821-.05678.07122-.12617.14002-.0694.06881-.12618.13228-.12618.14104 0 .00877-.01892.03363-.04205.05523-.02314.02161-.04206.04684-.04206.05608s-.01893.03447-.04206.05608c-.02313.0216-.04206.04684-.04206.05608 0 .00923-.01892.03447-.04206.05607-.02313.02161-.04205.04799-.04205.0586 0 .01063-.01262.02842-.02804.03954-.01542.01111-.02804.03143-.02804.04515 0 .01371-.00631.02494-.01402.02494s-.01402.01123-.01402.02494c0 .01373-.01262.03404-.028038.04516-.015421.01112-.028038.03143-.028038.04516 0 .01371-.006309.02494-.01402.02494-.00771 0-.014019.01123-.014019.02494 0 .01372-.012617.03404-.028038.04515-.015422.01112-.028039.03143-.028039.04516 0 .01371-.006309.02494-.014019.02494-.007711 0-.01402.01262-.01402.02804s-.006308.02804-.014019.02804c-.00771 0-.014019.01261-.014019.02804 0 .01542-.006309.02803-.014019.02803-.007711 0-.01402.01262-.01402.02804s-.006308.02804-.014019.02804-.014019.01262-.014019.02804-.006309.02804-.014019.02804c-.007711 0-.01402.01262-.01402.02804s-.006308.02804-.014019.02804-.014019.01261-.014019.02803-.006309.02804-.01402.02804c-.00771 0-.014019.01262-.014019.02804s-.006309.02804-.014019.02804c-.007711 0-.014019.01893-.014019.04206s-.006309.04206-.01402.04206c-.00771 0-.014019.01892-.014019.04205s-.006309.04206-.014019.04206c-.007711 0-.01402.01893-.01402.04206s-.006308.04206-.014019.04206c-.00771 0-.014019.01261-.014019.02804 0 .01542-.006309.02803-.014019.02803-.007711 0-.01402.01893-.01402.04206s-.006308.04206-.014019.04206-.014019.01262-.014019.02804-.006309.02804-.01402.02804c-.00771 0-.014019.02523-.014019.05607 0 .03085-.006309.05608-.014019.05608-.007711 0-.014019.03154-.014019.0701 0 .03855-.006309.07009-.01402.07009-.00771 0-.014019.02524-.014019.05608s-.006309.05608-.014019.05608c-.007711 0-.01402.01892-.01402.04206 0 .02313-.006308.04205-.014019.04205-.007795 0-.014019.03739-.014019.08412s-.006225.08411-.014019.08411c-.008005 0-.01402.04206-.01402.09814s-.006014.09814-.014019.09814c-.008412 0-.014019.05607-.014019.14019 0 .08411-.005608.14019-.01402.14019-.009308 0-.014019 1.39258-.014019 4.14971 0 2.75712.004711 4.14972.014019 4.14972.008412 0 .01402.0561.01402.1402s.005607.1402.014019.1402c.008005 0 .014019.042.014019.0981s.006015.0981.01402.0981c.007794 0 .014019.0374.014019.0842 0 .0467.006224.0841.014019.0841.007711 0 .014019.0189.014019.042 0 .0232.006309.0421.01402.0421.00771 0 .014019.0252.014019.0561 0 .0308.006309.056.014019.056.007711 0 .01402.0316.01402.0701 0 .0386.006308.0701.014019.0701.00771 0 .014019.0253.014019.0561 0 .0309.006309.0561.014019.0561.007711 0 .01402.0126.01402.028 0 .0155.006308.0281.014019.0281s.014019.0189.014019.042c0 .0232.006309.0421.01402.0421.00771 0 .014019.0126.014019.028s.006309.0281.014019.0281c.007711 0 .014019.0189.014019.042 0 .0232.006309.0421.01402.0421.00771 0 .014019.0189.014019.042 0 .0232.006309.0421.014019.0421.007711 0 .01402.0189.01402.0421 0 .0231.006308.042.014019.042.00771 0 .014019.0126.014019.028 0 .0155.006309.0281.014019.0281.007711 0 .01402.0126.01402.028s.006308.0281.014019.0281.014019.0126.014019.028.006309.028.01402.028c.00771 0 .014019.0127.014019.0281s.006308.028.014019.028.014019.0126.014019.0281c0 .0154.006309.028.01402.028.00771 0 .014019.0126.014019.028 0 .0155.006309.0281.014019.0281.007711 0 .014019.0126.014019.028s.006309.028.01402.028c.00771 0 .014019.0113.014019.025s.012617.034.028039.0451c.015421.0112.028038.0315.028038.0452s.006309.0249.014019.0249c.007711 0 .01402.0113.01402.025s.012617.034.028038.0451c.015418.0112.028038.0315.028038.0452s.00631.0249.01402.0249.01402.0113.01402.025.01262.034.02804.0451.02804.0289.02804.0396c0 .0106.01892.037.04205.0586.02314.0216.04206.0468.04206.056 0 .0093.01893.0345.04206.0561s.04206.0469.04206.0561.01892.0345.04206.0561c.02313.0216.04205.0464.04205.0552s.05678.0722.12618.141c.06939.0689.12617.1319.12617.1401 0 .0194.12092.1403.14036.1403.00822 0 .07122.0568.14003.1262.0688.0694.13227.1262.14103.1262.00878 0 .03363.0189.05524.042.0216.0232.04683.0421.05607.0421s.03448.0189.05608.042c.0216.0232.04684.0421.05608.0421s.03447.0189.05608.0421c.0216.0231.04798.042.0586.042s.02841.0126.03953.0281c.01112.0154.03143.028.04516.028.01371 0 .02494.0063.02494.014s.01123.014.02494.014c.01372 0 .03404.0127.04515.0281.01112.0154.03143.028.04516.028.01371 0 .02494.0063.02494.014s.01123.0141.02494.0141c.01372 0 .03404.0126.04516.028.01111.0154.03143.028.04515.028.01371 0 .02494.0063.02494.0141 0 .0077.01262.014.02804.014s.02804.0063.02804.014.01262.014.02804.014.02804.0063.02804.014.01261.014.02803.014c.01543 0 .02804.0064.02804.0141s.01262.014.02804.014.02804.0063.02804.014.01262.014.02804.014.02804.0063.02804.014c0 .0078.01262.0141.02804.0141s.02803.0063.02803.014.01262.014.02804.014.02804.0063.02804.014.01893.014.04206.014.04206.0063.04206.0141c0 .0077.01892.014.04206.014.02313 0 .04205.0063.04205.014s.01893.014.04206.014.04206.0063.04206.014.01262.0141.02804.0141.02804.0063.02804.014.01892.014.04205.014c.02314 0 .04206.0063.04206.014s.01262.014.02804.014.02804.0063.02804.0141c0 .0077.02523.014.05608.014.03084 0 .05607.0063.05607.014s.03155.014.0701.014.0701.0063.0701.014.02523.0141.05607.0141c.03085 0 .05608.0063.05608.014s.01893.014.04206.014.04206.0063.04206.014c0 .0078.03739.014.08411.014.04673 0 .08412.0063.08412.014 0 .0081.04206.0141.09813.0141.05608 0 .09814.006.09814.014 0 .0084.05607.014.14019.014s.14019.0056.14019.014c0 .0093 1.39258.014 4.14971.014 2.75711 0 4.14971-.0047 4.14971-.014 0-.0084.0561-.014.1402-.014s.1402-.0056.1402-.014c0-.008.042-.014.0981-.014s.0982-.006.0982-.0141c0-.0077.0373-.014.0841-.014.0467 0 .0841-.0062.0841-.014 0-.0077.0189-.014.042-.014.0232 0 .0421-.0063.0421-.014s.0252-.014.0561-.014c.0308 0 .0561-.0064.0561-.0141s.0315-.014.0701-.014c.0385 0 .07-.0063.07-.014s.0253-.014.0561-.014c.0309 0 .0561-.0063.0561-.014 0-.0078.0126-.0141.028-.0141.0155 0 .0281-.0063.0281-.014s.0189-.014.042-.014c.0232 0 .0421-.0063.0421-.014s.0126-.014.028-.014c.0155 0 .0281-.0064.0281-.0141s.0189-.014.042-.014c.0232 0 .0421-.0063.0421-.014s.0189-.014.042-.014c.0232 0 .0421-.0063.0421-.014 0-.0078.0189-.0141.0421-.0141.0231 0 .042-.0063.042-.014s.0126-.014.0281-.014c.0154 0 .028-.0063.028-.014s.0126-.014.028-.014c.0155 0 .0281-.0063.0281-.0141 0-.0077.0126-.014.028-.014s.0281-.0063.0281-.014.0126-.014.028-.014.028-.0063.028-.014.0126-.0141.0281-.0141c.0154 0 .028-.0063.028-.014s.0126-.014.028-.014c.0155 0 .0281-.0063.0281-.014s.0126-.014.028-.014.0281-.0063.0281-.014c0-.0078.0112-.0141.0249-.0141s.034-.0126.0452-.028c.0111-.0154.0314-.028.0451-.028s.025-.0064.025-.0141.0112-.014.0249-.014.034-.0126.0452-.028c.0111-.0154.0314-.0281.0451-.0281s.0249-.0063.0249-.014.0113-.014.025-.014.034-.0126.0451-.028c.0112-.0155.029-.0281.0396-.0281s.037-.0189.0586-.042c.0216-.0232.0468-.0421.0561-.0421.0092 0 .0344-.0189.056-.0421.0216-.0231.0469-.042.0561-.042s.0345-.0189.0561-.0421c.0216-.0231.0464-.042.0552-.042s.0722-.0568.1411-.1262c.0688-.0694.1318-.1262.14-.1262.0194 0 .1403-.1209.1403-.1403 0-.0082.0568-.0712.1262-.1401.0694-.0688.1262-.1322.1262-.141s.0189-.0336.042-.0552c.0232-.0216.0421-.0469.0421-.0561s.0189-.0345.0421-.0561c.0231-.0216.042-.0468.042-.0561 0-.0092.0189-.0344.0421-.056.0231-.0216.042-.048.042-.0586 0-.0107.0127-.0285.0281-.0396s.028-.0314.028-.0451.0063-.025.014-.025.0141-.0112.0141-.0249.0126-.034.028-.0452c.0154-.0111.028-.0314.028-.0451s.0063-.025.014-.025c.0078 0 .0141-.0112.0141-.0249s.0126-.034.028-.0452c.0154-.0111.028-.0314.028-.0451s.0064-.025.0141-.025.014-.0126.014-.028.0063-.028.014-.028.014-.0126.014-.0281c0-.0154.0063-.028.014-.028.0078 0 .0141-.0126.0141-.028 0-.0155.0063-.0281.014-.0281s.014-.0126.014-.028.0063-.0281.014-.0281.014-.0126.014-.028.0063-.028.0141-.028c.0077 0 .014-.0127.014-.0281s.0063-.028.014-.028.014-.0126.014-.0281c0-.0154.0063-.028.014-.028s.0141-.0189.0141-.042c0-.0232.0063-.0421.014-.0421s.014-.0189.014-.0421c0-.0231.0063-.042.014-.042s.014-.0189.014-.0421c0-.0231.0063-.042.0141-.042.0077 0 .014-.0127.014-.0281s.0063-.028.014-.028.014-.0189.014-.0421c0-.0231.0063-.042.014-.042s.014-.0126.014-.0281c0-.0154.0064-.028.0141-.028s.014-.0252.014-.0561c0-.0308.0063-.0561.014-.0561s.014-.0315.014-.0701c0-.0385.0063-.0701.014-.0701.0078 0 .0141-.0252.0141-.056 0-.0309.0063-.0561.014-.0561s.014-.0189.014-.0421c0-.0231.0063-.042.014-.042.0078 0 .014-.0374.014-.0841 0-.0468.0063-.0842.0141-.0842.008 0 .014-.042.014-.0981s.006-.0981.014-.0981c.0084 0 .014-.0561.014-.1402s.0056-.1402.014-.1402c.0093 0 .0141-1.3926.0141-4.14972 0-2.75713-.0048-4.14971-.0141-4.14971-.0084 0-.014-.05608-.014-.14019 0-.08412-.0056-.14019-.014-.14019-.008 0-.014-.04206-.014-.09814s-.006-.09814-.014-.09814c-.0078 0-.0141-.03738-.0141-.08411s-.0062-.08412-.014-.08412c-.0077 0-.014-.01892-.014-.04205 0-.02314-.0063-.04206-.014-.04206s-.014-.02524-.014-.05608-.0063-.05608-.0141-.05608c-.0077 0-.014-.03154-.014-.07009 0-.03856-.0063-.0701-.014-.0701s-.014-.02523-.014-.05608c0-.03084-.0063-.05607-.014-.05607s-.0141-.01262-.0141-.02804-.0063-.02804-.014-.02804-.014-.01893-.014-.04206-.0063-.04206-.014-.04206-.014-.01261-.014-.02803c0-.01543-.0063-.02804-.014-.02804-.0078 0-.0141-.01893-.0141-.04206s-.0063-.04206-.014-.04206-.014-.01893-.014-.04206-.0063-.04205-.014-.04205-.014-.01893-.014-.04206-.0064-.04206-.0141-.04206-.014-.01262-.014-.02804-.0063-.02804-.014-.02804-.014-.01262-.014-.02804-.0063-.02803-.014-.02803c-.0078 0-.0141-.01262-.0141-.02804s-.0063-.02804-.014-.02804-.014-.01262-.014-.02804-.0063-.02804-.014-.02804-.014-.01262-.014-.02804-.0063-.02804-.0141-.02804c-.0077 0-.014-.01261-.014-.02803 0-.01543-.0063-.02804-.014-.02804s-.014-.01262-.014-.02804-.0063-.02804-.014-.02804-.0141-.01123-.0141-.02494c0-.01373-.0126-.03404-.028-.04516-.0154-.01111-.028-.03143-.028-.04515 0-.01371-.0063-.02494-.0141-.02494-.0077 0-.014-.01123-.014-.02494 0-.01373-.0126-.03404-.028-.04516s-.028-.03143-.028-.04516c0-.01371-.0064-.02494-.0141-.02494s-.014-.01123-.014-.02494c0-.01372-.0126-.03404-.028-.04515-.0154-.01112-.0281-.02891-.0281-.03954 0-.01061-.0189-.03699-.042-.0586-.0232-.0216-.0421-.04684-.0421-.05607 0-.00924-.0189-.03448-.042-.05608-.0232-.02161-.0421-.04684-.0421-.05608s-.0189-.03447-.0421-.05608c-.0231-.0216-.042-.04646-.042-.05523 0-.00876-.0568-.07223-.1262-.14104-.0694-.0688-.1262-.13181-.1262-.14002 0-.01945-.1209-.14036-.1403-.14036-.0082 0-.0712-.05678-.14-.12618-.0689-.06939-.1323-.12617-.1411-.12617s-.0336-.01893-.0552-.04206-.0469-.042055-.0561-.042055-.0345-.018926-.0561-.042058-.0468-.042058-.056-.042058c-.0093 0-.0345-.018926-.0561-.042057-.0216-.023132-.048-.042058-.0586-.042058s-.0284-.012618-.0396-.028039c-.0111-.015421-.0314-.028038-.0451-.028038s-.025-.006309-.025-.01402c0-.00771-.0112-.014019-.0249-.014019s-.034-.012617-.0451-.028039c-.0112-.015421-.0315-.028038-.0452-.028038s-.0249-.006309-.0249-.014019c0-.007711-.0113-.01402-.025-.01402s-.034-.012617-.0451-.028038c-.0112-.015421-.0315-.028039-.0452-.028039s-.0249-.006308-.0249-.014019-.0127-.014019-.0281-.014019-.028-.006309-.028-.01402c0-.00771-.0126-.014019-.0281-.014019-.0154 0-.028-.006309-.028-.014019 0-.007711-.0126-.01402-.028-.01402-.0155 0-.0281-.006308-.0281-.014019 0-.00771-.0126-.014019-.028-.014019s-.028-.006309-.028-.014019c0-.007711-.0127-.01402-.0281-.01402s-.028-.006308-.028-.014019-.0126-.014019-.0281-.014019c-.0154 0-.028-.006309-.028-.014019 0-.007711-.0126-.01402-.028-.01402-.0155 0-.0281-.006308-.0281-.014019s-.0189-.014019-.042-.014019c-.0232 0-.0421-.006309-.0421-.01402 0-.00771-.0189-.014019-.0421-.014019-.0231 0-.042-.006309-.042-.014019 0-.007711-.0189-.014019-.0421-.014019-.0231 0-.042-.006309-.042-.01402 0-.00771-.0126-.014019-.0281-.014019-.0154 0-.028-.006309-.028-.014019 0-.007711-.0189-.01402-.0421-.01402-.0231 0-.042-.006308-.042-.014019s-.0126-.014019-.0281-.014019c-.0154 0-.028-.006309-.028-.014019 0-.007711-.0252-.01402-.0561-.01402-.0308 0-.0561-.006308-.0561-.014019s-.0315-.014019-.07-.014019c-.0386 0-.0701-.006309-.0701-.01402 0-.00771-.0253-.014019-.0561-.014019-.0309 0-.0561-.006309-.0561-.014019 0-.007711-.0189-.014019-.0421-.014019-.0231 0-.042-.006309-.042-.0140197 0-.0077948-.0374-.0140193-.0841-.0140193-.0468 0-.0841-.0062246-.0841-.0140193 0-.008005-.0421-.0140193-.0982-.0140193s-.0981-.0060143-.0981-.0140193c0-.0084116-.0561-.0140193-.1402-.0140193s-.1402-.0056077-.1402-.0140193c0-.00930876-1.3926-.01401924-4.14971-.01401924-2.75713 0-4.14971.00471048-4.14971.01401924zm8.13122 1.5140855c0 .00849.0607.01402.1542.01402.0934 0 .1542.00552.1542.01402 0 .008.0421.01402.0981.01402.0561 0 .0982.00601.0982.01401 0 .00771.0252.01402.056.01402.0309 0 .0561.00631.0561.01402s.0253.01402.0561.01402.0561.00631.0561.01402.0189.01402.042.01402c.0232 0 .0421.00631.0421.01402s.0189.01402.042.01402c.0232 0 .0421.00631.0421.01402s.0189.01402.0421.01402c.0231 0 .042.00631.042.01402s.0126.01402.0281.01402c.0154 0 .028.00631.028.01402s.0189.01402.0421.01402c.0231 0 .042.0063.042.01401s.0126.01402.028.01402c.0155 0 .0281.00631.0281.01402s.0126.01402.028.01402.0281.00631.0281.01402.0126.01402.028.01402.028.00631.028.01402.0127.01402.0281.01402.028.00631.028.01402.0126.01402.0281.01402c.0154 0 .028.00631.028.01402s.0112.01402.0249.01402c.0138 0 .0341.01261.0452.02804.0111.01542.03.02803.0421.02803.012 0 .0309.01262.042.02804s.0314.02804.0452.02804c.0137 0 .0249.00631.0249.01402s.0101.01402.0224.01402.0401.01893.0617.04206.0469.04206.0561.04206.0345.01892.0561.04205.0462.04206.0548.04206c.0202 0 .4499.42962.4499.44989 0 .00854.0189.0332.042.05481.0232.0216.0421.04683.0421.05607s.0189.03448.042.05608c.0232.0216.0421.04938.0421.0617 0 .01234.0063.02242.014.02242s.014.01122.014.02494.0127.03403.0281.04515.028.03004.028.04206c0 .01201.0126.03094.0281.04206.0154.01111.028.03143.028.04515 0 .01371.0063.02494.014.02494s.014.01262.014.02804.0063.02804.0141.02804c.0077 0 .014.01262.014.02804s.0063.02804.014.02804.014.01262.014.02804.0063.02803.014.02803.014.01262.014.02804.0064.02804.0141.02804.014.01262.014.02804.0063.02804.014.02804.014.01893.014.04206.0063.04205.014.04205c.0078 0 .0141.01262.0141.02804s.0063.02804.014.02804.014.01893.014.04206.0063.04206.014.04206.014.01892.014.04206c0 .02313.0063.04205.0141.04205.0077 0 .014.01893.014.04206s.0063.04206.014.04206.014.02523.014.05608c0 .03084.0063.05607.014.05607s.0141.02524.0141.05608.0063.05608.014.05608c.008 0 .014.04206.014.09813 0 .05608.006.09814.014.09814.0085 0 .014.06074.014.15421s.0056.15421.0141.15421c.0093 0 .014 1.3365.014 3.98148 0 2.64502-.0047 3.98152-.014 3.98152-.0085 0-.0141.0607-.0141.1542 0 .0934-.0055.1542-.014.1542-.008 0-.014.042-.014.0981s-.006.0981-.014.0981c-.0077 0-.014.0253-.014.0561 0 .0309-.0064.0561-.0141.0561s-.014.0252-.014.0561c0 .0308-.0063.0561-.014.0561s-.014.0189-.014.042-.0063.0421-.014.0421c-.0078 0-.0141.0189-.0141.042 0 .0232-.0063.0421-.014.0421s-.014.0189-.014.042c0 .0232-.0063.0421-.014.0421s-.014.0126-.014.028c0 .0155-.0063.0281-.0141.0281-.0077 0-.014.0189-.014.042 0 .0232-.0063.0421-.014.0421s-.014.0126-.014.028c0 .0155-.0063.0281-.014.0281s-.0141.0126-.0141.028-.0063.0281-.014.0281-.014.0126-.014.028-.0063.028-.014.028-.014.0126-.014.0281c0 .0154-.0063.028-.014.028-.0078 0-.0141.0126-.0141.028 0 .0155-.0063.0281-.014.0281s-.014.0112-.014.0249-.0126.0341-.028.0452c-.0155.0111-.0281.03-.0281.042 0 .0121-.0126.031-.028.0421s-.0281.0314-.0281.0452c0 .0137-.0063.0249-.014.0249s-.014.0101-.014.0224-.0189.0401-.0421.0617c-.0231.0216-.042.0468-.042.0561 0 .0092-.0189.0345-.0421.0561-.0231.0216-.042.0462-.042.0548 0 .0085-.0978.1132-.2172.2327-.1195.1194-.2242.2172-.2327.2172-.0086 0-.0332.0189-.0548.042s-.0469.0421-.0561.0421-.0345.0189-.0561.042c-.0216.0232-.0494.0421-.0617.0421s-.0224.0063-.0224.014-.0112.014-.0249.014c-.0138 0-.0341.0126-.0452.0281-.0111.0154-.03.028-.042.028-.0121 0-.031.0126-.0421.028-.0111.0155-.0314.0281-.0452.0281-.0137 0-.0249.0063-.0249.014s-.0126.014-.028.014c-.0155 0-.0281.0063-.0281.014s-.0126.0141-.028.0141-.0281.0063-.0281.014-.0126.014-.028.014-.028.0063-.028.014-.0127.014-.0281.014-.028.0063-.028.0141c0 .0077-.0126.014-.0281.014-.0154 0-.028.0063-.028.014s-.0189.014-.042.014c-.0232 0-.0421.0063-.0421.014s-.0126.0141-.028.0141c-.0155 0-.0281.0063-.0281.014s-.0189.014-.042.014c-.0232 0-.0421.0063-.0421.014s-.0189.014-.0421.014c-.0231 0-.042.0063-.042.014 0 .0078-.0189.0141-.0421.0141-.0231 0-.042.0063-.042.014s-.0253.014-.0561.014-.0561.0063-.0561.014-.0252.014-.0561.014c-.0308 0-.056.0064-.056.0141 0 .008-.0421.014-.0982.014-.056 0-.0981.006-.0981.014 0 .0085-.0608.014-.1542.014-.0935 0-.1542.0055-.1542.014 0 .0093-1.3365.0141-3.98151.0141-2.64497 0-3.98148-.0048-3.98148-.0141 0-.0085-.06074-.014-.15421-.014-.09346 0-.15421-.0055-.15421-.014 0-.008-.04206-.014-.09813-.014-.05608 0-.09814-.006-.09814-.014 0-.0077-.02523-.0141-.05608-.0141-.03084 0-.05607-.0063-.05607-.014s-.02524-.014-.05608-.014-.05608-.0063-.05608-.014-.01892-.014-.04206-.014c-.02313 0-.04205-.0063-.04205-.0141 0-.0077-.01893-.014-.04206-.014s-.04206-.0063-.04206-.014-.01893-.014-.04206-.014-.04206-.0063-.04206-.014-.01261-.014-.02803-.014-.02804-.0064-.02804-.0141-.01893-.014-.04206-.014-.04206-.0063-.04206-.014-.01262-.014-.02804-.014-.02804-.0063-.02804-.014c0-.0078-.01261-.0141-.02803-.0141s-.02804-.0063-.02804-.014-.01262-.014-.02804-.014-.02804-.0063-.02804-.014-.01262-.014-.02804-.014-.02804-.0064-.02804-.0141-.01261-.014-.02804-.014c-.01542 0-.02803-.0063-.02803-.014s-.01123-.014-.02494-.014c-.01373 0-.03404-.0126-.04516-.0281-.01112-.0154-.03004-.028-.04206-.028-.01201 0-.03094-.0126-.04206-.028-.01111-.0155-.03143-.0281-.04515-.0281-.01371 0-.02494-.0063-.02494-.014s-.01008-.014-.02242-.014c-.01232 0-.04009-.0189-.0617-.0421-.0216-.0231-.04684-.042-.05608-.042-.00923 0-.03447-.019-.05607-.0421-.02161-.0231-.04627-.042-.0548-.042-.02028 0-.4499-.4297-.4499-.4499 0-.0086-.01892-.0332-.04205-.0548-.02314-.0216-.04206-.0469-.04206-.0561 0-.0093-.01893-.0345-.04206-.0561s-.04206-.0494-.04206-.0617-.00631-.0224-.01402-.0224-.01402-.0112-.01402-.0249c0-.0138-.01261-.0341-.02803-.0452-.01543-.0111-.02804-.03-.02804-.0421 0-.012-.01262-.0309-.02804-.042s-.02804-.0315-.02804-.0452-.00631-.0249-.01402-.0249-.01402-.0126-.01402-.0281c0-.0154-.00631-.028-.01402-.028s-.01402-.0126-.01402-.028c0-.0155-.00631-.0281-.01402-.0281s-.01402-.0126-.01402-.028-.00631-.028-.01402-.028-.01401-.0127-.01401-.0281-.00631-.028-.01402-.028-.01402-.0126-.01402-.0281c0-.0154-.00631-.028-.01402-.028s-.01402-.0189-.01402-.0421c0-.0231-.00631-.042-.01402-.042s-.01402-.0126-.01402-.0281c0-.0154-.00631-.028-.01402-.028s-.01402-.0189-.01402-.0421c0-.0231-.00631-.042-.01402-.042s-.01402-.0189-.01402-.0421c0-.0231-.00631-.042-.01402-.042s-.01402-.019-.01402-.0421-.00631-.042-.01402-.042-.01401-.0253-.01401-.0561c0-.0309-.00631-.0561-.01402-.0561s-.01402-.0252-.01402-.0561c0-.0308-.00631-.0561-.01402-.0561-.00801 0-.01402-.042-.01402-.0981s-.00602-.0981-.01402-.0981c-.0085 0-.01402-.0608-.01402-.1542 0-.0935-.00552-.1542-.01402-.1542-.00931 0-.01402-1.3365-.01402-3.98152 0-2.64498.00471-3.98148.01402-3.98148.0085 0 .01402-.06074.01402-.15421s.00552-.15421.01402-.15421c.008 0 .01402-.04206.01402-.09814 0-.05607.00601-.09813.01402-.09813.00771 0 .01402-.02524.01402-.05608s.00631-.05608.01402-.05608.01402-.02523.01402-.05607c0-.03085.0063-.05608.01401-.05608s.01402-.01893.01402-.04206.00631-.04206.01402-.04206.01402-.01892.01402-.04205c0-.02314.00631-.04206.01402-.04206s.01402-.01893.01402-.04206.00631-.04206.01402-.04206.01402-.01262.01402-.02804.00631-.02804.01402-.02804.01402-.01892.01402-.04205.00631-.04206.01402-.04206.01402-.01262.01402-.02804.00631-.02804.01402-.02804.01402-.01262.01402-.02804.0063-.02804.01401-.02804.01402-.01261.01402-.02803.00631-.02804.01402-.02804.01402-.01262.01402-.02804.00631-.02804.01402-.02804.01402-.01262.01402-.02804.00631-.02804.01402-.02804.01402-.01123.01402-.02494c0-.01372.01262-.03404.02804-.04515.01542-.01112.02804-.03005.02804-.04206 0-.01202.01261-.03094.02804-.04206.01542-.01112.02803-.03143.02803-.04515s.00631-.02494.01402-.02494.01402-.01008.01402-.02242c0-.01232.01893-.0401.04206-.0617s.04206-.04684.04206-.05608.01892-.03447.04206-.05607c.02313-.02161.04205-.04627.04205-.05481 0-.02027.42962-.44989.4499-.44989.00853 0 .03319-.01893.0548-.04206.0216-.02313.04684-.04205.05607-.04205.00924 0 .03448-.01893.05608-.04206.02161-.02313.04938-.04206.0617-.04206.01234 0 .02242-.00631.02242-.01402s.01123-.01402.02494-.01402c.01372 0 .03404-.01262.04515-.02804.01112-.01542.03005-.02804.04206-.02804.01202 0 .03094-.01261.04206-.02803.01112-.01543.03143-.02804.04516-.02804.01371 0 .02494-.00631.02494-.01402s.01261-.01402.02803-.01402c.01543 0 .02804-.00631.02804-.01402s.01262-.01402.02804-.01402.02804-.00631.02804-.01402.01262-.01402.02804-.01402.02804-.00631.02804-.01402.01262-.01402.02804-.01402.02803-.00631.02803-.01402.01262-.01402.02804-.01402.02804-.00631.02804-.01402.01893-.01401.04206-.01401.04206-.00631.04206-.01402.01262-.01402.02804-.01402.02803-.00631.02803-.01402.01893-.01402.04206-.01402.04206-.00631.04206-.01402.01893-.01402.04206-.01402.04206-.00631.04206-.01402.01892-.01402.04205-.01402c.02314 0 .04206-.00631.04206-.01402s.02524-.01402.05608-.01402.05608-.00631.05608-.01402.02523-.01402.05607-.01402c.03085 0 .05608-.00631.05608-.01402 0-.008.04206-.01401.09814-.01401.05607 0 .09813-.00602.09813-.01402 0-.0085.06075-.01402.15421-.01402.09347 0 .15421-.00553.15421-.01402 0-.00931 1.33651-.01402 3.98148-.01402 2.64501 0 3.98151.00471 3.98151.01402zm.4486 1.34585c0 .00771-.0252.01402-.0561.01402-.0308 0-.0561.00631-.0561.01402s-.0252.01402-.056.01402c-.0309 0-.0561.00631-.0561.01402s-.0126.01402-.0281.01402c-.0154 0-.028.0063-.028.01401s-.0126.01402-.028.01402c-.0155 0-.0281.00631-.0281.01402s-.0126.01402-.028.01402-.0281.00631-.0281.01402-.0112.01402-.0249.01402-.034.01262-.0452.02804c-.0111.01542-.0283.02804-.0383.02804-.0237 0-.228.20431-.228.22799 0 .01-.0126.02726-.0281.03837-.0154.01112-.028.03144-.028.04516 0 .01371-.0063.02494-.014.02494s-.014.01262-.014.02804-.0063.02804-.0141.02804c-.0077 0-.014.01262-.014.02804s-.0063.02803-.014.02803-.014.01262-.014.02804-.0063.02804-.014.02804-.014.02524-.014.05608-.0064.05608-.0141.05608-.014.03154-.014.07009c0 .03856-.0063.0701-.014.0701-.0083 0-.014.05141-.014.12617 0 .07477.0057.12618.014.12618.0078 0 .014.03739.014.08411 0 .04673.0062.08412.014.08412.0077 0 .0141.01892.0141.04206 0 .02313.0063.04205.014.04205s.014.01754.014.03896c0 .02288.0116.0473.028.05918.0154.01112.0281.03143.0281.04515s.0063.02495.014.02495.014.01261.014.02803.0063.02804.014.02804.014.00955.014.02121c0 .02766.2596.28722.2873.28722.0116 0 .0212.00631.0212.01402s.0112.01401.0249.01401.034.01262.0452.02804c.0111.01542.0314.02804.0451.02804s.025.00631.025.01402.0126.01402.028.01402.028.00631.028.01402.019.01402.0421.01402.0421.00631.0421.01402.0252.01402.056.01402c.0309 0 .0561.00631.0561.01402 0 .00876.0841.01402.2243.01402s.2243-.00526.2243-.01402c0-.00771.019-.01402.0421-.01402s.042-.00631.042-.01402.0239-.01402.053-.01402c.0369 0 .0591-.00851.0732-.02804.0111-.01542.0314-.02804.0452-.02804.0137 0 .0249-.00631.0249-.01402s.0126-.01402.028-.01402c.0155 0 .0281-.00631.0281-.01402s.0101-.01402.0224-.01402.0401-.01892.0617-.04205.0464-.04206.0551-.04206c.0205 0 .1412-.12068.1412-.1412 0-.00868.0189-.03347.042-.05507.0232-.0216.0421-.04938.0421-.0617 0-.01234.0063-.02242.014-.02242s.014-.01261.014-.02803c0-.01543.0063-.02804.014-.02804.0078 0 .0141-.01262.0141-.02804s.0063-.02804.014-.02804.014-.01262.014-.02804.0063-.02804.014-.02804.014-.01892.014-.04206c0-.02313.0064-.04205.0141-.04205s.014-.01893.014-.04206.0063-.04206.014-.04206c.0082 0 .014-.04635.014-.11099 0-.07507.0057-.11363.0175-.11916.0141-.00654.0141-.00982 0-.01635-.0118-.00554-.0175-.04409-.0175-.11916 0-.06465-.0058-.111-.014-.111-.0077 0-.014-.01892-.014-.04205s-.0063-.04206-.014-.04206-.0141-.01893-.0141-.04206-.0063-.04206-.014-.04206-.014-.01261-.014-.02804c0-.01542-.0063-.02803-.014-.02803s-.014-.01262-.014-.02804-.0063-.02804-.0141-.02804c-.0077 0-.014-.01262-.014-.02804s-.0063-.02804-.014-.02804-.014-.00995-.014-.02212c0-.01218-.0252-.04638-.0561-.07601-.0308-.02964-.0561-.06097-.0561-.06964 0-.02045-.0641-.08457-.0845-.08457-.0087 0-.04-.02524-.0697-.05608-.0296-.03084-.0638-.05608-.076-.05608s-.0221-.00631-.0221-.01402-.0126-.01402-.0281-.01402c-.0154 0-.028-.00631-.028-.01402s-.0126-.01402-.028-.01402-.0281-.00631-.0281-.01402-.0189-.01401-.042-.01401c-.0232 0-.0421-.00631-.0421-.01402s-.0189-.01402-.042-.01402c-.0232 0-.0421-.00631-.0421-.01402s-.0252-.01402-.0561-.01402c-.0308 0-.0561-.00631-.0561-.01402 0-.00857-.0654-.01402-.1682-.01402s-.1682.00545-.1682.01402zm-4.76657 1.28977c0 .00841-.05608.01402-.14019.01402-.08412 0-.1402.00561-.1402.01402 0 .00801-.04205.01402-.09813.01402s-.09814.00601-.09814.01402c0 .00771-.03154.01402-.07009.01402-.03856 0-.0701.00631-.0701.01402s-.01893.01402-.04206.01402-.04206.00631-.04206.01402-.02523.01402-.05607.01402c-.03085 0-.05608.00631-.05608.01402s-.02523.01402-.05608.01402c-.03084 0-.05607.0063-.05607.01401s-.01893.01402-.04206.01402-.04206.00631-.04206.01402-.01893.01402-.04206.01402-.04206.00631-.04206.01402-.01892.01402-.04205.01402c-.02314 0-.04206.00631-.04206.01402s-.01893.01402-.04206.01402-.04206.00631-.04206.01402-.01261.01402-.02804.01402c-.01542 0-.02803.00631-.02803.01402s-.01893.01402-.04206.01402-.04206.00631-.04206.01402-.01262.01402-.02804.01402-.02804.0063-.02804.01401-.01261.01402-.02804.01402c-.01542 0-.02803.00631-.02803.01402s-.01262.01402-.02804.01402-.02804.00631-.02804.01402-.01262.01402-.02804.01402-.02804.00631-.02804.01402-.01262.01402-.02804.01402-.02804.00631-.02804.01402-.01261.01402-.02803.01402c-.01543 0-.02804.00631-.02804.01402s-.01262.01402-.02804.01402-.02804.00631-.02804.01402-.01123.01401-.02494.01401c-.01373 0-.03404.01262-.04516.02804-.01111.01542-.03143.02804-.04515.02804-.01371 0-.02494.00631-.02494.01402s-.01123.01402-.02494.01402c-.01373 0-.03404.01262-.04516.02804s-.03143.02804-.04515.02804-.02495.00631-.02495.01402-.01008.01402-.02241.01402-.0401.01892-.0617.04205c-.0216.02314-.04684.04206-.05608.04206s-.03447.01893-.05608.04206c-.0216.02313-.04683.04206-.05607.04206s-.03448.01892-.05608.04206c-.0216.02313-.04646.04205-.05524.04205-.00876 0-.07222.05678-.14103.12618-.06881.06939-.13185.12617-.14012.12617-.01955 0-.11223.09268-.11223.11223 0 .00827-.05677.07131-.12617.14012-.0694.0688-.12617.13227-.12617.14103 0 .00878-.01893.03363-.04206.05524-.02313.0216-.04206.04684-.04206.05607 0 .00924-.01893.03448-.04206.05608-.02313.02161-.04206.04684-.04206.05608s-.01892.03447-.04205.05608c-.02313.0216-.04206.04937-.04206.06169 0 .01234-.00631.02242-.01402.02242s-.01402.01123-.01402.02494c0 .01373-.01262.03404-.02804.04516s-.02804.03143-.02804.04515-.00631.02494-.01402.02494-.01402.01123-.01402.02494c0 .01373-.01261.03404-.02803.04516-.01543.01112-.02804.03143-.02804.04516 0 .01371-.00631.02494-.01402.02494s-.01402.01262-.01402.02804-.00631.02803-.01402.02803-.01402.01262-.01402.02804-.00631.02804-.01402.02804-.01402.01262-.01402.02804-.00631.02804-.01402.02804-.01402.01262-.01402.02804-.00631.02804-.01402.02804-.01402.01261-.01402.02803c0 .01543-.0063.02804-.01401.02804-.00772 0-.01402.01262-.01402.02804s-.00631.02804-.01402.02804-.01402.01262-.01402.02804-.00631.02804-.01402.02804-.01402.01892-.01402.04206c0 .02313-.00631.04205-.01402.04205s-.01402.01262-.01402.02804-.00631.02804-.01402.02804-.01402.01893-.01402.04206-.00631.04206-.01402.04206-.01402.01892-.01402.04205c0 .02314-.00631.04206-.01402.04206s-.01402.01893-.01402.04206-.0063.04206-.01401.04206c-.00772 0-.01402.01892-.01402.04206 0 .02313-.00631.04205-.01402.04205s-.01402.02524-.01402.05608-.00631.05608-.01402.05608-.01402.02523-.01402.05607c0 .03085-.00631.05608-.01402.05608s-.01402.01893-.01402.04206-.00631.04206-.01402.04206-.01402.03154-.01402.07009c0 .03856-.00631.0701-.01402.0701-.008 0-.01402.04206-.01402.09814 0 .05607-.00601.09813-.01402.09813-.00841 0-.01402.05608-.01402.14019 0 .08412-.0056.1402-.01401.1402-.00896 0-.01402.1215-.01402.33646s.00506.33646.01402.33646c.00841 0 .01401.05608.01401.14019 0 .08412.00561.1402.01402.1402.00801 0 .01402.04205.01402.09813s.00602.09814.01402.09814c.00771 0 .01402.03154.01402.07009 0 .03856.00631.0701.01402.0701s.01402.01893.01402.04206.00631.04206.01402.04206.01402.02523.01402.05607c0 .03085.00631.05608.01402.05608s.01402.02523.01402.05608c0 .03084.00631.05607.01402.05607s.01402.01893.01402.04206.0063.04206.01402.04206c.00771 0 .01401.01893.01401.04206s.00631.04206.01402.04206.01402.01895.01402.04205.00631.0421.01402.0421.01402.0189.01402.042c0 .0232.00631.0421.01402.0421s.01402.0126.01402.028.00631.0281.01402.0281.01402.0189.01402.042.00631.0421.01402.0421.01402.0126.01402.028.00631.028.01402.028.01402.0127.01402.0281.0063.028.01402.028c.00771 0 .01401.0126.01401.0281 0 .0154.00631.028.01402.028s.01402.0126.01402.028c0 .0155.00631.0281.01402.0281s.01402.0126.01402.028.00631.0281.01402.0281.01402.0126.01402.028.00631.028.01402.028.01402.0126.01402.0281c0 .0154.00631.028.01402.028s.01402.0112.01402.025c0 .0137.01261.034.02804.0451.01542.0111.02803.0314.02803.0452 0 .0137.00631.0249.01402.0249s.01402.0112.01402.0249c0 .0138.01262.0341.02804.0452s.02804.0314.02804.0452c0 .0137.00631.0249.01402.0249s.01402.0101.01402.0224.01893.0401.04206.0617.04205.0468.04205.0561c0 .0092.01893.0345.04206.0561s.04206.0468.04206.056c0 .0093.01893.0345.04206.0561s.04206.0465.04206.0553c0 .0087.05677.0722.12617.141s.12617.1318.12617.1401c0 .0196.09268.1122.11223.1122.00827 0 .07131.0568.14012.1262s.13227.1262.14103.1262c.00878 0 .03364.0189.05524.042.0216.0232.04684.0421.05608.0421s.03447.0189.05607.0421c.02161.0231.04684.042.05608.042s.03448.0189.05608.0421c.0216.0231.04937.042.0617.042s.02241.0063.02241.0141c0 .0077.01123.014.02495.014s.03403.0126.04515.028.03143.028.04516.028c.01371 0 .02494.0064.02494.0141s.01123.014.02494.014c.01372 0 .03404.0126.04515.028.01112.0154.03143.0281.04516.0281.01371 0 .02494.0063.02494.014s.01262.014.02804.014.02804.0063.02804.014.01261.014.02804.014c.01542 0 .02803.0063.02803.0141 0 .0077.01262.014.02804.014s.02804.0063.02804.014.01262.014.02804.014.02804.0063.02804.014.01262.0141.02804.0141.02804.0063.02804.014.01261.014.02803.014c.01543 0 .02804.0063.02804.014s.01262.014.02804.014.02804.0063.02804.0141c0 .0077.01893.014.04206.014s.04206.0063.04206.014.01261.014.02803.014c.01543 0 .02804.0063.02804.014s.01893.014.04206.014.04206.0064.04206.0141.01892.014.04206.014c.02313 0 .04205.0063.04205.014s.01893.014.04206.014.04206.0063.04206.014c0 .0078.01893.0141.04206.0141s.04206.0063.04206.014.02523.014.05607.014c.03085 0 .05608.0063.05608.014s.02523.014.05608.014c.03084 0 .05607.0064.05607.0141s.01893.014.04206.014.04206.0063.04206.014.03154.014.0701.014c.03855 0 .07009.0063.07009.014 0 .008.04206.0141.09814.0141s.09813.006.09813.014c0 .0084.05608.014.1402.014.08411 0 .14019.0056.14019.014 0 .009.1215.014.33646.014s.33646-.005.33646-.014c0-.0084.05608-.014.1402-.014.08411 0 .14019-.0056.14019-.014 0-.008.04206-.014.09813-.014.05608 0 .09814-.0061.09814-.0141 0-.0077.03154-.014.0701-.014.03855 0 .07009-.0063.07009-.014s.01893-.014.04206-.014.04206-.0063.04206-.014.02523-.0141.05608-.0141c.03084 0 .0561-.0063.0561-.014s.0252-.014.056-.014c.0309 0 .0561-.0063.0561-.014s.019-.014.0421-.014.042-.0063.042-.0141c0-.0077.019-.014.0421-.014s.0421-.0063.0421-.014.0189-.014.042-.014.0421-.0063.0421-.014.0189-.0141.042-.0141c.0232 0 .0421-.0063.0421-.014s.0126-.014.028-.014.0281-.0063.0281-.014.0189-.014.042-.014c.0232 0 .0421-.0063.0421-.014 0-.0078.0126-.0141.028-.0141s.0281-.0063.0281-.014.0126-.014.028-.014.028-.0063.028-.014.0127-.014.0281-.014.028-.0064.028-.0141.0126-.014.0281-.014c.0154 0 .028-.0063.028-.014s.0126-.014.028-.014c.0155 0 .0281-.0063.0281-.014 0-.0078.0126-.0141.028-.0141s.028-.0063.028-.014.0127-.014.0281-.014.028-.0063.028-.014.0113-.014.025-.014.034-.0127.0451-.0281.0314-.028.0452-.028c.0137 0 .0249-.0063.0249-.014s.0112-.0141.025-.0141c.0137 0 .034-.0126.0451-.028s.0314-.028.0452-.028c.0137 0 .0249-.0063.0249-.014 0-.0078.0101-.0141.0224-.0141s.0401-.0189.0617-.042c.0216-.0232.0469-.0421.0561-.0421s.0345-.0189.0561-.042c.0216-.0232.0468-.0421.0561-.0421.0092 0 .0344-.0189.056-.0421.0216-.0231.0465-.042.0553-.042.0087 0 .0722-.0568.141-.1262s.1319-.1262.1401-.1262c.0196 0 .1122-.0926.1122-.1122 0-.0083.0568-.0713.1262-.1401s.1262-.1323.1262-.141c0-.0088.0189-.0337.0421-.0553.0231-.0216.042-.0468.042-.0561 0-.0092.0189-.0344.0421-.056.0231-.0216.042-.0469.042-.0561 0-.0093.019-.0345.0421-.0561s.042-.0494.042-.0617.0064-.0224.0141-.0224.014-.0112.014-.0249c0-.0138.0126-.0341.028-.0452s.0281-.0314.0281-.0452c0-.0137.0063-.0249.014-.0249s.014-.0112.014-.0249c0-.0138.0126-.0341.028-.0452.0155-.0111.0281-.0314.0281-.0451 0-.0138.0063-.025.014-.025s.014-.0126.014-.028c0-.0155.0063-.0281.014-.0281s.0141-.0126.0141-.028.0063-.028.014-.028.014-.0127.014-.0281.0063-.028.014-.028.014-.0126.014-.0281c0-.0154.0063-.028.014-.028.0078 0 .0141-.0126.0141-.028 0-.0155.0063-.0281.014-.0281s.014-.0126.014-.028.0063-.0281.014-.0281.014-.0126.014-.028.0064-.028.0141-.028.014-.019.014-.0421.0063-.042.014-.042.014-.0127.014-.0281.0063-.028.014-.028c.0078 0 .0141-.0189.0141-.0421 0-.0231.0063-.042.014-.042s.014-.019.014-.0421.0063-.04205.014-.04205.014-.01893.014-.04206.0063-.04206.0141-.04206c.0077 0 .014-.01893.014-.04206s.0063-.04206.014-.04206.014-.02523.014-.05607c0-.03085.0063-.05608.014-.05608s.0141-.02523.0141-.05608c0-.03084.0063-.05607.014-.05607s.014-.01893.014-.04206.0063-.04206.014-.04206.014-.03154.014-.0701c0-.03855.0063-.07009.0141-.07009.008 0 .014-.04206.014-.09814s.006-.09813.014-.09813c.0084 0 .014-.05608.014-.1402 0-.08411.0056-.14019.014-.14019.009 0 .014-.1215.014-.33646s-.005-.33646-.014-.33646c-.0084 0-.014-.05608-.014-.1402 0-.08411-.0056-.14019-.014-.14019-.008 0-.014-.04206-.014-.09813 0-.05608-.006-.09814-.014-.09814-.0078 0-.0141-.03154-.0141-.0701 0-.03855-.0063-.07009-.014-.07009s-.014-.01893-.014-.04206-.0063-.04206-.014-.04206-.014-.02523-.014-.05608c0-.03084-.0064-.05607-.0141-.05607s-.014-.02524-.014-.05608-.0063-.05608-.014-.05608-.014-.01892-.014-.04205c0-.02314-.0063-.04206-.014-.04206-.0078 0-.0141-.01893-.0141-.04206s-.0063-.04206-.014-.04206-.014-.01892-.014-.04206c0-.02313-.0063-.04205-.014-.04205s-.014-.01893-.014-.04206-.0063-.04206-.0141-.04206c-.0077 0-.014-.01262-.014-.02804s-.0063-.02804-.014-.02804-.014-.01892-.014-.04205c0-.02314-.0063-.04206-.014-.04206s-.0141-.01262-.0141-.02804-.0063-.02804-.014-.02804-.014-.01262-.014-.02804-.0063-.02804-.014-.02804-.014-.01261-.014-.02804c0-.01542-.0063-.02803-.0141-.02803-.0077 0-.014-.01262-.014-.02804s-.0063-.02804-.014-.02804-.014-.01262-.014-.02804-.0063-.02804-.014-.02804-.014-.01262-.014-.02804-.0064-.02804-.0141-.02804-.014-.01261-.014-.02803-.0063-.02804-.014-.02804-.014-.01123-.014-.02494c0-.01373-.0126-.03404-.0281-.04516-.0154-.01112-.028-.03143-.028-.04516 0-.01371-.0063-.02494-.014-.02494s-.014-.01122-.014-.02494-.0127-.03403-.0281-.04515-.028-.03143-.028-.04516c0-.01371-.0063-.02494-.014-.02494s-.0141-.01008-.0141-.02242c0-.01232-.0189-.04009-.042-.06169-.0231-.02161-.0421-.04684-.0421-.05608s-.0189-.03447-.042-.05608c-.0232-.0216-.0421-.04684-.0421-.05608 0-.00923-.0189-.03447-.042-.05607-.0232-.02161-.0421-.04646-.0421-.05524 0-.00876-.0568-.07223-.1262-.14103-.0694-.06881-.1262-.13185-.1262-.14012 0-.01955-.0926-.11223-.1122-.11223-.0082 0-.0713-.05678-.1401-.12617-.0688-.0694-.1323-.12618-.141-.12618-.0088 0-.0337-.01892-.0553-.04205-.0216-.02314-.0468-.04206-.056-.04206-.0093 0-.0345-.01893-.0561-.04206s-.0469-.04206-.0561-.04206-.0345-.01892-.0561-.04206c-.0216-.02313-.0494-.04205-.0617-.04205s-.0224-.00631-.0224-.01402-.0112-.01402-.0249-.01402c-.0138 0-.0341-.01262-.0452-.02804s-.0314-.02804-.0451-.02804c-.0138 0-.025-.00631-.025-.01402s-.0112-.01402-.0249-.01402c-.0138 0-.0341-.01262-.0452-.02804s-.0314-.02804-.0451-.02804-.025-.0063-.025-.01401-.0126-.01402-.028-.01402-.0281-.00631-.0281-.01402-.0126-.01402-.028-.01402-.028-.00631-.028-.01402-.0126-.01402-.0281-.01402c-.0154 0-.028-.00631-.028-.01402s-.0126-.01402-.028-.01402c-.0155 0-.0281-.00631-.0281-.01402s-.0126-.01402-.028-.01402-.0281-.00631-.0281-.01402-.0126-.01402-.028-.01402-.028-.00631-.028-.01402-.0127-.01401-.0281-.01401-.028-.00631-.028-.01402-.0189-.01402-.0421-.01402c-.0231 0-.042-.00631-.042-.01402s-.0127-.01402-.0281-.01402-.028-.00631-.028-.01402-.0189-.01402-.0421-.01402c-.0231 0-.042-.00631-.042-.01402s-.019-.01402-.0421-.01402-.042-.00631-.042-.01402-.019-.01402-.0421-.01402-.0421-.00631-.0421-.01402-.0189-.01402-.042-.01402-.0421-.00631-.0421-.01402-.0252-.01401-.0561-.01401c-.0308 0-.056-.00631-.056-.01402s-.02526-.01402-.0561-.01402c-.03085 0-.05608-.00631-.05608-.01402s-.01893-.01402-.04206-.01402-.04206-.00631-.04206-.01402-.03154-.01402-.07009-.01402c-.03856 0-.0701-.00631-.0701-.01402 0-.00801-.04206-.01402-.09814-.01402-.05607 0-.09813-.00601-.09813-.01402 0-.00841-.05608-.01402-.14019-.01402-.08412 0-.1402-.00561-.1402-.01402 0-.00896-.1215-.01402-.33646-.01402s-.33646.00506-.33646.01402zm.61685 1.51409c0 .008.04206.01401.09813.01401.05608 0 .09814.00602.09814.01402 0 .00771.03154.01402.07009.01402.03856 0 .0701.00631.0701.01402s.02523.01402.05608.01402c.03084 0 .05607.00631.05607.01402s.02524.01402.05608.01402.05608.00631.05608.01402.01892.01402.04206.01402c.02313 0 .04205.00631.04205.01402s.01893.01402.04206.01402.04206.00631.04206.01402.01262.01402.02804.01402.02804.0063.02804.01402c0 .00771.01892.01401.04205.01401.02314 0 .04209.00631.04209.01402s.0126.01402.028.01402.028.00631.028.01402.0127.01402.0281.01402.028.00631.028.01402.0126.01402.0281.01402c.0154 0 .028.00631.028.01402s.0126.01402.028.01402c.0155 0 .0281.00631.0281.01402s.0112.01402.0249.01402.0341.01262.0452.02804.0314.02803.0451.02803.025.00631.025.01402.0126.01402.028.01402.0281.00631.0281.01402.0099.01402.0221.01402.0463.02524.076.05608c.0296.03084.0613.05608.0704.05608.009 0 .0342.01892.0558.04205.0216.02314.0462.04206.0548.04206.0203 0 .3657.34546.3657.36575 0 .00855.019.03323.0421.05483s.0421.04671.0421.0558c0 .00907.0252.04074.056.07037.0309.02964.0561.06383.0561.07602 0 .01217.0063.02212.014.02212s.014.01262.014.02804.0064.02804.0141.02804.014.01123.014.02494c0 .01372.0126.03403.028.04515s.0281.03143.0281.04516c0 .01371.0063.02494.014.02494s.014.01262.014.02804.0063.02804.014.02804.014.01261.014.02803c0 .01543.0063.02804.0141.02804.0077 0 .014.01262.014.02804s.0063.02804.014.02804.014.01262.014.02804.0063.02804.014.02804.0141.01892.0141.04206c0 .02313.0063.04205.014.04205s.014.01262.014.02804.0063.02804.014.02804.014.01893.014.04206.0063.04206.0141.04206c.0077 0 .014.01892.014.04205 0 .02314.0063.04206.014.04206s.014.02524.014.05608.0063.05608.014.05608.014.02523.014.05607c0 .03085.0064.05608.0141.05608s.014.03154.014.0701c0 .03855.0063.07009.014.07009.008 0 .014.04206.014.09814 0 .05607.006.09813.014.09813.0089 0 .0141.10281.0141.28039s-.0052.28038-.0141.28038c-.008 0-.014.04206-.014.09814s-.006.09813-.014.09813c-.0077 0-.014.03155-.014.0701s-.0063.0701-.014.0701-.0141.02523-.0141.05607c0 .03085-.0063.05608-.014.05608s-.014.02524-.014.05608-.0063.05608-.014.05608-.014.01892-.014.04205c0 .02314-.0063.04206-.014.04206-.0078 0-.0141.01893-.0141.04206s-.0063.04206-.014.04206-.014.01261-.014.02804c0 .01542-.0063.02803-.014.02803s-.014.01893-.014.04206-.0064.04206-.0141.04206-.014.01262-.014.02804-.0063.02804-.014.02804-.014.01261-.014.02804c0 .01542-.0063.02803-.014.02803-.0078 0-.0141.01262-.0141.02804s-.0063.02804-.014.02804-.014.01262-.014.02804-.0063.02804-.014.02804-.014.01123-.014.02494c0 .01372-.0127.03404-.0281.04515-.0154.01114-.028.03144-.028.04514s-.0063.025-.014.025-.0141.0126-.0141.028-.0063.028-.014.028-.014.01-.014.0222c0 .0121-.0252.0463-.0561.076-.0308.0296-.056.0613-.056.0704 0 .009-.019.0341-.0421.0557-.0231.0217-.0421.0463-.0421.0549 0 .0203-.3454.3657-.3657.3657-.0086 0-.0332.019-.0548.0421s-.0468.042-.0558.042c-.0091 0-.0408.0253-.0704.0561-.0297.0309-.0638.0561-.076.0561s-.0221.0063-.0221.014-.0127.014-.0281.014-.028.0063-.028.0141c0 .0077-.0113.014-.025.014s-.034.0126-.0451.028-.0315.028-.0452.028-.0249.0064-.0249.0141-.0126.014-.0281.014c-.0154 0-.028.0063-.028.014s-.0126.014-.028.014c-.0155 0-.0281.0063-.0281.014 0 .0078-.0126.0141-.028.0141s-.0281.0063-.0281.014-.0126.014-.028.014-.028.0063-.028.014-.01895.014-.04209.014c-.02313 0-.04205.0064-.04205.0141s-.01262.014-.02804.014-.02804.0063-.02804.014-.01893.014-.04206.014-.04206.0063-.04206.014c0 .0078-.01892.0141-.04205.0141-.02314 0-.04206.0063-.04206.014s-.02524.014-.05608.014-.05608.0063-.05608.014-.02523.014-.05607.014c-.03085 0-.05608.0063-.05608.0141 0 .0077-.03154.014-.0701.014-.03855 0-.07009.0063-.07009.014 0 .008-.04206.014-.09814.014-.05607 0-.09813.006-.09813.014 0 .0089-.10281.0141-.28039.0141s-.28038-.0052-.28038-.0141c0-.008-.04206-.014-.09814-.014s-.09813-.006-.09813-.014c0-.0077-.03155-.014-.0701-.014s-.0701-.0063-.0701-.014c0-.0078-.02523-.0141-.05607-.0141-.03085 0-.05608-.0063-.05608-.014s-.02524-.014-.05608-.014-.05608-.0063-.05608-.014-.01892-.014-.04205-.014c-.02314 0-.04206-.0063-.04206-.0141 0-.0077-.01893-.014-.04206-.014s-.04206-.0063-.04206-.014-.01261-.014-.02804-.014c-.01542 0-.02803-.0063-.02803-.014s-.01893-.0141-.04206-.0141-.04206-.0063-.04206-.014-.01262-.014-.02804-.014-.02804-.0063-.02804-.014-.01261-.014-.02804-.014c-.01542 0-.02803-.0063-.02803-.0141 0-.0077-.01262-.014-.02804-.014s-.02804-.0063-.02804-.014-.01262-.014-.02804-.014-.02804-.0063-.02804-.014-.01123-.0141-.02494-.0141c-.01372 0-.03404-.0126-.04515-.028-.01112-.0154-.03144-.028-.04516-.028-.01371 0-.02494-.0063-.02494-.014 0-.0078-.01262-.0141-.02804-.0141s-.02804-.0063-.02804-.014-.00995-.014-.02212-.014c-.01218 0-.04638-.0252-.07601-.0561-.02964-.0308-.06131-.0561-.07038-.0561-.00908 0-.03419-.0189-.0558-.042-.0216-.0231-.04627-.0421-.05483-.0421-.02028 0-.36575-.3454-.36575-.3657 0-.0086-.01892-.0332-.04205-.0549-.02314-.0216-.04206-.0467-.04206-.0557 0-.0091-.02524-.0408-.05608-.0704-.03084-.0297-.05608-.0639-.05608-.076 0-.0122-.0063-.0222-.01401-.0222-.00772 0-.01402-.0126-.01402-.028s-.00631-.028-.01402-.028-.01402-.0113-.01402-.025-.01262-.034-.02804-.04514c-.01542-.01111-.02804-.03143-.02804-.04515 0-.01371-.00631-.02494-.01402-.02494s-.01402-.01262-.01402-.02804-.00631-.02804-.01402-.02804-.01402-.01262-.01402-.02804-.00631-.02804-.01402-.02804-.01402-.01261-.01402-.02803c0-.01543-.0063-.02804-.01401-.02804-.00772 0-.01402-.01262-.01402-.02804s-.00631-.02804-.01402-.02804-.01402-.01893-.01402-.04206-.00631-.04206-.01402-.04206-.01402-.01261-.01402-.02803c0-.01543-.00631-.02804-.01402-.02804s-.01402-.01893-.01402-.04206-.00631-.04206-.01402-.04206-.01402-.01892-.01402-.04206c0-.02313-.00631-.04205-.01402-.04205s-.01402-.02524-.01402-.05608-.00631-.05608-.01402-.05608-.01402-.02523-.01402-.05608c0-.03084-.0063-.05607-.01401-.05607-.00772 0-.01402-.03155-.01402-.0701s-.00631-.0701-.01402-.0701c-.00801 0-.01402-.04205-.01402-.09813s-.00602-.09814-.01402-.09814c-.00888 0-.01402-.1028-.01402-.28038s.00514-.28039.01402-.28039c.008 0 .01402-.04206.01402-.09813 0-.05608.00601-.09814.01402-.09814.00771 0 .01402-.03154.01402-.07009 0-.03856.0063-.0701.01402-.0701.00771 0 .01401-.02523.01401-.05608 0-.03084.00631-.05607.01402-.05607s.01402-.02524.01402-.05608.00631-.05608.01402-.05608.01402-.01892.01402-.04206c0-.02313.00631-.04205.01402-.04205s.01402-.01893.01402-.04206.00631-.04206.01402-.04206.01402-.01262.01402-.02804.00631-.02804.01402-.02804.01402-.01892.01402-.04205c0-.02314.00631-.04206.01402-.04206s.01402-.01262.01402-.02804.0063-.02804.01402-.02804c.00771 0 .01401-.01262.01401-.02804s.00631-.02804.01402-.02804.01402-.01261.01402-.02804c0-.01542.00631-.02803.01402-.02803s.01402-.01262.01402-.02804.00631-.02804.01402-.02804.01402-.01123.01402-.02494c0-.01373.01262-.03404.02804-.04516s.02804-.03143.02804-.04515c0-.01371.00631-.02494.01402-.02494s.01402-.01262.01402-.02804.0063-.02804.01402-.02804c.00771 0 .01401-.00995.01401-.02212 0-.01219.02524-.04638.05608-.07602.03084-.02963.05608-.0613.05608-.07037 0-.00909.01892-.0342.04206-.0558.02313-.0216.04205-.04628.04205-.05483 0-.02029.34547-.36575.36575-.36575.00856 0 .03323-.01892.05483-.04206.02161-.02313.04672-.04205.0558-.04205.00907 0 .04074-.02524.07038-.05608.02963-.03084.06383-.05608.07601-.05608.01217 0 .02212-.00631.02212-.01402s.01262-.01402.02804-.01402.02804-.00631.02804-.01402.01123-.01402.02494-.01402c.01372 0 .03404-.01261.04516-.02803.01111-.01542.03143-.02804.04515-.02804.01371 0 .02494-.00631.02494-.01402s.01262-.01402.02804-.01402.02804-.00631.02804-.01402.01262-.01402.02804-.01402.02804-.00631.02804-.01402.01261-.01402.02803-.01402c.01543 0 .02804-.00631.02804-.01402s.01262-.01402.02804-.01402.02804-.00631.02804-.01402.01893-.01402.04206-.01402.04206-.0063.04206-.01401c0-.00772.01261-.01402.02803-.01402.01543 0 .02804-.00631.02804-.01402s.01893-.01402.04206-.01402.04206-.00631.04206-.01402.01892-.01402.04206-.01402c.02313 0 .04205-.00631.04205-.01402s.02524-.01402.05608-.01402.05608-.00631.05608-.01402.02523-.01402.05608-.01402c.03084 0 .05607-.00631.05607-.01402s.03155-.01402.0701-.01402.0701-.00631.0701-.01402c0-.008.04205-.01402.09813-.01402s.09814-.00601.09814-.01401c0-.00888.1028-.01402.28038-.01402s.28039.00514.28039.01402z" fill="#43a45e" fill-rule="evenodd"/></svg>