<svg fill="none" height="16" viewBox="0 0 22 16" width="22" xmlns="http://www.w3.org/2000/svg"><path clip-rule="evenodd" d="m10.6829 4.2562.0446.6733-.74416-.08245c-2.7088-.31603-5.07527-1.38782-7.08455-3.18787l-.98231-.893149-.25302.659559c-.5358 1.47027-.19348 3.02298.92278 4.06728.59534.57712.46139.65956-.56557.31604-.35721-.10992-.66976-.19237-.69953-.15115-.10418.09619.25302 1.3466.53581 1.84127.38697.68704 1.17579 1.36035 2.03904 1.75883l.72929.31604-.86324.01374c-.83348 0-.86325.01374-.77395.3023.29767.89316 1.47347 1.84126 2.78322 2.25346l.92278.2886-.80371.4397c-1.19068.6321-2.58973.9893-3.98878 1.0168-.66976.0138-1.220448.0687-1.220448.1099 0 .1374 1.815788.9069 2.872518 1.2092 3.17018.8932 6.93573.5084 9.76353-1.0168 2.0093-1.0855 4.0186-3.2428 4.9562-5.33142.5061-1.11301 1.0121-3.14665 1.0121-4.12225 0-.63208.0447-.71452.8782-1.47027.4911-.43971.9525-.92063 1.0418-1.05804.1488-.26108.1339-.26108-.6251-.02748-1.2651.41222-1.4437.35726-.8186-.26108.4614-.43971 1.0121-1.236674 1.0121-1.470268 0-.041223-.2233.027481-.4763.151149-.2679.137408-.8632.34352-1.3097.467189l-.8038.23359-.7292-.453444c-.4019-.247335-.9675-.522152-1.2651-.604597-.7591-.1923711-1.92-.1648895-2.6047.054964-1.8604.618337-3.0362 2.212267-2.9022 3.957357z" fill="#5a5a5a" fill-rule="evenodd"/></svg>