<svg width="15" height="16" viewBox="0 0 15 16" fill="none" xmlns="http://www.w3.org/2000/svg">
<path d="M13.3788 4.63804H13.3731C13.2902 4.49493 13.1731 4.37558 13.0327 4.29117L7.95578 1.36929C7.81718 1.29105 7.66134 1.25 7.5029 1.25C7.34446 1.25 7.18861 1.29105 7.05002 1.36929L1.97311 4.27941C1.82976 4.36195 1.71035 4.4816 1.62696 4.62628C1.62696 4.62705 1.62681 4.62781 1.62652 4.62853C1.62623 4.62924 1.62581 4.62989 1.62527 4.63043C1.62474 4.63098 1.6241 4.63141 1.6234 4.63171C1.6227 4.63201 1.62195 4.63216 1.62119 4.63216V4.64392C1.54042 4.78261 1.49852 4.94121 1.50004 5.10248V10.8992C1.50033 11.0668 1.54428 11.2313 1.6274 11.3759C1.71051 11.5205 1.82982 11.6401 1.97311 11.7223L7.05002 14.6324C7.17783 14.7035 7.31994 14.7437 7.4654 14.75H7.54617C7.68966 14.7428 7.8297 14.7026 7.95578 14.6324L13.0327 11.7223C13.1745 11.6388 13.2923 11.5189 13.3743 11.3744C13.4564 11.23 13.4997 11.0661 13.5 10.8992V5.10248C13.5008 4.93944 13.459 4.77913 13.3788 4.63804ZM7.50001 2.19235L12.1038 4.82617L10.3327 5.84912L5.68271 3.23294L7.50001 2.19235ZM7.55194 7.45998L2.90773 4.82617L4.73656 3.7797L9.39231 6.39587L7.55194 7.45998ZM7.96732 13.5448L8.01347 8.27717L9.86539 7.2013V9.44122C9.86539 9.56596 9.91401 9.68559 10.0006 9.77379C10.0871 9.86199 10.2045 9.91154 10.3269 9.91154C10.4493 9.91154 10.5667 9.86199 10.6533 9.77379C10.7398 9.68559 10.7885 9.56596 10.7885 9.44122V6.66631L12.5769 5.6316V10.8992L7.96732 13.5448Z" fill="#1A1A1A"/>
</svg>
