<svg fill="none" height="80" viewBox="0 0 80 80" width="80" xmlns="http://www.w3.org/2000/svg"><ellipse cx="39.5745" cy="40" fill="#f7f7f7" opacity=".4" rx="39.5745" ry="40"/><g stroke="#43a45e" stroke-linecap="round" stroke-linejoin="round" stroke-width="1.5"><path d="m47.3779 43.0973c2.403-2.1073 3.918-5.1867 3.918-8.6168 0-6.3523-5.1959-11.5018-11.6054-11.5018s-11.6054 5.1495-11.6054 11.5018c0 2.8961 1.08 5.5422 2.8626 7.5643h-.0649c.0549.0359.1094.0727.1635.1104.499.5516 1.0509 1.0552 1.6478 1.5028 1.9758 2.262 3.194 3.922 3.0589 5.5434h7.7714c-.2788-3.1366 1.9626-4.1397 3.8535-6.1041z"/><path d="m35.0484 49.2844h8.51065v5.41587h-8.51065z"/><path d="m36.5958 54.7001h5.41587v2.32109h-5.41587z"/><path d="m43.5591 52.3791h3.0948"/><path d="m31.9537 52.3791h3.0948"/><path d="m35.2349 33.9624 4.5593 4.5593 4.5593-4.5593"/><path d="m39.6907 38.4526v10.0581"/></g></svg>