<svg width="30" height="30" viewBox="0 0 30 30" fill="none" xmlns="http://www.w3.org/2000/svg">
<path d="M16.0813 17.9561C16.6015 17.7926 17.3952 17.3467 17.8269 16.9969C20.0768 14.8569 19.3802 11.3761 17.5216 9.27458C15.4387 6.7936 11.5304 6.19244 8.50122 7.11315C3.73157 8.44076 0.528203 13.3863 0.549876 18.1225C0.791562 25.3703 8.33553 30.5955 15.4352 29.9454C19.8727 29.6101 23.8828 27.4984 26.5604 24.3373C34.7305 14.692 27.4699 2.23488e-05 13.9958 0C10.1825 -6.32478e-06 6.55886 1.24253 3.37739 4.11218C1.52821 5.78012 0.637929 7.48367 0.030455 9.14758C-0.20909 9.80371 1.02481 8.31563 1.62009 7.73974C4.05869 5.38063 5.96848 4.78019 8.14183 4.34744C11.9739 3.58443 16.2551 4.5533 18.9404 6.76146C19.625 7.32072 20.596 8.36262 21.0421 9.07729C22.3485 10.9751 22.6126 13.2584 21.9804 15.4144C21.204 18.0071 19.1327 20.2627 16.3265 20.8215C14.3744 21.2102 12.1788 20.6911 10.7454 19.3664C9.45379 18.2519 8.81112 17.1506 9.08403 15.4518C9.23972 14.2863 10.2541 12.901 11.6955 13.2769C12.5313 13.4948 13.0394 14.3872 12.6063 15.1462C12.1105 15.9509 11.7575 16.8279 12.622 17.5147C13.5631 18.3614 14.8385 18.3127 16.0813 17.9561Z" fill="#43A45E"/>
</svg>
